<svg viewBox="0 0 19 11" fill="none" xmlns="http://www.w3.org/2000/svg">
<path d="M17.7771 2.38743L10.0771 10.1103C9.98542 10.202 9.88611 10.2668 9.77917 10.3047C9.67222 10.3432 9.55764 10.3624 9.43542 10.3624C9.3132 10.3624 9.19861 10.3432 9.09167 10.3047C8.98472 10.2668 8.88542 10.202 8.79375 10.1103L1.07083 2.38743C0.856944 2.17354 0.75 1.90618 0.75 1.58534C0.75 1.26451 0.864583 0.989511 1.09375 0.760344C1.32292 0.531178 1.59028 0.416594 1.89583 0.416594C2.20139 0.416594 2.46875 0.531178 2.69792 0.760344L9.43542 7.49784L16.1729 0.760344C16.3868 0.546454 16.6502 0.43951 16.9631 0.43951C17.2766 0.43951 17.5479 0.554093 17.7771 0.78326C18.0063 1.01243 18.1208 1.27979 18.1208 1.58534C18.1208 1.8909 18.0063 2.15826 17.7771 2.38743Z" fill="white" fill-opacity="0.8"/>
</svg>
