<svg xmlns="http://www.w3.org/2000/svg" xmlns:xlink="http://www.w3.org/1999/xlink" width="1080" zoomAndPan="magnify" viewBox="0 0 810 374.999991" height="500" preserveAspectRatio="xMidYMid meet" version="1.0" data-locator-target="vscode"><defs><clipPath id="9b8e9add14"><path d="M 1 90.300781 L 809 90.300781 L 809 284.550781 L 1 284.550781 Z M 1 90.300781 " clip-rule="nonzero"/></clipPath></defs><g clip-path="url(#9b8e9add14)"><path fill="#737373" d="M 691.535156 279.9375 L 722.886719 279.9375 L 722.886719 213.164062 C 722.886719 197.238281 730.085938 177.203125 753.734375 177.203125 C 769.675781 177.203125 776.863281 184.910156 776.863281 202.890625 L 776.863281 279.9375 L 808.21875 279.9375 L 808.21875 193.90625 C 808.21875 156.144531 782.773438 146.898438 760.675781 146.898438 C 742.933594 146.898438 730.339844 153.832031 723.402344 162.824219 L 722.886719 162.824219 L 722.886719 91.9375 L 691.535156 91.9375 Z M 681.765625 183.882812 C 673.800781 164.367188 658.378906 146.898438 626.765625 146.898438 C 584.617188 146.898438 560.199219 176.179688 560.199219 214.957031 C 560.199219 253.742188 584.617188 283.019531 624.449219 283.019531 C 659.667969 283.019531 674.570312 262.21875 683.308594 243.207031 L 656.578125 229.089844 C 651.695312 240.902344 643.730469 254.253906 624.96875 254.253906 C 603.121094 254.253906 593.09375 235.253906 593.09375 214.957031 C 593.09375 194.671875 604.402344 175.664062 626.765625 175.664062 C 639.097656 175.664062 650.152344 183.625 654.269531 196.472656 Z M 453.621094 198.261719 C 456.964844 184.398438 469.046875 172.585938 487.289062 172.585938 C 508.363281 172.585938 516.84375 191.332031 516.84375 198.261719 Z M 549.746094 222.410156 C 549.746094 175.917969 530.726562 146.898438 487.289062 146.898438 C 445.136719 146.898438 420.71875 176.179688 420.71875 214.957031 C 420.71875 253.742188 445.136719 283.019531 487.289062 283.019531 C 522.753906 283.019531 541.519531 266.074219 551.285156 251.175781 L 524.816406 235.769531 C 521.726562 240.128906 511.960938 254.253906 487.289062 254.253906 C 470.324219 254.253906 454.136719 241.675781 453.621094 222.410156 Z M 359.726562 121.679688 L 359.726562 250.148438 C 359.726562 269.925781 368.464844 281.480469 394.160156 281.480469 C 403.9375 281.480469 411.640625 279.9375 419.097656 278.398438 L 419.097656 252.714844 C 414.46875 253.226562 409.585938 254.253906 405.214844 254.253906 C 393.132812 254.253906 391.078125 248.609375 391.078125 238.335938 L 391.078125 172.585938 L 419.097656 172.585938 L 419.097656 149.980469 L 391.078125 149.980469 L 391.078125 90.308594 Z M 307.1875 279.9375 L 338.542969 279.9375 L 338.542969 91.9375 L 307.1875 91.9375 Z M 253.386719 233.457031 C 253.386719 250.148438 234.625 257.339844 219.96875 257.339844 C 208.660156 257.339844 199.667969 250.914062 199.667969 241.152344 C 199.667969 228.828125 209.4375 225.488281 221.257812 223.183594 L 238.472656 219.582031 C 244.132812 218.554688 249.277344 217.015625 253.386719 214.957031 Z M 284.738281 189.539062 C 284.738281 152.554688 256.726562 146.898438 228.707031 146.898438 C 200.183594 146.898438 173.191406 158.710938 173.191406 189.277344 L 204.550781 190.566406 C 204.550781 176.4375 210.464844 171.046875 228.707031 171.046875 C 242.332031 171.046875 253.386719 174.636719 253.386719 187.476562 L 253.386719 191.332031 C 245.421875 194.15625 230.761719 196.722656 219.457031 199.035156 L 206.347656 201.601562 C 187.074219 205.457031 166.765625 216.761719 166.765625 242.1875 C 166.765625 267.351562 186.300781 283.019531 210.976562 283.019531 C 227.167969 283.019531 241.304688 277.886719 253.386719 268.125 C 253.386719 271.46875 254.414062 276.859375 256.464844 279.9375 L 289.621094 279.9375 C 287.828125 277.113281 284.738281 271.46875 284.738281 258.105469 Z M 162.042969 149.980469 C 153.300781 111.714844 125.28125 92.449219 88.53125 92.449219 C 33.789062 92.449219 1.769531 136.878906 1.769531 188.503906 C 1.769531 240.128906 29.933594 284.558594 88.53125 284.558594 C 125.03125 284.558594 149.445312 266.839844 164.097656 230.117188 L 132.742188 215.730469 C 126.058594 237.046875 112.433594 252.714844 88.53125 252.714844 C 52.035156 252.714844 36.871094 220.355469 36.871094 188.503906 C 36.871094 156.660156 52.035156 124.300781 88.53125 124.300781 C 109.351562 124.300781 126.058594 138.167969 128.886719 158.460938 Z M 162.042969 149.980469 " fill-opacity="1" fill-rule="nonzero"/></g></svg>