<svg xmlns="http://www.w3.org/2000/svg" id="Layer_1" data-name="Layer 1" viewBox="0 0 300 300" data-locator-target="vscode">
    <defs>
      <style>
        .cls-1 {
          fill: #737373;
        }
      </style>
    </defs>
    <path class="cls-1" d="M200.05,158.03c-.12-.64-.27-1.27-.45-1.89-.18-.62-.38-1.23-.62-1.83-.23-.6-.49-1.19-.78-1.76-.29-.57-.6-1.13-.94-1.67s-.7-1.06-1.09-1.56c-.39-.5-.8-.98-1.23-1.44-.43-.46-.89-.89-1.36-1.31-.47-.41-.96-.8-1.47-1.16-.51-.36-1.03-.69-1.57-1-.54-.31-1.09-.58-1.66-.83-.56-.25-1.14-.47-1.73-.65-.59-.19-1.18-.35-1.78-.47-.6-.13-1.21-.22-1.81-.29-.61-.06-1.22-.09-1.83-.09s-1.22,.03-1.83,.09c-.61,.06-1.21,.16-1.81,.29-.6,.13-1.19,.29-1.78,.47-.59,.19-1.16,.41-1.73,.65-.56,.25-1.12,.53-1.66,.83-.54,.31-1.06,.64-1.57,1-.51,.36-1,.75-1.47,1.16-.47,.41-.93,.85-1.36,1.31-.43,.46-.84,.94-1.23,1.44-.39,.5-.75,1.02-1.09,1.56-.34,.54-.65,1.1-.94,1.67-.29,.57-.55,1.16-.78,1.76-.23,.6-.44,1.21-.62,1.83-.18,.62-.33,1.25-.45,1.89-.12,.64-.21,1.28-.27,1.92-.06,.65-.09,1.29-.09,1.94s.03,1.3,.09,1.94c.06,.64,.15,1.29,.27,1.92,.12,.64,.27,1.27,.45,1.89,.18,.62,.38,1.23,.62,1.83,.23,.6,.5,1.19,.78,1.76,.29,.57,.6,1.13,.94,1.67,.34,.54,.7,1.06,1.09,1.56,.39,.5,.8,.98,1.23,1.44,.43,.46,.89,.89,1.36,1.31,.47,.41,.96,.8,1.47,1.16,.51,.36,1.03,.69,1.57,1,.54,.31,1.09,.58,1.66,.83,.57,.25,1.14,.47,1.73,.66,.58,.19,1.18,.34,1.78,.47,.6,.13,1.2,.22,1.81,.29,.61,.06,1.22,.1,1.83,.1s1.22-.03,1.83-.1c.61-.06,1.21-.16,1.81-.29,.6-.13,1.19-.28,1.78-.47,.58-.19,1.16-.41,1.73-.66,.57-.25,1.12-.53,1.66-.83,.54-.31,1.07-.64,1.57-1,.51-.36,1-.75,1.47-1.16,.47-.41,.93-.85,1.36-1.31,.43-.46,.84-.94,1.23-1.44,.39-.5,.75-1.02,1.09-1.56,.34-.54,.65-1.1,.94-1.67,.29-.57,.55-1.16,.78-1.76,.24-.6,.44-1.21,.62-1.83,.18-.62,.33-1.25,.45-1.89,.12-.64,.21-1.28,.27-1.92,.06-.65,.09-1.29,.09-1.94s-.03-1.3-.09-1.94-.15-1.29-.27-1.92Z"/>
    <path class="cls-1" d="M150,0C67.16,0,0,67.16,0,150s67.16,150,150,150,150-67.16,150-150S232.84,0,150,0Zm105.91,198.71s-15.29,26.62-54.94,27.19l-11.89-14.16c23.22-6.23,32.28-22.09,32.28-22.09-29.45,27.75-109.88,28.89-141.03,0,0,0,7.93,14.73,31.72,22.09l-13.03,14.16c-39.65-.57-54.94-27.19-54.94-27.19,0-58.9,26.05-105.91,26.05-105.91,26.62-18.69,50.97-18.69,50.97-18.69l1.7,2.27c-32.85,9.06-47.01,23.79-47.01,23.79,38.51-26.05,117.81-23.79,148.96,0,.57-.57-18.69-15.86-48.71-23.79l2.83-2.27s24.35,0,50.97,18.69c26.62,18.69,26.05,47.01,26.05,105.91Z"/>
    <path class="cls-1" d="M134.35,158.03c-.12-.64-.27-1.27-.45-1.89-.18-.62-.38-1.23-.62-1.83-.23-.6-.49-1.19-.78-1.76-.29-.57-.6-1.13-.94-1.67-.34-.54-.7-1.06-1.09-1.56-.39-.5-.8-.98-1.23-1.44-.43-.46-.89-.89-1.36-1.31-.47-.41-.96-.8-1.47-1.16-.51-.36-1.03-.69-1.57-1-.54-.31-1.09-.58-1.66-.83-.56-.25-1.14-.47-1.73-.65-.59-.19-1.18-.35-1.78-.47-.6-.13-1.21-.22-1.81-.29-.61-.06-1.22-.09-1.83-.09s-1.22,.03-1.83,.09c-.61,.06-1.21,.16-1.81,.29-.6,.13-1.19,.29-1.78,.47-.59,.19-1.16,.41-1.73,.65-.56,.25-1.12,.53-1.66,.83-.54,.31-1.06,.64-1.57,1-.51,.36-1,.75-1.47,1.16-.47,.41-.93,.85-1.36,1.31-.43,.46-.84,.94-1.23,1.44-.39,.5-.75,1.02-1.09,1.56-.34,.54-.65,1.1-.94,1.67-.29,.57-.55,1.16-.78,1.76-.23,.6-.44,1.21-.62,1.83-.18,.62-.33,1.25-.45,1.89-.12,.64-.21,1.28-.27,1.92-.06,.65-.09,1.29-.09,1.94s.03,1.3,.09,1.94c.06,.64,.15,1.29,.27,1.92,.12,.64,.27,1.27,.45,1.89,.18,.62,.38,1.23,.62,1.83,.23,.6,.5,1.19,.78,1.76,.29,.57,.6,1.13,.94,1.67,.34,.54,.7,1.06,1.09,1.56,.39,.5,.8,.98,1.23,1.44,.43,.46,.89,.89,1.36,1.31,.47,.41,.96,.8,1.47,1.16,.51,.36,1.03,.69,1.57,1,.54,.31,1.09,.58,1.66,.83,.57,.25,1.14,.47,1.73,.66,.58,.19,1.18,.34,1.78,.47,.6,.13,1.2,.22,1.81,.29,.61,.06,1.22,.1,1.83,.1s1.22-.03,1.83-.1c.61-.06,1.21-.16,1.81-.29,.6-.13,1.19-.28,1.78-.47,.58-.19,1.16-.41,1.73-.66,.57-.25,1.12-.53,1.66-.83,.54-.31,1.07-.64,1.57-1,.51-.36,1-.75,1.47-1.16,.47-.41,.93-.85,1.36-1.31,.43-.46,.84-.94,1.23-1.44,.39-.5,.75-1.02,1.09-1.56,.34-.54,.65-1.1,.94-1.67,.29-.57,.55-1.16,.78-1.76,.24-.6,.44-1.21,.62-1.83,.18-.62,.33-1.25,.45-1.89,.12-.64,.21-1.28,.27-1.92,.06-.65,.09-1.29,.09-1.94s-.03-1.3-.09-1.94c-.06-.65-.15-1.29-.27-1.92Z"/>
</svg>