<svg id="SvgjsSvg1011" width="288" height="288" xmlns="http://www.w3.org/2000/svg" version="1.1" xmlns:xlink="http://www.w3.org/1999/xlink" xmlns:svgjs="http://svgjs.com/svgjs"><circle id="SvgjsCircle1017" r="144" cx="144" cy="144" transform="matrix(1,0,0,1,0,0)" fill="#000000"></circle><defs id="SvgjsDefs1012"></defs><g id="SvgjsG1013" transform="matrix(0.75,0,0,0.75,36,36)"><svg xmlns="http://www.w3.org/2000/svg" viewBox="0 0 24 24" width="288" height="288"><path d="M9,10h1a1,1,0,0,0,0-2H9a1,1,0,0,0,0,2Zm0,2a1,1,0,0,0,0,2h6a1,1,0,0,0,0-2ZM20,8.94a1.31,1.31,0,0,0-.06-.27l0-.09a1.07,1.07,0,0,0-.19-.28h0l-6-6h0a1.07,1.07,0,0,0-.28-.19.32.32,0,0,0-.09,0A.88.88,0,0,0,13.05,2H7A3,3,0,0,0,4,5V19a3,3,0,0,0,3,3H17a3,3,0,0,0,3-3V9S20,9,20,8.94ZM14,5.41,16.59,8H15a1,1,0,0,1-1-1ZM18,19a1,1,0,0,1-1,1H7a1,1,0,0,1-1-1V5A1,1,0,0,1,7,4h5V7a3,3,0,0,0,3,3h3Zm-3-3H9a1,1,0,0,0,0,2h6a1,1,0,0,0,0-2Z" fill="#ffffff" class="color000 svgShape"></path></svg></g></svg>