<svg width="25" height="24" viewBox="0 0 25 24" fill="none" xmlns="http://www.w3.org/2000/svg">
<path stroke="black" d="M3.94879 3L21.9487 21M10.793 9.91364C10.2704 10.4536 9.94875 11.1892 9.94875 12C9.94875 13.6569 11.2919 15 12.9487 15C13.7712 15 14.5164 14.669 15.0583 14.133M7.44876 6.64715C5.54948 7.90034 4.10282 9.78394 3.4068 12C4.68104 16.0571 8.47133 19 12.9489 19C14.9378 19 16.7911 18.4194 18.3485 17.4184M11.9487 5.04939C12.2777 5.01673 12.6114 5 12.9489 5C17.4266 5 21.2169 7.94291 22.4911 12C22.2104 12.894 21.8074 13.7338 21.3019 14.5" stroke-width="1.5" stroke-linecap="round" stroke-linejoin="round"/>
</svg>
