<svg xmlns="http://www.w3.org/2000/svg" id="Layer_1" data-name="Layer 1" viewBox="0 0 300 300" data-locator-target="vscode">
    <defs>
      <style>
        .cls-1 {
          fill: #737373;
        }
      </style>
    </defs>
    <path class="cls-1" d="M150,0C67.16,0,0,67.16,0,150s67.16,150,150,150,150-67.16,150-150S232.84,0,150,0Zm28.66,238.41h-.01c-4.59,.89-6.23-1.93-6.23-4.36,0-2.98,.12-12.76,.12-24.91,0-8.48-2.89-14.01-6.13-16.82,20.14-2.25,41.31-9.93,41.31-44.82,0-9.92-3.5-18.03-9.3-24.38,.93-2.3,4.04-11.54-.9-24.03,0,0-7.58-2.45-24.86,9.32-7.23-2.01-14.97-3.02-22.65-3.06-7.69,.05-15.43,1.05-22.65,3.06-17.28-11.75-24.87-9.32-24.87-9.32-4.92,12.51-1.82,21.73-.89,24.03-5.79,6.34-9.32,14.46-9.32,24.38,0,34.8,21.12,42.58,41.21,44.88-2.58,2.26-4.92,6.27-5.75,12.13-5.16,2.32-18.26,6.33-26.33-7.54,0,0-4.77-8.72-13.84-9.36,0,0-8.84-.12-.61,5.52,0,0,5.92,2.79,10.03,13.29,0,0,5.31,17.67,30.48,12.18,.04,7.58,.12,13.29,.12,15.45,0,2.4-1.65,5.21-6.18,4.38-35.95-12.01-61.87-46.05-61.87-86.17,0-50.18,40.5-90.82,90.46-90.82s90.47,40.67,90.47,90.82c0,40.11-25.89,74.13-61.82,86.16Z"/>
  </svg>