<svg xmlns="http://www.w3.org/2000/svg" xmlns:xlink="http://www.w3.org/1999/xlink" width="1080" zoomAndPan="magnify" viewBox="0 0 810 374.999991" height="500" preserveAspectRatio="xMidYMid meet" version="1.0" data-locator-target="vscode"><path fill="#737373" d="M 331.351562 225.179688 C 331.351562 223.542969 330.285156 222.332031 328.105469 221.859375 L 328.105469 220.800781 C 329.3125 220.800781 333.332031 220.964844 334.460938 220.964844 C 335.4375 220.964844 339.328125 220.800781 340.539062 220.800781 L 340.539062 221.859375 C 338.515625 222.253906 337.457031 223.449219 337.457031 225.179688 L 337.457031 245.964844 C 337.457031 252.546875 341.066406 256.265625 348.617188 256.265625 C 355.125 256.265625 360.191406 253.339844 360.191406 246.453125 L 360.191406 225.101562 C 360.191406 223.554688 359.222656 222.332031 356.785156 221.859375 L 356.785156 220.800781 C 357.671875 220.800781 360.992188 220.964844 362.128906 220.964844 C 363.097656 220.964844 366.582031 220.800781 367.472656 220.800781 L 367.472656 221.859375 C 365.121094 222.421875 364.078125 223.476562 364.078125 225.101562 L 364.078125 245.308594 C 364.078125 254.378906 358.804688 259.585938 347.429688 259.585938 C 336.839844 259.585938 331.351562 254.769531 331.351562 246.25 Z M 331.351562 225.179688 " fill-opacity="1" fill-rule="nonzero"/><path fill="#737373" d="M 376.777344 257.957031 C 379.242188 257.5 380.214844 256.25 380.214844 254.71875 L 380.214844 225.992188 C 380.214844 223.554688 378.917969 222.460938 376.707031 221.855469 L 376.707031 220.796875 C 377.957031 220.890625 380.054688 220.945312 381.125 220.945312 C 382.097656 220.945312 383.613281 220.929688 384.632812 220.796875 L 409.523438 250.09375 L 409.523438 225.101562 C 409.523438 223.558594 408.546875 222.335938 406.117188 221.855469 L 406.117188 220.796875 C 407.007812 220.796875 410.210938 220.964844 411.351562 220.964844 C 412.339844 220.964844 415.773438 220.796875 416.675781 220.796875 L 416.675781 221.855469 C 414.300781 222.417969 413.15625 223.480469 413.15625 225.101562 L 413.15625 259.585938 L 411.65625 259.585938 C 410.710938 259.371094 408.929688 258.351562 406.210938 255.367188 L 383.9375 229.402344 L 383.9375 254.71875 C 383.9375 256.257812 384.828125 257.476562 387.257812 257.957031 L 387.257812 259.019531 C 386.363281 259.019531 383.160156 258.851562 382.023438 258.851562 C 381.042969 258.851562 377.679688 259.019531 376.777344 259.019531 Z M 376.777344 257.957031 " fill-opacity="1" fill-rule="nonzero"/><path fill="#737373" d="M 573.195312 250.210938 L 574.25 250.210938 C 574.804688 252.359375 576.03125 254.316406 577.753906 255.445312 C 579.542969 256.707031 582.347656 257.3125 584.617188 257.3125 C 589.625 257.3125 592.796875 254.828125 592.796875 250.902344 C 592.796875 246.832031 588.734375 244.71875 583.863281 242.28125 C 580.238281 240.46875 573.117188 237.46875 573.117188 230.582031 C 573.117188 224.164062 578.007812 220.171875 585.828125 220.171875 C 590.988281 220.171875 593.410156 221.4375 596.894531 221.273438 L 596.824219 229.058594 L 595.761719 229.058594 C 594.371094 224.472656 590.207031 222.871094 585.648438 222.871094 C 580.550781 222.871094 578.644531 225.789062 578.644531 228.757812 C 578.644531 233.003906 582.796875 235.148438 587.503906 237.25 C 592.796875 239.609375 598.542969 242.589844 598.542969 249.226562 C 598.542969 255.507812 593.632812 260.058594 584.65625 260.058594 C 579.316406 260.058594 576.113281 258.535156 573.304688 258.1875 Z M 573.195312 250.210938 " fill-opacity="1" fill-rule="nonzero"/><path fill="#737373" d="M 680.164062 243.207031 L 670.03125 226.933594 C 668.300781 224.078125 666.976562 222.570312 665.046875 221.855469 L 665.046875 220.800781 C 666.4375 220.800781 670.1875 220.96875 671.253906 220.96875 C 672.21875 220.96875 676.265625 220.800781 677.726562 220.800781 L 677.726562 221.855469 C 676.433594 222.085938 675.824219 222.734375 675.824219 223.714844 C 675.824219 224.578125 676.410156 225.6875 677 226.652344 C 677.578125 227.609375 684.472656 239.054688 684.472656 239.054688 L 691.671875 226.65625 C 692.398438 225.414062 692.914062 224.183594 692.914062 223.371094 C 692.914062 222.628906 692.390625 222.015625 691.164062 221.855469 L 691.164062 220.800781 C 692.382812 220.800781 694.945312 220.96875 695.761719 220.96875 C 696.574219 220.96875 699.519531 220.800781 700.730469 220.800781 L 700.730469 221.785156 C 697.960938 222.921875 696.230469 225.351562 694.554688 228.171875 L 685.339844 243.582031 M 685.96875 241.640625 L 685.96875 254.640625 C 685.96875 255.929688 686.949219 257.550781 689.167969 257.957031 L 689.167969 259.023438 C 687.929688 259.023438 683.894531 258.851562 682.726562 258.851562 C 681.746094 258.851562 677.875 259.023438 676.480469 259.023438 L 676.480469 257.957031 C 678.703125 257.550781 679.769531 255.929688 679.769531 254.640625 L 679.769531 242.210938 " fill-opacity="1" fill-rule="nonzero"/><path fill="#737373" d="M 491.839844 220.800781 L 515.605469 220.800781 C 516.34375 220.800781 517.628906 220.714844 518.363281 220.398438 L 519.425781 220.398438 L 519.261719 228.128906 L 518.207031 228.128906 C 517.300781 225.695312 516.363281 223.75 511.761719 223.75 L 501.445312 223.75 L 501.445312 237.21875 L 509.398438 237.21875 C 510.558594 237.21875 511.960938 237.121094 512.570312 236.976562 C 514.359375 236.585938 515.144531 235.589844 515.507812 234.0625 L 516.566406 234.0625 C 516.492188 235.226562 516.492188 237.886719 516.492188 238.671875 C 516.492188 239.460938 516.566406 242.261719 516.566406 243.527344 L 515.507812 243.527344 C 514.996094 242.003906 514.300781 240.847656 512.570312 240.421875 C 511.960938 240.261719 510.53125 240.128906 509.398438 240.128906 L 501.445312 240.128906 L 501.445312 255.929688 L 512.667969 255.929688 C 517.570312 255.929688 518.992188 253.886719 520.210938 250.992188 L 521.261719 251.238281 L 520.210938 259.179688 C 516.566406 258.855469 514.378906 258.855469 510.242188 258.855469 L 498.382812 258.855469 C 497.238281 258.855469 493.046875 259.023438 491.828125 259.023438 L 491.828125 257.960938 C 493.96875 257.554688 495.21875 256.496094 495.21875 254.441406 L 495.21875 225.21875 C 495.21875 223.40625 494.246094 222.277344 491.839844 221.875 Z M 491.839844 220.800781 " fill-opacity="1" fill-rule="nonzero"/><path fill="#737373" d="M 431.140625 225.425781 C 431.140625 223.46875 429.972656 222.386719 427.683594 221.894531 L 427.683594 220.84375 C 428.957031 220.84375 433.082031 221.003906 434.285156 221.003906 C 435.289062 221.003906 439.53125 220.84375 440.820312 220.84375 L 440.820312 221.894531 C 438.542969 222.386719 437.351562 223.363281 437.351562 225.425781 L 437.351562 254.445312 C 437.351562 256.40625 438.523438 257.472656 440.820312 257.957031 L 440.820312 259.023438 C 439.535156 259.023438 435.46875 258.855469 434.285156 258.855469 C 433.257812 258.855469 428.957031 259.023438 427.679688 259.023438 L 427.679688 257.957031 C 430.019531 257.519531 431.140625 256.496094 431.140625 254.445312 Z M 431.140625 225.425781 " fill-opacity="1" fill-rule="nonzero"/><path fill="#737373" d="M 611.429688 225.425781 C 611.429688 223.46875 610.246094 222.386719 607.960938 221.894531 L 607.960938 220.84375 C 609.238281 220.84375 613.367188 221.003906 614.558594 221.003906 C 615.574219 221.003906 619.8125 220.84375 621.101562 220.84375 L 621.101562 221.894531 C 618.824219 222.386719 617.636719 223.363281 617.636719 225.425781 L 617.636719 254.445312 C 617.636719 256.40625 618.808594 257.472656 621.101562 257.957031 L 621.101562 259.023438 C 619.824219 259.023438 615.761719 258.855469 614.558594 258.855469 C 613.550781 258.855469 609.238281 259.023438 607.960938 259.023438 L 607.960938 257.957031 C 610.296875 257.519531 611.429688 256.496094 611.429688 254.445312 Z M 611.429688 225.425781 " fill-opacity="1" fill-rule="nonzero"/><path fill="#737373" d="M 644.464844 220.964844 C 631.433594 220.964844 629.351562 220.71875 626.6875 220.554688 L 626.707031 228.429688 L 627.769531 228.429688 C 628.742188 224.9375 630.683594 224.125 633.199219 224.125 L 641.371094 224.125 L 641.371094 254.445312 C 641.371094 256.496094 640.25 257.519531 637.90625 257.957031 L 637.90625 259.023438 C 639.191406 259.023438 643.53125 258.855469 644.535156 258.855469 C 645.730469 258.855469 649.808594 259.023438 651.078125 259.023438 L 651.078125 257.957031 C 648.773438 257.472656 647.609375 256.40625 647.609375 254.445312 L 647.609375 224.125 L 655.714844 224.125 C 658.324219 224.125 660.1875 225.015625 661.160156 228.429688 L 662.210938 228.429688 L 662.226562 220.554688 C 659.582031 220.71875 657.496094 220.964844 644.464844 220.964844 " fill-opacity="1" fill-rule="nonzero"/><path fill="#737373" d="M 540.503906 254.445312 C 540.503906 256.40625 541.746094 257.46875 544.046875 257.957031 L 544.046875 259.023438 C 542.769531 259.023438 538.605469 258.855469 537.414062 258.855469 C 536.394531 258.855469 532.328125 259.023438 531.042969 259.023438 L 531.042969 257.957031 C 533.175781 257.550781 534.433594 256.496094 534.433594 254.445312 L 534.433594 225.132812 C 534.433594 223.328125 533.453125 222.191406 531.054688 221.785156 L 531.054688 220.730469 C 532.328125 220.730469 536.355469 220.890625 537.496094 220.890625 C 539.363281 220.890625 544.660156 220.578125 546.746094 220.578125 C 555.878906 220.578125 560.964844 224.355469 560.964844 230.835938 C 560.964844 235.929688 557.179688 239.375 551.351562 240.78125 C 551.351562 240.78125 552.683594 241.554688 554.007812 243.097656 C 555.617188 245 559.964844 251.246094 561.769531 253.429688 C 563.574219 255.621094 565.878906 258.066406 568.351562 258.175781 L 568.351562 259.03125 C 567.167969 259.289062 565.269531 259.515625 563.816406 259.515625 C 560.714844 259.515625 558.238281 258.417969 555.835938 255.503906 C 553.753906 252.972656 550.222656 247.710938 548.144531 245.054688 C 546.816406 243.363281 545.207031 242.039062 542.257812 241.554688 C 541.6875 241.457031 541.148438 241.375 540.503906 241.300781 Z M 540.503906 238.867188 C 541.71875 239.035156 543.507812 239.109375 545.273438 239.109375 C 552.421875 239.109375 554.675781 234.996094 554.675781 231.351562 C 554.675781 226.199219 551.238281 223.003906 544.980469 223.003906 C 543.683594 223.003906 541.808594 223.167969 540.503906 223.410156 Z M 540.503906 238.867188 " fill-opacity="1" fill-rule="nonzero"/><path fill="#737373" d="M 449.980469 225.550781 C 449.148438 223.707031 447.867188 222.355469 445.6875 221.875 L 445.6875 220.796875 C 447.042969 220.796875 451.738281 220.96875 452.769531 220.96875 C 453.71875 220.96875 457.820312 220.796875 459.214844 220.796875 L 459.214844 221.84375 C 457.976562 222.082031 456.566406 222.765625 456.566406 224.035156 C 456.566406 224.9375 457.113281 226.171875 458.164062 228.496094 L 468.003906 250.902344 L 477.3125 228.457031 C 478.046875 226.644531 478.578125 225.242188 478.578125 224.171875 C 478.578125 222.984375 477.488281 222.164062 475.941406 221.84375 L 475.941406 220.796875 C 477.179688 220.796875 480.210938 220.96875 481.152344 220.96875 C 482.015625 220.96875 485.574219 220.796875 486.933594 220.796875 L 486.933594 221.875 C 484.613281 222.503906 483.195312 223.785156 481.890625 226.816406 L 468.1875 259.15625 L 465.089844 259.15625 Z M 449.980469 225.550781 " fill-opacity="1" fill-rule="nonzero"/><path fill="#737373" d="M 485.113281 123.550781 C 483.527344 120.050781 481.097656 117.5 476.984375 116.585938 L 476.984375 114.550781 C 479.542969 114.550781 488.046875 114.855469 490.003906 114.855469 C 491.804688 114.855469 500.039062 114.550781 502.664062 114.550781 L 502.664062 116.535156 C 500.335938 116.992188 497.660156 118.292969 497.660156 120.695312 C 497.660156 122.390625 498.714844 124.734375 500.667969 129.125 L 519.328125 171.589844 L 536.984375 129.054688 C 538.363281 125.609375 539.390625 122.976562 539.390625 120.941406 C 539.390625 118.679688 537.300781 117.144531 534.375 116.535156 L 534.375 114.550781 C 536.710938 114.550781 542.390625 114.855469 544.195312 114.855469 C 545.835938 114.855469 552.582031 114.550781 555.144531 114.550781 L 555.144531 116.472656 C 550.746094 117.667969 548.050781 120.195312 545.601562 125.941406 L 519.644531 187.246094 L 513.769531 187.246094 Z M 485.113281 123.550781 " fill-opacity="1" fill-rule="nonzero"/><path fill="#737373" d="M 233.84375 184.914062 C 237.234375 184.136719 239.617188 182.59375 239.617188 178.75 L 239.617188 122.546875 C 239.617188 118.855469 237.398438 117.324219 233.84375 116.398438 L 233.84375 114.40625 C 235.625 114.40625 243.289062 114.707031 245.15625 114.707031 C 247.304688 114.707031 255.339844 114.40625 257.109375 114.40625 L 257.109375 116.398438 C 253.722656 117.167969 251.214844 118.707031 251.214844 122.546875 L 251.214844 146.027344 L 293.046875 146.027344 L 293.046875 122.546875 C 293.046875 118.707031 290.816406 117.167969 287.28125 116.398438 L 287.28125 114.40625 C 289.046875 114.40625 296.941406 114.707031 299.085938 114.707031 C 300.9375 114.707031 308.785156 114.40625 310.53125 114.40625 L 310.53125 116.398438 C 307.144531 117.167969 304.632812 118.707031 304.632812 122.546875 L 304.632812 178.75 C 304.632812 182.441406 306.988281 183.988281 310.53125 184.914062 L 310.53125 186.753906 C 308.785156 186.753906 300.9375 186.601562 299.085938 186.601562 C 296.941406 186.601562 289.046875 186.753906 287.28125 186.753906 L 287.28125 184.914062 C 290.644531 184.136719 293.042969 182.59375 293.042969 178.75 L 293.042969 152.191406 L 251.214844 152.191406 L 251.214844 178.75 C 251.214844 182.59375 253.566406 183.988281 257.109375 184.914062 L 257.109375 186.753906 C 255.339844 186.753906 247.304688 186.601562 245.15625 186.601562 C 243.289062 186.601562 235.625 186.753906 233.84375 186.753906 Z M 233.84375 184.914062 " fill-opacity="1" fill-rule="nonzero"/><path fill="#737373" d="M 717.707031 184.914062 C 722.050781 184.136719 724.441406 182.414062 724.441406 178.445312 L 724.441406 122.546875 C 724.441406 118.695312 722.082031 117.167969 717.886719 116.398438 L 717.886719 114.40625 C 720.304688 114.40625 728.171875 114.707031 730.351562 114.707031 C 733.867188 114.707031 743.679688 113.9375 751.316406 113.9375 C 777.050781 113.9375 792.671875 128.320312 792.671875 150.191406 C 792.671875 171.453125 776.417969 187.203125 749.882812 187.203125 C 742.234375 187.203125 733.164062 186.601562 729.609375 186.601562 C 727.453125 186.601562 720.117188 186.90625 717.707031 186.90625 Z M 736.027344 181.207031 C 738.648438 181.683594 743.492188 181.984375 747.3125 181.984375 C 768.929688 181.984375 780.179688 168.960938 780.179688 150.796875 C 780.179688 131.964844 768.308594 118.714844 748.097656 118.714844 C 743.96875 118.714844 738.808594 119.027344 736.027344 119.476562 Z M 736.027344 181.207031 " fill-opacity="1" fill-rule="nonzero"/><path fill="#737373" d="M 426.433594 178.242188 C 426.433594 181.96875 428.792969 183.992188 433.128906 184.914062 L 433.128906 186.90625 C 430.710938 186.90625 422.839844 186.601562 420.578125 186.601562 C 418.664062 186.601562 410.941406 186.90625 408.53125 186.90625 L 408.53125 184.914062 C 412.554688 184.140625 414.929688 182.132812 414.929688 178.242188 L 414.929688 122.746094 C 414.929688 119.328125 413.085938 117.171875 408.539062 116.398438 L 408.539062 114.40625 C 410.957031 114.40625 418.585938 114.707031 420.726562 114.707031 C 424.261719 114.707031 434.296875 114.117188 438.253906 114.117188 C 455.5625 114.117188 465.195312 121.28125 465.195312 133.535156 C 465.195312 143.195312 458.007812 149.695312 446.976562 152.378906 C 446.976562 152.378906 449.480469 153.835938 451.996094 156.773438 C 455.050781 160.367188 463.480469 172.441406 466.886719 176.578125 C 470.292969 180.722656 474.664062 185.347656 479.335938 185.558594 L 479.335938 187.1875 C 477.097656 187.671875 473.511719 188.085938 470.773438 188.085938 C 464.871094 188.085938 460.1875 186.019531 455.628906 180.492188 C 451.699219 175.695312 444.828125 165.5 440.890625 160.464844 C 438.375 157.257812 435.34375 154.761719 429.773438 153.835938 C 428.675781 153.648438 427.644531 153.503906 426.433594 153.371094 Z M 426.433594 148.765625 C 428.722656 149.066406 432.109375 149.21875 435.464844 149.21875 C 449 149.21875 453.25 141.421875 453.25 134.535156 C 453.25 124.75 446.742188 118.71875 434.886719 118.71875 C 432.445312 118.71875 428.886719 119.027344 426.433594 119.480469 Z M 426.433594 148.765625 " fill-opacity="1" fill-rule="nonzero"/><path fill="#737373" d="M 654.523438 178.242188 C 654.523438 181.96875 656.886719 183.992188 661.230469 184.914062 L 661.230469 186.90625 C 658.816406 186.90625 650.953125 186.601562 648.691406 186.601562 C 646.746094 186.601562 639.046875 186.90625 636.625 186.90625 L 636.625 184.914062 C 640.644531 184.140625 643.023438 182.132812 643.023438 178.242188 L 643.023438 122.746094 C 643.023438 119.328125 641.164062 117.171875 636.640625 116.398438 L 636.640625 114.40625 C 639.066406 114.40625 646.667969 114.707031 648.828125 114.707031 C 652.375 114.707031 662.402344 114.117188 666.335938 114.117188 C 683.671875 114.117188 693.273438 121.28125 693.273438 133.535156 C 693.273438 143.195312 686.105469 149.695312 675.066406 152.378906 C 675.066406 152.378906 677.578125 153.835938 680.078125 156.773438 C 683.160156 160.367188 691.589844 172.441406 694.984375 176.578125 C 698.402344 180.722656 702.773438 185.347656 707.417969 185.558594 L 707.417969 187.1875 C 705.210938 187.671875 701.605469 188.085938 698.894531 188.085938 C 692.980469 188.085938 688.277344 186.019531 683.730469 180.492188 C 679.800781 175.695312 672.949219 165.5 668.976562 160.464844 C 666.460938 157.257812 663.4375 154.761719 657.882812 153.835938 C 656.769531 153.648438 655.75 153.503906 654.523438 153.371094 Z M 654.523438 148.765625 C 656.839844 149.066406 660.207031 149.21875 663.566406 149.21875 C 677.105469 149.21875 681.34375 141.421875 681.34375 134.535156 C 681.34375 124.75 674.832031 118.71875 662.996094 118.71875 C 660.53125 118.71875 656.992188 119.027344 654.523438 119.480469 Z M 654.523438 148.765625 " fill-opacity="1" fill-rule="nonzero"/><path fill="#737373" d="M 321.539062 184.898438 C 326.117188 183.828125 328.632812 180.859375 330.304688 176.890625 L 353.472656 121.09375 C 354.457031 118.785156 355.601562 114.039062 355.601562 114.039062 L 362.085938 114.039062 C 362.085938 114.039062 363.246094 118.796875 364.210938 121.109375 L 388.691406 177.042969 C 390.4375 180.894531 392.328125 183.675781 397.195312 184.898438 L 397.183594 186.757812 C 394.535156 186.757812 386.292969 186.605469 384.417969 186.605469 C 382.554688 186.605469 374.683594 186.757812 372.039062 186.757812 L 372.046875 184.898438 C 375.609375 184.023438 376.734375 182.210938 376.734375 180.453125 C 376.734375 178.960938 376.121094 177.277344 375.371094 175.53125 L 370.109375 163.511719 L 343.132812 163.511719 L 338.3125 175.597656 C 337.769531 176.964844 337.128906 178.902344 337.128906 180.207031 C 337.128906 182.222656 338.183594 183.828125 342.226562 184.898438 L 342.21875 186.757812 C 339.820312 186.757812 333.496094 186.605469 332.015625 186.605469 L 321.535156 186.757812 Z M 367.667969 157.816406 L 356.144531 130.949219 L 345.417969 157.816406 Z M 367.667969 157.816406 " fill-opacity="1" fill-rule="nonzero"/><path fill="#737373" d="M 551.058594 184.898438 C 555.636719 183.828125 558.15625 180.859375 559.816406 176.890625 L 582.992188 121.09375 C 583.980469 118.785156 585.140625 114.039062 585.140625 114.039062 L 591.621094 114.039062 C 591.621094 114.039062 592.769531 118.796875 593.730469 121.109375 L 618.222656 177.042969 C 619.953125 180.894531 621.863281 183.675781 626.707031 184.898438 L 626.699219 186.757812 C 624.058594 186.757812 615.808594 186.605469 613.921875 186.605469 C 612.074219 186.605469 604.207031 186.757812 601.558594 186.757812 L 601.558594 184.898438 C 605.144531 184.023438 606.25 182.210938 606.25 180.453125 C 606.25 178.960938 605.644531 177.277344 604.910156 175.53125 L 599.625 163.511719 L 572.644531 163.511719 L 567.820312 175.597656 C 567.28125 176.964844 566.644531 178.902344 566.644531 180.207031 C 566.644531 182.222656 567.699219 183.828125 571.742188 184.898438 L 571.742188 186.757812 C 569.335938 186.757812 563.023438 186.605469 561.53125 186.605469 L 551.050781 186.757812 Z M 597.1875 157.816406 L 585.65625 130.949219 L 574.9375 157.816406 Z M 597.1875 157.816406 " fill-opacity="1" fill-rule="nonzero"/><path fill="#737373" d="M 19.953125 91.847656 L 181.488281 91.847656 L 181.488281 152.921875 C 181.488281 180.90625 171.078125 240.253906 101.320312 284.421875 C 101.320312 284.421875 25.738281 252.824219 19.953125 152.921875 Z M 19.953125 91.847656 " fill-opacity="1" fill-rule="nonzero"/><path stroke-linecap="butt" transform="matrix(0.962118, 0, 0, -0.963022, 19.620492, 91.684052)" fill="none" stroke-linejoin="miter" d="M 0.000625659 0.00047624 L 168.058315 0.00047624 L 168.058315 -63.46751 C 168.058315 -92.534525 157.226099 -154.193428 84.656748 -200.089783 C 84.656748 -200.089783 6.021681 -167.258577 0.000625659 -63.46751 Z M 0.000625659 0.00047624 " stroke="#12110c" stroke-width="0.23" stroke-opacity="1" stroke-miterlimit="4"/><path fill="#ffffff" d="M 142.214844 170.328125 C 142.214844 170.328125 140.773438 174.925781 134.371094 170.203125 L 112.378906 169.667969 C 112.378906 169.667969 109.5 170.597656 109.109375 167.582031 C 109.109375 167.582031 109.636719 161.558594 109.367188 161.03125 C 109.367188 161.03125 109.5 159.328125 106.609375 159.328125 C 106.609375 159.328125 102.167969 159.851562 102.035156 155.914062 C 102.035156 155.914062 101.257812 151.722656 107.40625 151.863281 C 107.40625 151.863281 109.367188 152.777344 109.5 150.28125 C 109.5 150.28125 109.242188 133.246094 109.367188 131.945312 C 109.367188 131.945312 109.894531 130.378906 106.878906 130.113281 C 106.878906 130.113281 102.5625 131.027344 102.035156 128.152344 C 102.035156 128.152344 101.777344 123.828125 104.660156 123.558594 C 104.660156 123.558594 108.191406 123.828125 108.84375 122.90625 C 108.84375 122.90625 109.636719 123.421875 109.5 120.292969 L 109.636719 114.910156 C 109.636719 114.910156 110.011719 113.472656 112.242188 113.613281 C 112.242188 113.613281 116.304688 113.875 116.835938 113.472656 C 116.835938 113.472656 117.738281 112.300781 118.007812 111.769531 C 118.007812 111.769531 120.105469 111.640625 120.492188 112.167969 C 120.492188 112.167969 123.636719 114.265625 135.546875 113.472656 C 135.546875 113.472656 137.382812 113.472656 137.765625 114.003906 C 137.765625 114.003906 139.996094 115.703125 141.300781 113.875 C 141.300781 113.875 143.265625 113.472656 149.152344 113.613281 C 149.152344 113.613281 155.574219 115.3125 160.015625 111.640625 L 161.457031 111.90625 C 161.457031 111.90625 163.289062 114.910156 164.597656 114.003906 C 164.597656 114.003906 168.527344 113.613281 169.175781 114.398438 C 169.175781 114.398438 170.480469 116.347656 169.832031 121.476562 C 169.832031 121.476562 169.054688 123.695312 172.847656 123.695312 C 172.847656 123.695312 177.171875 122.90625 176.640625 126.964844 C 176.640625 126.964844 177.816406 131.554688 170.625 130.902344 C 170.625 130.902344 169.703125 132.210938 169.832031 133.128906 C 169.832031 133.128906 169.703125 148.058594 169.570312 149.773438 C 169.570312 149.773438 169.445312 152.132812 172.578125 151.996094 C 172.578125 151.996094 176.773438 151.722656 176.910156 155.527344 C 176.910156 155.527344 177.429688 160.507812 171.402344 159.585938 C 171.402344 159.585938 169.570312 159.851562 169.300781 161.03125 L 169.054688 167.582031 C 169.054688 167.582031 169.175781 170.855469 165.519531 170.066406 C 164.996094 170.066406 145.105469 170.46875 143.398438 169.945312 C 143.398438 169.945312 142.46875 169.816406 142.214844 170.328125 " fill-opacity="1" fill-rule="nonzero"/><path fill="#ffffff" d="M 99.9375 192.226562 C 99.9375 192.226562 100.855469 191.839844 101.113281 191.191406 C 101.113281 191.191406 103.867188 190.925781 104.253906 190.535156 L 112.898438 191.191406 C 112.898438 191.191406 121.402344 191.839844 125.066406 189.207031 C 125.066406 189.207031 126.382812 189.207031 127.300781 189.605469 C 127.300781 189.605469 129.121094 190.007812 129.644531 190.78125 L 134.625 190.648438 C 134.625 190.648438 137.503906 191.574219 137.238281 193.410156 L 137.238281 195.761719 C 137.238281 195.761719 136.710938 200.484375 138.019531 200.75 L 141.824219 200.75 C 141.824219 200.75 144.96875 202.1875 144.574219 204.019531 C 144.574219 204.019531 144.703125 206.632812 141.960938 207.164062 C 141.960938 207.164062 139.199219 207.945312 138.292969 207.820312 C 138.292969 207.820312 137.371094 208.996094 137.238281 210.4375 L 136.855469 227.601562 C 136.855469 227.601562 136.585938 229.433594 139.339844 229.171875 C 139.339844 229.171875 143.386719 228.777344 144.574219 231.015625 C 144.574219 231.015625 145.621094 234.808594 143.527344 235.460938 L 141.960938 236.242188 L 138.550781 236.785156 C 138.550781 236.785156 137.117188 236.902344 136.980469 239.390625 L 136.980469 243.96875 C 136.980469 243.96875 137.117188 247.125 134.625 247.125 L 130.957031 247.386719 C 130.957031 247.386719 130.042969 248.164062 128.214844 247.640625 C 128.214844 247.640625 105.960938 248.042969 105.175781 247.777344 L 102.554688 248.308594 C 102.554688 248.308594 99.675781 250.925781 97.320312 248.953125 L 95.488281 247.511719 C 95.488281 247.511719 94.175781 247.777344 93.664062 247.640625 C 93.136719 247.511719 69.050781 247.90625 69.050781 247.90625 C 69.050781 247.90625 63.945312 248.4375 63.558594 246.726562 C 63.558594 246.726562 62.90625 240.050781 63.164062 239.25 C 63.164062 239.25 63.164062 237.296875 61.988281 237.167969 C 61.988281 237.167969 56.882812 236.902344 56.75 236.371094 C 56.75 236.371094 53.996094 234.417969 54.78125 232.457031 C 54.78125 232.457031 55.703125 229.824219 58.449219 229.566406 C 58.449219 229.566406 62.636719 230.226562 62.636719 229.046875 C 62.636719 229.046875 62.90625 228.261719 62.90625 226.953125 C 62.90625 226.953125 63.164062 211.355469 63.03125 210.308594 C 63.03125 210.308594 63.421875 208.34375 61.71875 208.34375 C 61.71875 208.34375 59.890625 208.863281 58.714844 208.082031 C 58.714844 208.082031 55.574219 208.214844 54.917969 205.722656 C 54.917969 205.722656 54.390625 204.152344 55.171875 202.832031 C 55.171875 202.832031 56.617188 199.953125 60.808594 200.875 C 60.808594 200.875 63.164062 201.53125 63.421875 199.835938 L 63.300781 193.535156 C 63.300781 193.535156 62.769531 191.839844 66.042969 190.925781 C 66.042969 190.925781 70.230469 192.097656 71.535156 190.007812 C 71.535156 190.007812 72.980469 187.113281 74.144531 189.082031 C 74.144531 189.082031 76.640625 191.445312 83.449219 191.191406 C 83.449219 191.191406 95.230469 190.265625 95.488281 190.78125 C 95.488281 190.78125 98.371094 191.191406 99.152344 192.097656 Z M 99.9375 192.226562 " fill-opacity="1" fill-rule="nonzero"/><path fill="#ffffff" d="M 64.351562 170.328125 C 64.351562 170.328125 62.910156 174.925781 56.496094 170.199219 L 34.507812 169.667969 C 34.507812 169.667969 31.628906 170.597656 31.234375 167.578125 C 31.234375 167.578125 31.761719 161.558594 31.488281 161.03125 C 31.488281 161.03125 31.628906 159.320312 28.746094 159.320312 C 28.746094 159.320312 24.300781 159.855469 24.171875 155.925781 C 24.171875 155.925781 23.382812 151.71875 29.535156 151.863281 C 29.535156 151.863281 31.488281 152.777344 31.628906 150.285156 C 31.628906 150.285156 31.363281 133.257812 31.488281 131.941406 C 31.488281 131.941406 32.023438 130.382812 29.011719 130.117188 C 29.011719 130.117188 24.6875 131.027344 24.171875 128.144531 C 24.171875 128.144531 23.90625 123.828125 26.78125 123.558594 C 26.78125 123.558594 30.316406 123.828125 30.972656 122.921875 C 30.972656 122.921875 31.761719 123.429688 31.628906 120.28125 L 31.761719 114.914062 C 31.761719 114.914062 32.15625 113.472656 34.367188 113.605469 C 34.367188 113.605469 38.4375 113.867188 38.964844 113.472656 C 38.964844 113.472656 39.878906 112.300781 40.128906 111.769531 C 40.128906 111.769531 42.234375 111.644531 42.625 112.15625 C 42.625 112.15625 45.761719 114.265625 57.683594 113.472656 C 57.683594 113.472656 59.507812 113.472656 59.902344 114.003906 C 59.902344 114.003906 62.121094 115.703125 63.429688 113.867188 C 63.429688 113.867188 65.394531 113.472656 71.289062 113.605469 C 71.289062 113.605469 77.691406 115.308594 82.148438 111.644531 L 83.582031 111.914062 C 83.582031 111.914062 85.414062 114.914062 86.734375 114.003906 C 86.734375 114.003906 90.65625 113.605469 91.3125 114.398438 C 91.3125 114.398438 92.625 116.363281 91.960938 121.476562 C 91.960938 121.476562 91.183594 123.699219 94.976562 123.699219 C 94.976562 123.699219 99.289062 122.921875 98.773438 126.964844 C 98.773438 126.964844 99.953125 131.554688 92.753906 130.902344 C 92.753906 130.902344 91.832031 132.214844 91.960938 133.128906 C 91.960938 133.128906 91.832031 148.058594 91.703125 149.773438 C 91.703125 149.773438 91.578125 152.113281 94.714844 151.996094 C 94.714844 151.996094 98.90625 151.71875 99.03125 155.535156 C 99.03125 155.535156 99.554688 160.507812 93.539062 159.585938 C 93.539062 159.585938 91.703125 159.855469 91.4375 161.03125 L 91.183594 167.578125 C 91.183594 167.578125 91.3125 170.855469 87.640625 170.074219 C 87.117188 170.074219 67.234375 170.460938 65.523438 169.945312 C 65.523438 169.945312 64.613281 169.816406 64.351562 170.328125 " fill-opacity="1" fill-rule="nonzero"/><path fill="#737373" d="M 142.214844 170.328125 C 142.214844 170.328125 140.773438 174.925781 134.371094 170.203125 L 112.378906 169.667969 C 112.378906 169.667969 109.5 170.597656 109.109375 167.582031 C 109.109375 167.582031 109.636719 161.558594 109.367188 161.03125 C 109.367188 161.03125 109.5 159.328125 106.609375 159.328125 C 106.609375 159.328125 102.167969 159.851562 102.035156 155.914062 C 102.035156 155.914062 101.257812 151.722656 107.40625 151.863281 C 107.40625 151.863281 109.367188 152.777344 109.5 150.28125 C 109.5 150.28125 109.242188 133.246094 109.367188 131.945312 C 109.367188 131.945312 109.894531 130.378906 106.878906 130.113281 C 106.878906 130.113281 102.5625 131.027344 102.035156 128.152344 C 102.035156 128.152344 101.777344 123.828125 104.660156 123.558594 C 104.660156 123.558594 108.191406 123.828125 108.84375 122.90625 C 108.84375 122.90625 109.636719 123.421875 109.5 120.292969 L 109.636719 114.910156 C 109.636719 114.910156 110.011719 113.472656 112.242188 113.613281 C 112.242188 113.613281 116.304688 113.875 116.835938 113.472656 C 116.835938 113.472656 117.738281 112.300781 118.007812 111.769531 C 118.007812 111.769531 120.105469 111.640625 120.492188 112.167969 C 120.492188 112.167969 123.636719 114.265625 135.546875 113.472656 C 135.546875 113.472656 137.382812 113.472656 137.765625 114.003906 C 137.765625 114.003906 139.996094 115.703125 141.300781 113.875 C 141.300781 113.875 143.265625 113.472656 149.152344 113.613281 C 149.152344 113.613281 155.574219 115.3125 160.015625 111.640625 L 161.457031 111.90625 C 161.457031 111.90625 163.289062 114.910156 164.597656 114.003906 C 164.597656 114.003906 168.527344 113.613281 169.175781 114.398438 C 169.175781 114.398438 170.480469 116.347656 169.832031 121.476562 C 169.832031 121.476562 169.054688 123.695312 172.847656 123.695312 C 172.847656 123.695312 177.171875 122.90625 176.640625 126.964844 C 176.640625 126.964844 177.816406 131.554688 170.625 130.902344 C 170.625 130.902344 169.703125 132.210938 169.832031 133.128906 C 169.832031 133.128906 169.703125 148.058594 169.570312 149.773438 C 169.570312 149.773438 169.445312 152.132812 172.578125 151.996094 C 172.578125 151.996094 176.773438 151.722656 176.910156 155.527344 C 176.910156 155.527344 177.429688 160.507812 171.402344 159.585938 C 171.402344 159.585938 169.570312 159.851562 169.300781 161.03125 L 169.054688 167.582031 C 169.054688 167.582031 169.175781 170.855469 165.519531 170.066406 C 164.996094 170.066406 145.105469 170.46875 143.398438 169.945312 C 143.398438 169.945312 142.46875 169.816406 142.214844 170.328125 " fill-opacity="1" fill-rule="nonzero"/><path stroke-linecap="butt" transform="matrix(0.962118, 0, 0, -0.963022, 142.215557, 170.333134)" fill="none" stroke-linejoin="miter" d="M -0.000741521 0.00114552 C -0.000741521 0.00114552 -1.4989 -4.773049 -8.153324 0.130945 L -31.015471 0.682594 C -31.015471 0.682594 -34.007728 -0.278735 -34.413733 2.856738 C -34.413733 2.856738 -33.861567 9.11146 -34.14577 9.659053 C -34.14577 9.659053 -34.007728 11.427573 -37.008106 11.427573 C -37.008106 11.427573 -41.628444 10.879981 -41.766486 14.968671 C -41.766486 14.968671 -42.574436 19.321016 -36.187976 19.179048 C -36.187976 19.179048 -34.14577 18.229888 -34.007728 20.817769 C -34.007728 20.817769 -34.279752 38.507031 -34.14577 39.861815 C -34.14577 39.861815 -33.593603 41.492424 -36.727963 41.764192 C -36.727963 41.764192 -41.218379 40.815032 -41.766486 43.800424 C -41.766486 43.800424 -42.030389 48.294738 -39.038132 48.570562 C -39.038132 48.570562 -35.367845 48.294738 -34.689817 49.247954 C -34.689817 49.247954 -33.861567 48.712531 -34.007728 51.965635 L -33.861567 57.555134 C -33.861567 57.555134 -33.475862 59.04783 -31.149453 58.901805 C -31.149453 58.901805 -26.93106 58.630037 -26.382953 59.04783 C -26.382953 59.04783 -25.441021 60.260646 -25.160877 60.812294 C -25.160877 60.812294 -22.98469 60.950207 -22.578685 60.402614 C -22.578685 60.402614 -19.314404 58.224413 -6.931249 59.04783 C -6.931249 59.04783 -5.023025 59.04783 -4.62514 58.500238 C -4.62514 58.500238 -2.30685 56.731717 -0.950793 58.630037 C -0.950793 58.630037 1.091412 59.04783 7.209909 58.901805 C 7.209909 58.901805 13.884633 57.137341 18.504971 60.950207 L 20.00313 60.678438 C 20.00313 60.678438 21.907293 57.555134 23.26335 58.500238 C 23.26335 58.500238 27.347762 58.901805 28.02173 58.094614 C 28.02173 58.094614 29.381847 56.058381 28.707879 50.740651 C 28.707879 50.740651 27.895869 48.428594 31.842238 48.428594 C 31.842238 48.428594 36.332655 49.247954 35.780488 45.037577 C 35.780488 45.037577 37.002563 40.267439 29.528009 40.948887 C 29.528009 40.948887 28.573897 39.590047 28.707879 38.632774 C 28.707879 38.632774 28.573897 23.129826 28.435855 21.353192 C 28.435855 21.353192 28.301874 18.903224 31.562095 19.037079 C 31.562095 19.037079 35.926649 19.321016 36.064691 15.374295 C 36.064691 15.374295 36.600618 10.202589 30.340019 11.159862 C 30.340019 11.159862 28.435855 10.879981 28.155712 9.659053 L 27.895869 2.856738 C 27.895869 2.856738 28.02173 -0.546447 24.225583 0.272914 C 23.681536 0.272914 3.003696 -0.140823 1.229454 0.402713 C 1.229454 0.402713 0.263162 0.532513 -0.000741521 0.00114552 Z M -0.000741521 0.00114552 " stroke="#12110c" stroke-width="0.01" stroke-opacity="1" stroke-miterlimit="4"/><path fill="#ffffff" d="M 117.480469 116.351562 C 117.480469 116.351562 117.738281 118.976562 117.738281 119.640625 C 117.738281 120.289062 117.351562 157.492188 117.351562 157.492188 C 117.351562 157.492188 117.738281 160.375 115.261719 161.820312 C 115.261719 161.820312 114.601562 162.074219 114.476562 160.242188 L 114.734375 120.953125 C 114.734375 120.953125 114.996094 116.09375 117.480469 116.351562 " fill-opacity="1" fill-rule="nonzero"/><path stroke-linecap="butt" transform="matrix(0.962118, 0, 0, -0.963022, 117.484293, 116.348971)" fill="none" stroke-linejoin="miter" d="M 0.0000850153 0.00136498 C 0.0000850153 0.00136498 0.263988 -2.724428 0.263988 -3.413989 C 0.263988 -4.091381 -0.133897 -42.727066 -0.133897 -42.727066 C -0.133897 -42.727066 0.263988 -45.720571 -2.310084 -47.217324 C -2.310084 -47.217324 -2.996233 -47.489092 -3.134274 -45.586715 L -2.862251 -4.776886 C -2.862251 -4.776886 -2.590227 0.269077 0.0000850153 0.00136498 Z M 0.0000850153 0.00136498 " stroke="#12110c" stroke-width="0.012" stroke-opacity="1" stroke-miterlimit="4"/><path fill="#ffffff" d="M 113.164062 162.210938 C 113.164062 162.210938 113.425781 125.265625 113.300781 124.609375 C 113.164062 123.964844 113.425781 125.144531 113.425781 125.144531 C 113.425781 125.144531 113.03125 118.71875 114.738281 116.089844 C 114.738281 116.089844 114.207031 113.875 111.199219 116.621094 L 111.066406 121.988281 C 111.066406 121.988281 111.066406 125.003906 108.320312 124.875 C 108.320312 124.875 105.179688 124.738281 103.738281 126.179688 C 103.738281 126.179688 102.953125 129.066406 105.960938 128.546875 C 105.960938 128.546875 110.675781 128.546875 110.9375 130.5 L 110.675781 150.285156 C 110.675781 150.285156 111.722656 153.578125 108.0625 153.578125 C 108.0625 153.578125 103.597656 153.296875 103.738281 156.046875 C 103.738281 156.046875 104.660156 158.402344 108.453125 157.625 C 108.453125 157.625 111.199219 158.140625 111.066406 160.769531 L 111.066406 165.746094 C 111.066406 165.746094 110.800781 167.722656 113.425781 167.847656 L 133.84375 167.847656 C 133.84375 167.847656 134.882812 167.972656 134.882812 166.664062 C 134.882812 166.664062 134.757812 165.617188 133.1875 165.617188 L 116.175781 165.355469 C 116.175781 165.355469 113.425781 166.277344 113.164062 162.210938 " fill-opacity="1" fill-rule="nonzero"/><path fill="#ffffff" d="M 117.09375 162.148438 C 117.09375 162.148438 116.566406 163.980469 118.527344 163.597656 L 132.011719 163.597656 L 135.667969 164.394531 C 135.667969 164.394531 139.464844 163.46875 135.667969 161.375 C 135.667969 161.375 123.632812 161.496094 122.585938 161.238281 C 122.585938 161.238281 120.097656 160.589844 119.5625 160.457031 C 119.5625 160.457031 118.265625 159.933594 117.09375 162.148438 " fill-opacity="1" fill-rule="nonzero"/><path stroke-linecap="butt" transform="matrix(0.962118, 0, 0, -0.963022, 117.089827, 162.149361)" fill="none" stroke-linejoin="miter" d="M 0.000017585 0.000958495 C 0.000017585 0.000958495 -0.548089 -1.905474 1.490056 -1.512019 L 15.509412 -1.512019 L 19.31368 -2.335436 C 19.31368 -2.335436 23.25599 -1.370051 19.31368 0.80815 C 19.31368 0.80815 6.800603 0.686463 5.708449 0.946062 C 5.708449 0.946062 3.122197 1.623454 2.57003 1.761367 C 2.57003 1.761367 1.218033 2.304903 0.000017585 0.000958495 Z M 0.000017585 0.000958495 " stroke="#12110c" stroke-width="0.012" stroke-opacity="1" stroke-miterlimit="4"/><path fill="#ffffff" d="M 139.464844 163.984375 C 139.464844 163.984375 136.980469 163.984375 137.109375 167.269531 C 137.109375 167.269531 137.371094 169.746094 139.988281 169.746094 C 139.988281 169.746094 142.335938 169.359375 142.085938 166.742188 C 142.085938 166.742188 140.644531 163.464844 139.464844 163.984375 " fill-opacity="1" fill-rule="nonzero"/><path fill="#ffffff" d="M 141.300781 162.679688 C 141.300781 162.679688 142.476562 161.375 143.269531 161.375 C 143.269531 161.375 156.355469 162.546875 158.566406 160.980469 C 158.566406 160.980469 160.539062 160.589844 161.066406 160.980469 C 161.066406 160.980469 163.023438 162.546875 163.023438 163.464844 C 163.023438 163.464844 162.898438 164.652344 160.539062 163.980469 C 160.539062 163.980469 145.75 164.125 144.964844 164.125 C 144.964844 164.125 140.898438 165.035156 141.300781 162.679688 " fill-opacity="1" fill-rule="nonzero"/><path stroke-linecap="butt" transform="matrix(0.962118, 0, 0, -0.963022, 141.296734, 162.679984)" fill="none" stroke-linejoin="miter" d="M 0.000146508 0.000307591 C 0.000146508 0.000307591 1.222222 1.359148 2.042352 1.359148 C 2.042352 1.359148 15.651643 0.142276 17.953692 1.772884 C 17.953692 1.772884 20.004018 2.178508 20.552124 1.772884 C 20.552124 1.772884 22.58621 0.142276 22.58621 -0.819053 C 22.58621 -0.819053 22.456288 -2.05215 20.004018 -1.354477 C 20.004018 -1.354477 4.624545 -1.504557 3.804414 -1.504557 C 3.804414 -1.504557 -0.418039 -2.449661 0.000146508 0.000307591 Z M 0.000146508 0.000307591 " stroke="#12110c" stroke-width="0.012" stroke-opacity="1" stroke-miterlimit="4"/><path fill="#ffffff" d="M 143 166.929688 C 143 166.929688 143 165.867188 144.835938 165.867188 L 163.152344 165.742188 C 163.152344 165.742188 164.859375 166.660156 164.859375 163.523438 C 164.859375 163.523438 165.53125 149.242188 165.589844 133.519531 C 165.613281 128.835938 165.824219 123.925781 165.660156 119.375 C 165.660156 119.375 165.25 117.40625 164.722656 117.007812 C 164.722656 117.007812 164.722656 114.914062 166.953125 115.703125 C 166.953125 115.703125 168.917969 115.835938 168.394531 118.859375 L 168.53125 123.421875 C 168.53125 123.421875 168.136719 125.402344 171.660156 124.871094 C 171.660156 124.871094 175.191406 125.402344 175.332031 126.703125 C 175.332031 126.703125 176.375 129.332031 172.195312 129.066406 L 169.171875 129.066406 C 169.171875 129.066406 167.867188 129.847656 168.257812 131.425781 L 167.867188 150.425781 C 167.867188 150.425781 167.605469 153.695312 170.746094 153.574219 C 170.746094 153.574219 174.011719 153.4375 174.671875 154.488281 C 174.671875 154.488281 176.910156 157.761719 172.058594 157.496094 C 172.058594 157.496094 169.046875 157.359375 168.394531 157.894531 C 168.394531 157.894531 167.867188 158.542969 167.476562 164.707031 C 167.476562 164.707031 167.742188 168.378906 164.992188 167.972656 C 164.992188 167.972656 146.792969 168.234375 145.09375 167.847656 C 145.09375 167.847656 143.265625 168.378906 143 166.929688 " fill-opacity="1" fill-rule="nonzero"/><path fill="#ffffff" d="M 119.445312 115.164062 L 119.050781 157.230469 C 119.050781 157.230469 118.925781 159.179688 122.195312 159.574219 C 122.195312 159.574219 125.988281 159.96875 126.898438 159.574219 C 126.898438 159.574219 129.398438 159.441406 135.800781 159.707031 C 135.800781 159.707031 137.382812 161.292969 137.511719 159.3125 C 137.511719 159.3125 138.550781 125.265625 138.039062 118.171875 C 138.039062 118.171875 137.894531 115.164062 135.679688 115.03125 C 135.679688 115.03125 125.730469 115.835938 124.8125 115.03125 L 120.882812 113.992188 C 120.882812 113.992188 119.3125 114.121094 119.445312 115.164062 " fill-opacity="1" fill-rule="nonzero"/><path fill="#ffffff" d="M 140.121094 117.269531 C 140.121094 117.269531 139.730469 137.050781 139.859375 137.707031 L 139.601562 154.339844 L 139.070312 160.109375 C 139.070312 160.109375 139.859375 161.285156 140.515625 160.503906 C 140.515625 160.503906 144.703125 159.441406 147.320312 159.855469 C 147.320312 159.855469 155.707031 160.632812 157.402344 159.3125 C 157.402344 159.3125 158.714844 159.96875 159.097656 157.871094 C 159.097656 157.871094 159.613281 121.199219 159.371094 120.546875 C 159.371094 120.546875 159.878906 115.289062 159.613281 114.78125 C 159.613281 114.78125 159.5 113.601562 157.269531 114.644531 C 157.269531 114.644531 157.523438 115.699219 145.097656 115.289062 C 145.097656 115.289062 140.386719 115.164062 140.121094 117.269531 " fill-opacity="1" fill-rule="nonzero"/><path fill="#ffffff" d="M 160.9375 116.75 L 160.8125 158.140625 C 160.8125 158.140625 161.855469 161.820312 163.554688 161.4375 C 163.554688 161.4375 163.8125 160.640625 163.9375 159.332031 L 164.46875 119.890625 C 164.46875 119.890625 163.152344 113.617188 160.9375 116.75 " fill-opacity="1" fill-rule="nonzero"/><path stroke-linecap="butt" transform="matrix(0.962118, 0, 0, -0.963022, 160.935498, 116.744772)" fill="none" stroke-linejoin="miter" d="M -0.00197959 -0.00137299 L -0.131901 -42.989404 C -0.131901 -42.989404 0.956192 -46.814438 2.722315 -46.41287 C 2.722315 -46.41287 2.994338 -45.585397 3.12426 -44.226557 L 3.672367 -3.26259 C 3.672367 -3.26259 2.304129 3.255788 -0.00197959 -0.00137299 Z M -0.00197959 -0.00137299 " stroke="#12110c" stroke-width="0.012" stroke-opacity="1" stroke-miterlimit="4"/><path fill="#737373" d="M 144.867188 129.144531 C 144.476562 128.097656 147.089844 127.964844 147.089844 127.964844 L 148.40625 128.222656 C 149.324219 128.097656 150.238281 128.492188 150.238281 128.492188 C 151.152344 129.929688 149.582031 130.710938 149.582031 130.710938 L 149.058594 132.421875 C 148.921875 133.867188 149.058594 146.3125 149.058594 146.3125 C 149.324219 146.957031 150.367188 148.132812 150.367188 148.132812 C 150.367188 149.316406 148.921875 149.058594 148.921875 149.058594 L 145.132812 149.191406 C 143.953125 149.058594 144.34375 147.742188 144.34375 147.742188 C 145.652344 147.089844 146.046875 144.726562 146.046875 144.726562 L 146.046875 131.761719 Z M 144.867188 129.144531 " fill-opacity="1" fill-rule="nonzero"/><path fill="#737373" d="M 127.199219 141.328125 L 126.941406 145.386719 L 128.109375 147.347656 C 128.902344 148.394531 127.589844 149.191406 127.589844 149.191406 L 123.402344 148.796875 C 122.625 148.394531 123.402344 147.089844 123.402344 147.089844 C 124.453125 146.445312 124.582031 144.730469 124.582031 144.730469 L 124.453125 137.132812 L 124.582031 131.628906 C 124.582031 130.96875 123.539062 129.800781 123.539062 129.800781 C 122.625 129.667969 122.882812 128.492188 122.882812 128.492188 C 123.144531 127.832031 125.359375 128.222656 125.359375 128.222656 L 130.867188 128.222656 C 136.101562 129.929688 135.316406 133.730469 135.316406 133.730469 C 135.710938 137.523438 131.65625 139.105469 131.65625 139.105469 L 131.382812 141.199219 L 135.183594 147.214844 C 135.839844 147.742188 135.710938 148.273438 135.710938 148.273438 C 135.183594 149.714844 133.085938 148.273438 133.085938 148.273438 L 128.382812 140.933594 C 127.984375 140.40625 127.199219 141.328125 127.199219 141.328125 M 127.332031 130.96875 C 127.457031 133.863281 127.457031 137.789062 127.457031 137.789062 C 129.953125 139.757812 131.382812 137 131.382812 137 C 134.652344 133.863281 131.382812 130.96875 130.867188 130.191406 C 130.335938 129.402344 127.71875 130.054688 127.71875 130.054688 Z M 127.332031 130.96875 " fill-opacity="1" fill-rule="nonzero"/><path fill="#737373" d="M 99.9375 192.226562 C 99.9375 192.226562 100.855469 191.839844 101.113281 191.191406 C 101.113281 191.191406 103.867188 190.925781 104.253906 190.535156 L 112.898438 191.191406 C 112.898438 191.191406 121.402344 191.839844 125.066406 189.207031 C 125.066406 189.207031 126.382812 189.207031 127.300781 189.605469 C 127.300781 189.605469 129.121094 190.007812 129.644531 190.78125 L 134.625 190.648438 C 134.625 190.648438 137.503906 191.574219 137.238281 193.410156 L 137.238281 195.761719 C 137.238281 195.761719 136.710938 200.484375 138.019531 200.75 L 141.824219 200.75 C 141.824219 200.75 144.96875 202.1875 144.574219 204.019531 C 144.574219 204.019531 144.703125 206.632812 141.960938 207.164062 C 141.960938 207.164062 139.199219 207.945312 138.292969 207.820312 C 138.292969 207.820312 137.371094 208.996094 137.238281 210.4375 L 136.855469 227.601562 C 136.855469 227.601562 136.585938 229.433594 139.339844 229.171875 C 139.339844 229.171875 143.386719 228.777344 144.574219 231.015625 C 144.574219 231.015625 145.621094 234.808594 143.527344 235.460938 L 141.960938 236.242188 L 138.550781 236.785156 C 138.550781 236.785156 137.117188 236.902344 136.980469 239.390625 L 136.980469 243.96875 C 136.980469 243.96875 137.117188 247.125 134.625 247.125 L 130.957031 247.386719 C 130.957031 247.386719 130.042969 248.164062 128.214844 247.640625 C 128.214844 247.640625 105.960938 248.042969 105.175781 247.777344 L 102.554688 248.308594 C 102.554688 248.308594 99.675781 250.925781 97.320312 248.953125 L 95.488281 247.511719 C 95.488281 247.511719 94.175781 247.777344 93.664062 247.640625 C 93.136719 247.511719 69.050781 247.90625 69.050781 247.90625 C 69.050781 247.90625 63.945312 248.4375 63.558594 246.726562 C 63.558594 246.726562 62.90625 240.050781 63.164062 239.25 C 63.164062 239.25 63.164062 237.296875 61.988281 237.167969 C 61.988281 237.167969 56.882812 236.902344 56.75 236.371094 C 56.75 236.371094 53.996094 234.417969 54.78125 232.457031 C 54.78125 232.457031 55.703125 229.824219 58.449219 229.566406 C 58.449219 229.566406 62.636719 230.226562 62.636719 229.046875 C 62.636719 229.046875 62.90625 228.261719 62.90625 226.953125 C 62.90625 226.953125 63.164062 211.355469 63.03125 210.308594 C 63.03125 210.308594 63.421875 208.34375 61.71875 208.34375 C 61.71875 208.34375 59.890625 208.863281 58.714844 208.082031 C 58.714844 208.082031 55.574219 208.214844 54.917969 205.722656 C 54.917969 205.722656 54.390625 204.152344 55.171875 202.832031 C 55.171875 202.832031 56.617188 199.953125 60.808594 200.875 C 60.808594 200.875 63.164062 201.53125 63.421875 199.835938 L 63.300781 193.535156 C 63.300781 193.535156 62.769531 191.839844 66.042969 190.925781 C 66.042969 190.925781 70.230469 192.097656 71.535156 190.007812 C 71.535156 190.007812 72.980469 187.113281 74.144531 189.082031 C 74.144531 189.082031 76.640625 191.445312 83.449219 191.191406 C 83.449219 191.191406 95.230469 190.265625 95.488281 190.78125 C 95.488281 190.78125 98.371094 191.191406 99.152344 192.097656 Z M 99.9375 192.226562 " fill-opacity="1" fill-rule="nonzero"/><path stroke-linecap="butt" transform="matrix(0.962118, 0, 0, -0.963022, 99.937182, 192.064689)" fill="none" stroke-linejoin="miter" d="M 0.000330981 -0.0017832 C 0.000330981 -0.0017832 0.942263 0.395728 1.222406 1.077177 C 1.222406 1.077177 4.080682 1.353001 4.486687 1.762681 L 13.46752 1.077177 C 13.46752 1.077177 22.310311 0.395728 26.118639 3.129634 C 26.118639 3.129634 27.486876 3.129634 28.440988 2.715898 C 28.440988 2.715898 30.341092 2.306217 30.872959 1.499026 L 36.057644 1.632881 C 36.057644 1.632881 39.045841 0.671553 38.769758 -1.230824 L 38.769758 -3.676737 C 38.769758 -3.676737 38.225711 -8.576674 39.585828 -8.848442 L 43.536257 -8.848442 C 43.536257 -8.848442 46.800538 -10.349251 46.398593 -12.251628 C 46.398593 -12.251628 46.532575 -14.961196 43.678359 -15.516901 C 43.678359 -15.516901 40.811963 -16.328149 39.870031 -16.194293 C 39.870031 -16.194293 38.915919 -17.415221 38.769758 -18.911974 L 38.367813 -36.743204 C 38.367813 -36.743204 38.091729 -38.637468 40.950005 -38.369757 C 40.950005 -38.369757 45.160278 -37.968189 46.398593 -40.276189 C 46.398593 -40.276189 47.486687 -44.222911 45.3105 -44.904359 L 43.678359 -45.719663 L 40.133935 -46.271312 C 40.133935 -46.271312 38.639836 -46.401112 38.509914 -48.976824 L 38.509914 -53.751018 C 38.509914 -53.751018 38.639836 -57.012235 36.057644 -57.012235 L 32.245256 -57.284003 C 32.245256 -57.284003 31.291144 -58.099308 29.39104 -57.555771 C 29.39104 -57.555771 6.26093 -57.965452 5.444859 -57.681515 L 2.716505 -58.233163 C 2.716505 -58.233163 -0.271692 -60.958957 -2.719903 -58.906499 L -4.628127 -57.409747 C -4.628127 -57.409747 -5.988244 -57.681515 -6.524171 -57.555771 C -7.072278 -57.409747 -32.102492 -57.827539 -32.102492 -57.827539 C -32.102492 -57.827539 -37.413039 -58.375132 -37.819044 -56.602555 C -37.819044 -56.602555 -38.493012 -49.658272 -38.225049 -48.838912 C -38.225049 -48.838912 -38.225049 -46.806736 -39.451184 -46.67288 C -39.451184 -46.67288 -44.753611 -46.401112 -44.895713 -45.853519 C -44.895713 -45.853519 -47.753988 -43.809174 -46.937918 -41.776998 C -46.937918 -41.776998 -45.979746 -39.047149 -43.12147 -38.771324 C -43.12147 -38.771324 -38.773156 -39.468998 -38.773156 -38.227788 C -38.773156 -38.227788 -38.493012 -37.41654 -38.493012 -36.065812 C -38.493012 -36.065812 -38.225049 -19.869246 -38.359031 -18.782174 C -38.359031 -18.782174 -37.953025 -16.733773 -39.727268 -16.733773 C -39.727268 -16.733773 -41.627372 -17.277309 -42.853507 -16.466061 C -42.853507 -16.466061 -46.113728 -16.599917 -46.795816 -14.016092 C -46.795816 -14.016092 -47.347983 -12.38954 -46.527853 -11.018531 C -46.527853 -11.018531 -45.033754 -8.025026 -40.67732 -8.978242 C -40.67732 -8.978242 -38.225049 -9.667803 -37.953025 -7.903339 L -38.087007 -1.36468 C -38.087007 -1.36468 -38.635114 0.395728 -35.232791 1.353001 C -35.232791 1.353001 -30.880417 0.128016 -29.5203 2.306217 C -29.5203 2.306217 -28.026201 5.303779 -26.808186 3.271602 C -26.808186 3.271602 -24.213813 0.817577 -17.145264 1.077177 C -17.145264 1.077177 -4.89203 2.038505 -4.628127 1.499026 C -4.628127 1.499026 -1.627749 1.077177 -0.815739 0.128016 Z M 0.000330981 -0.0017832 " stroke="#12110c" stroke-width="0.01" stroke-opacity="1" stroke-miterlimit="4"/><path fill="#ffffff" d="M 103.339844 243.714844 C 103.339844 243.714844 104.914062 242.917969 105.964844 243.191406 C 107.011719 243.453125 122.324219 243.0625 122.324219 243.0625 C 122.324219 243.0625 128.996094 243.582031 130.050781 242.65625 L 131.609375 242.136719 C 131.609375 242.136719 132.265625 241.355469 132.265625 240.3125 C 132.265625 239.253906 132.398438 235.714844 132.398438 235.714844 L 132.796875 234.417969 C 132.796875 234.417969 132.660156 233.105469 132.796875 198.117188 C 132.796875 198.117188 133.3125 195.378906 131.609375 193.667969 C 131.609375 193.667969 131.609375 192.628906 132.128906 192.753906 C 132.660156 192.894531 132.398438 192.894531 132.398438 192.894531 C 132.398438 192.894531 134.75 192.226562 135.136719 193.144531 C 135.136719 193.144531 136.195312 196.277344 135.273438 198.117188 C 135.273438 198.117188 135.011719 201.921875 136.992188 201.921875 C 136.992188 201.921875 137.761719 202.714844 139.335938 202.316406 C 139.335938 202.316406 142.738281 202.714844 142.738281 203.75 C 142.738281 203.75 142.738281 206.121094 140.378906 205.726562 L 137.234375 205.980469 C 137.234375 205.980469 135.136719 206.382812 135.40625 208.863281 C 135.671875 211.355469 135.273438 229.171875 135.273438 229.171875 C 135.273438 229.171875 135.273438 231.277344 138.554688 231.144531 C 138.554688 231.144531 142.605469 231.011719 142.605469 232.183594 C 142.605469 232.183594 143.648438 234.800781 140.773438 234.9375 C 140.773438 234.9375 135.273438 234.800781 135.671875 236.371094 C 135.671875 236.371094 135.273438 240.050781 135.011719 240.695312 C 135.011719 240.695312 135.546875 243.714844 134.878906 244.242188 C 134.878906 244.242188 134.492188 245.9375 130.960938 245.679688 C 130.960938 245.679688 108.453125 245.550781 104.914062 245.8125 C 104.914062 245.8125 102.816406 245.550781 103.339844 243.714844 " fill-opacity="1" fill-rule="nonzero"/><path fill="#ffffff" d="M 99.289062 241.226562 C 99.289062 241.226562 101.511719 241.613281 101.511719 243.714844 C 101.511719 245.804688 101.644531 246.988281 100.328125 247.246094 C 99.023438 247.511719 97.585938 247.125 97.199219 245.421875 C 96.796875 243.714844 97.449219 241.613281 99.289062 241.226562 " fill-opacity="1" fill-rule="nonzero"/><path fill="#ffffff" d="M 101.902344 240.179688 C 101.902344 240.179688 104.257812 238.597656 105.175781 238.871094 C 105.175781 238.871094 117.082031 239.648438 120.753906 239.007812 C 124.417969 238.347656 122.191406 238.871094 122.191406 238.871094 C 122.191406 238.871094 125.335938 238.871094 126.242188 237.683594 C 126.242188 237.683594 127.164062 237.433594 127.6875 238.347656 L 129.640625 240.453125 C 129.640625 240.453125 129.789062 241.75 127.554688 241.617188 C 127.554688 241.617188 106.214844 241.617188 105.570312 241.75 C 105.570312 241.75 101.511719 242.394531 101.902344 240.179688 " fill-opacity="1" fill-rule="nonzero"/><path stroke-linecap="butt" transform="matrix(0.962118, 0, 0, -0.963022, 101.899904, 240.181141)" fill="none" stroke-linejoin="miter" d="M -0.00152406 0.00150934 C -0.00152406 0.00150934 2.446687 1.644287 3.400799 1.364406 C 3.400799 1.364406 15.783954 0.553158 19.596342 1.218381 C 23.40873 1.907942 21.090441 1.364406 21.090441 1.364406 C 21.090441 1.364406 24.362842 1.364406 25.308834 2.601559 C 25.308834 2.601559 26.262946 2.857102 26.806992 1.907942 L 28.837018 -0.282427 C 28.837018 -0.282427 28.98724 -1.633155 26.673011 -1.491187 C 26.673011 -1.491187 4.488892 -1.491187 3.810864 -1.633155 C 3.810864 -1.633155 -0.407529 -2.306491 -0.00152406 0.00150934 Z M -0.00152406 0.00150934 " stroke="#12110c" stroke-width="0.012" stroke-opacity="1" stroke-miterlimit="4"/><path fill="#ffffff" d="M 70.886719 193.671875 C 70.886719 193.671875 71.804688 193.671875 71.671875 195.246094 L 71.40625 234.808594 C 71.40625 234.808594 71.804688 237.433594 69.578125 239.132812 C 69.578125 239.132812 68.394531 240.566406 68.394531 238.347656 L 68.929688 197.996094 C 68.929688 197.996094 69.050781 194.980469 70.886719 193.671875 " fill-opacity="1" fill-rule="nonzero"/><path stroke-linecap="butt" transform="matrix(0.962118, 0, 0, -0.963022, 70.886974, 193.668122)" fill="none" stroke-linejoin="miter" d="M -0.00026516 0.000158805 C -0.00026516 0.000158805 0.953847 0.000158805 0.823925 -1.634506 L 0.539722 -42.724216 C 0.539722 -42.724216 0.953847 -45.450009 -1.364442 -47.214474 C -1.364442 -47.214474 -2.602758 -48.70717 -2.602758 -46.39917 L -2.042471 -4.494155 C -2.042471 -4.494155 -1.912549 -1.358682 -0.00026516 0.000158805 Z M -0.00026516 0.000158805 " stroke="#12110c" stroke-width="0.012" stroke-opacity="1" stroke-miterlimit="4"/><path fill="#ffffff" d="M 68.792969 193.933594 C 68.792969 193.933594 67.21875 196.820312 67.351562 197.480469 L 67.21875 206.25 C 67.21875 206.25 67.089844 211.882812 67.21875 212.539062 C 67.351562 213.191406 67.089844 229.703125 67.089844 229.703125 C 67.089844 229.703125 66.957031 232.839844 67.089844 233.894531 L 67.089844 240.964844 C 67.089844 240.964844 66.824219 244.113281 69.179688 243.316406 C 69.179688 243.316406 92.21875 242.796875 93.664062 243.195312 C 93.664062 243.195312 95.75 243.582031 94.976562 244.632812 C 94.976562 244.632812 94.976562 245.558594 93.523438 245.289062 C 93.523438 245.289062 82.660156 246.328125 72.847656 245.941406 C 72.847656 245.941406 66.304688 246.328125 65.902344 245.558594 C 65.902344 245.558594 64.863281 245.425781 64.863281 241.617188 C 64.863281 241.617188 64.863281 238.089844 64.609375 237.433594 C 64.609375 237.433594 64.863281 235.578125 61.59375 235.199219 C 61.59375 235.199219 57.011719 235.988281 56.882812 233.238281 C 56.882812 233.238281 57.53125 231.273438 61.988281 231.53125 C 61.988281 231.53125 65.257812 232.054688 64.609375 229.429688 L 64.996094 210.054688 C 64.996094 210.054688 65.398438 206.632812 63.164062 206.496094 C 63.164062 206.496094 61.078125 206.390625 60.410156 206.632812 C 60.410156 206.632812 56.617188 206.632812 56.882812 204.421875 C 56.882812 204.421875 58.191406 202.054688 61.988281 202.582031 C 61.988281 202.582031 64.863281 203.101562 64.996094 199.835938 C 64.996094 199.835938 64.863281 193.148438 66.429688 192.894531 C 66.429688 192.894531 69.710938 193.011719 68.792969 193.933594 " fill-opacity="1" fill-rule="nonzero"/><path fill="#ffffff" d="M 72.714844 237.292969 C 72.714844 237.292969 74.546875 239.25 77.5625 239.136719 L 95.347656 239.390625 C 95.347656 239.390625 97.324219 239.53125 97.199219 240.566406 C 97.199219 240.566406 96.921875 242.136719 94.578125 241.613281 L 73.109375 241.355469 L 70.746094 241.5 C 70.746094 241.5 69.175781 241.226562 71.671875 238.214844 Z M 72.714844 237.292969 " fill-opacity="1" fill-rule="nonzero"/><path stroke-linecap="butt" transform="matrix(0.962118, 0, 0, -0.963022, 72.708264, 237.291107)" fill="none" stroke-linejoin="miter" d="M -0.00128144 -0.00193343 C -0.00128144 -0.00193343 1.906943 -2.03411 5.045362 -1.912422 L 23.538894 -2.180134 C 23.538894 -2.180134 25.58516 -2.322103 25.463358 -3.401062 C 25.463358 -3.401062 25.175095 -5.035727 22.739064 -4.500303 L 0.412844 -4.228535 L -2.043487 -4.370504 C -2.043487 -4.370504 -3.671568 -4.09468 -1.081255 -0.959206 Z M -0.00128144 -0.00193343 " stroke="#12110c" stroke-width="0.012" stroke-opacity="1" stroke-miterlimit="4"/><path fill="#ffffff" d="M 127.6875 235.582031 C 127.6875 235.582031 129.257812 238.601562 130.042969 239.011719 C 130.042969 239.011719 131.484375 240.699219 131.09375 237.691406 L 131.351562 199.957031 C 131.351562 199.957031 130.957031 198.640625 131.351562 196.554688 L 129.785156 193.671875 C 129.785156 193.671875 128.078125 192.363281 128.078125 194.453125 L 127.820312 234.679688 Z M 127.6875 235.582031 " fill-opacity="1" fill-rule="nonzero"/><path stroke-linecap="butt" transform="matrix(0.962118, 0, 0, -0.963022, 127.682754, 235.585605)" fill="none" stroke-linejoin="miter" d="M 0.000872673 -0.000345755 C 0.000872673 -0.000345755 1.637073 -3.131763 2.457204 -3.561724 C 2.457204 -3.561724 3.955362 -5.318076 3.549357 -2.186659 L 3.817321 37.008787 C 3.817321 37.008787 3.407255 38.363571 3.817321 40.529603 L 2.18518 43.527165 C 2.18518 43.527165 0.406878 44.881949 0.406878 42.711861 L 0.138914 0.936646 Z M 0.000872673 -0.000345755 " stroke="#12110c" stroke-width="0.012" stroke-opacity="1" stroke-miterlimit="4"/><path fill="#ffffff" d="M 98.632812 217.640625 C 98.632812 217.640625 98.765625 220.777344 98.367188 223.78125 C 98.152344 225.445312 98.894531 233.097656 98.234375 237.023438 C 98.234375 237.023438 98.113281 238.335938 95.355469 237.164062 C 95.355469 237.164062 78.605469 237.550781 78.082031 237.023438 C 78.082031 237.023438 73.503906 237.164062 73.109375 234.796875 C 73.109375 234.796875 73.761719 216.851562 73.371094 216.183594 C 73.371094 216.183594 73.109375 206.363281 73.371094 205.449219 C 73.371094 205.449219 73.761719 196.410156 73.503906 195.363281 C 73.503906 195.363281 73.636719 193.265625 73.242188 192.214844 C 73.242188 192.214844 73.242188 190.902344 75.46875 191.6875 C 75.46875 191.6875 76.242188 193.132812 80.566406 192.488281 C 80.566406 192.488281 83.714844 193.007812 86.726562 192.613281 C 86.726562 192.613281 93.394531 192.089844 95.101562 192.613281 C 95.101562 192.613281 97.722656 192.089844 98.496094 194.980469 L 98.367188 203.097656 L 99.148438 205.714844 L 100.070312 205.066406 L 100.457031 203.097656 L 100.585938 194.449219 C 100.585938 194.449219 101.109375 192.871094 103.210938 192.613281 C 103.210938 192.613281 106.484375 192.214844 107.015625 192.488281 C 107.535156 192.742188 114.59375 193.132812 116.566406 192.742188 C 118.523438 192.347656 118.910156 194.050781 124.8125 191.042969 C 124.8125 191.042969 126.382812 191.175781 126.382812 192.214844 C 126.382812 192.214844 125.847656 203.367188 126.382812 205.449219 C 126.382812 205.449219 126.382812 225.882812 125.976562 227.324219 L 126.242188 233.875 C 126.242188 233.875 126.503906 236.757812 121.933594 237.023438 C 121.933594 237.023438 124.8125 237.417969 106.738281 236.894531 C 106.738281 236.894531 103.863281 236.757812 100.722656 238.195312 C 100.722656 238.195312 100.070312 238.066406 100.070312 236.367188 C 100.070312 236.367188 100.585938 230.214844 100.070312 224.175781 L 99.816406 217.5 Z M 98.632812 217.640625 " fill-opacity="1" fill-rule="nonzero"/><path fill="#737373" d="M 86.847656 208.347656 C 86.847656 208.347656 87.246094 218.039062 86.847656 219.347656 L 86.726562 221.449219 C 86.726562 221.449219 87.246094 222.882812 88.03125 223.414062 C 88.03125 223.414062 88.6875 225.242188 87.113281 225.113281 C 87.113281 225.113281 83.847656 224.851562 83.0625 224.972656 C 83.0625 224.972656 81.222656 224.972656 83.0625 222.628906 C 83.0625 222.628906 83.714844 221.699219 83.578125 219.347656 C 83.578125 219.347656 83.578125 208.347656 83.847656 207.699219 C 83.847656 207.699219 84.105469 206.25 83.1875 205.851562 L 81.613281 205.988281 L 79.65625 207.820312 C 79.65625 207.820312 79.257812 209.792969 78.339844 207.699219 L 78.339844 206.640625 L 79.527344 203.496094 L 80.3125 203.359375 C 80.3125 203.359375 81.484375 204.148438 82.53125 204.421875 L 88.6875 204.421875 L 90.910156 203.359375 C 90.910156 203.359375 91.824219 203.496094 91.574219 204.675781 C 91.574219 204.675781 91.957031 207.699219 90.257812 208.082031 C 90.257812 208.082031 89.207031 207.699219 88.6875 206.25 C 88.6875 206.25 86.984375 205.339844 86.847656 208.347656 " fill-opacity="1" fill-rule="nonzero"/><path fill="#737373" d="M 115.773438 204.8125 C 115.773438 204.8125 110.808594 204.414062 110.683594 209.785156 C 110.683594 209.785156 110.144531 213.464844 115.648438 215.824219 C 115.648438 215.824219 119.710938 217.78125 119.4375 220.265625 C 119.4375 220.265625 118.914062 224.722656 114.597656 222.5 C 114.597656 222.5 112.507812 221.445312 112.644531 220.265625 C 112.644531 220.265625 111.980469 218.820312 111.199219 219.089844 C 111.199219 219.089844 110.277344 219.34375 110.683594 223.671875 C 110.683594 223.671875 110.683594 225.375 112.644531 223.671875 L 113.679688 223.941406 C 113.679688 223.941406 117.21875 226.820312 120.21875 223.277344 C 120.21875 223.277344 123.5 220.265625 121.136719 216.601562 C 121.136719 216.601562 119.4375 213.992188 116.433594 212.675781 C 116.433594 212.675781 113.550781 211.355469 112.902344 209.128906 C 112.902344 209.128906 113.820312 205.195312 117.34375 207.289062 C 117.34375 207.289062 118.65625 208.863281 119.4375 209.128906 C 119.4375 209.128906 120.488281 209.128906 120.21875 206.761719 L 119.972656 204.8125 C 119.972656 204.8125 119.710938 203.351562 117.871094 204.8125 C 117.871094 204.8125 116.167969 205.457031 115.773438 204.8125 " fill-opacity="1" fill-rule="nonzero"/><path fill="#737373" d="M 99.808594 202.050781 C 100.722656 202.71875 100.855469 204.027344 100.855469 204.027344 C 103.472656 210.964844 105.703125 221.0625 105.703125 221.0625 C 106.351562 222.359375 107.53125 223.414062 107.53125 223.414062 C 109.757812 224.195312 107.53125 224.847656 107.53125 224.847656 C 106.617188 225.246094 103.613281 224.726562 103.613281 224.726562 C 102.03125 224.445312 102.683594 223.9375 102.683594 223.9375 C 103.34375 223.28125 102.816406 220.652344 102.816406 220.652344 C 102.683594 219.617188 101.515625 217.90625 101.515625 217.90625 C 100.992188 217.640625 100.074219 218.820312 100.074219 218.820312 C 100.074219 218.820312 98.636719 219.347656 98.496094 218.820312 C 98.367188 218.289062 97.453125 217.792969 97.453125 217.792969 C 95.882812 217.792969 95.230469 221.699219 95.230469 221.699219 C 96.144531 224.976562 95.230469 224.445312 95.230469 224.445312 C 94.449219 225.503906 91.957031 224.726562 91.957031 224.726562 C 90.78125 224.445312 91.574219 223.53125 91.574219 223.53125 C 93.003906 223.28125 93.394531 221.699219 93.394531 221.699219 C 94.054688 220.785156 98.234375 203.757812 98.234375 203.757812 C 98.636719 202.964844 98.890625 201.398438 99.808594 202.050781 M 97.726562 210.695312 C 97.589844 211.355469 96.667969 215.023438 96.667969 215.023438 L 97.453125 216.347656 C 97.453125 216.347656 99.550781 216.464844 100.332031 216.464844 C 101.109375 216.464844 101.25 215.824219 101.25 215.15625 C 101.25 214.507812 99.808594 210.578125 99.808594 210.578125 L 99.148438 209.789062 Z M 97.726562 210.695312 " fill-opacity="1" fill-rule="nonzero"/><path fill="#737373" d="M 64.351562 170.328125 C 64.351562 170.328125 62.910156 174.925781 56.496094 170.199219 L 34.507812 169.667969 C 34.507812 169.667969 31.628906 170.597656 31.234375 167.578125 C 31.234375 167.578125 31.761719 161.558594 31.488281 161.03125 C 31.488281 161.03125 31.628906 159.320312 28.746094 159.320312 C 28.746094 159.320312 24.300781 159.855469 24.171875 155.925781 C 24.171875 155.925781 23.382812 151.71875 29.535156 151.863281 C 29.535156 151.863281 31.488281 152.777344 31.628906 150.285156 C 31.628906 150.285156 31.363281 133.257812 31.488281 131.941406 C 31.488281 131.941406 32.023438 130.382812 29.011719 130.117188 C 29.011719 130.117188 24.6875 131.027344 24.171875 128.144531 C 24.171875 128.144531 23.90625 123.828125 26.78125 123.558594 C 26.78125 123.558594 30.316406 123.828125 30.972656 122.921875 C 30.972656 122.921875 31.761719 123.429688 31.628906 120.28125 L 31.761719 114.914062 C 31.761719 114.914062 32.15625 113.472656 34.367188 113.605469 C 34.367188 113.605469 38.4375 113.867188 38.964844 113.472656 C 38.964844 113.472656 39.878906 112.300781 40.128906 111.769531 C 40.128906 111.769531 42.234375 111.644531 42.625 112.15625 C 42.625 112.15625 45.761719 114.265625 57.683594 113.472656 C 57.683594 113.472656 59.507812 113.472656 59.902344 114.003906 C 59.902344 114.003906 62.121094 115.703125 63.429688 113.867188 C 63.429688 113.867188 65.394531 113.472656 71.289062 113.605469 C 71.289062 113.605469 77.691406 115.308594 82.148438 111.644531 L 83.582031 111.914062 C 83.582031 111.914062 85.414062 114.914062 86.734375 114.003906 C 86.734375 114.003906 90.65625 113.605469 91.3125 114.398438 C 91.3125 114.398438 92.625 116.363281 91.960938 121.476562 C 91.960938 121.476562 91.183594 123.699219 94.976562 123.699219 C 94.976562 123.699219 99.289062 122.921875 98.773438 126.964844 C 98.773438 126.964844 99.953125 131.554688 92.753906 130.902344 C 92.753906 130.902344 91.832031 132.214844 91.960938 133.128906 C 91.960938 133.128906 91.832031 148.058594 91.703125 149.773438 C 91.703125 149.773438 91.578125 152.113281 94.714844 151.996094 C 94.714844 151.996094 98.90625 151.71875 99.03125 155.535156 C 99.03125 155.535156 99.554688 160.507812 93.539062 159.585938 C 93.539062 159.585938 91.703125 159.855469 91.4375 161.03125 L 91.183594 167.578125 C 91.183594 167.578125 91.3125 170.855469 87.640625 170.074219 C 87.117188 170.074219 67.234375 170.460938 65.523438 169.945312 C 65.523438 169.945312 64.613281 169.816406 64.351562 170.328125 " fill-opacity="1" fill-rule="nonzero"/><path stroke-linecap="butt" transform="matrix(0.962118, 0, 0, -0.963022, 64.353229, 170.333134)" fill="none" stroke-linejoin="miter" d="M -0.0017318 0.00114552 C -0.0017318 0.00114552 -1.499891 -4.773049 -8.166494 0.135001 L -31.024581 0.682594 C -31.024581 0.682594 -34.016839 -0.278735 -34.426904 2.860795 C -34.426904 2.860795 -33.874737 9.11146 -34.158941 9.659053 C -34.158941 9.659053 -34.016839 11.43163 -37.017216 11.43163 C -37.017216 11.43163 -41.633494 10.875925 -41.767476 14.956502 C -41.767476 14.956502 -42.583546 19.329129 -36.188966 19.179048 C -36.188966 19.179048 -34.158941 18.229888 -34.016839 20.813713 C -34.016839 20.813713 -34.292922 38.502975 -34.158941 39.865871 C -34.158941 39.865871 -33.602714 41.488367 -36.737073 41.760135 C -36.737073 41.760135 -41.231549 40.815032 -41.767476 43.812593 C -41.767476 43.812593 -42.04356 48.294738 -39.051302 48.570562 C -39.051302 48.570562 -35.381016 48.294738 -34.694867 49.239842 C -34.694867 49.239842 -33.874737 48.704418 -34.016839 51.973748 L -33.874737 57.551077 C -33.874737 57.551077 -33.468732 59.04783 -31.166683 58.905862 C -31.166683 58.905862 -26.94017 58.63815 -26.392063 59.04783 C -26.392063 59.04783 -25.437951 60.260646 -25.178108 60.812294 C -25.178108 60.812294 -22.9938 60.94615 -22.583735 60.410727 C -22.583735 60.410727 -19.327574 58.224413 -6.932239 59.04783 C -6.932239 59.04783 -5.036195 59.04783 -4.62613 58.500238 C -4.62613 58.500238 -2.320021 56.731717 -0.959904 58.63815 C -0.959904 58.63815 1.086362 59.04783 7.208919 58.905862 C 7.208919 58.905862 13.867402 57.14951 18.49586 60.94615 L 19.989959 60.66627 C 19.989959 60.66627 21.894123 57.551077 23.26236 58.500238 C 23.26236 58.500238 27.338651 58.905862 28.03292 58.094614 C 28.03292 58.094614 29.384917 56.046212 28.698768 50.740651 C 28.698768 50.740651 27.886758 48.424538 31.829068 48.424538 C 31.829068 48.424538 36.323544 49.239842 35.775437 45.037577 C 35.775437 45.037577 37.001573 40.267439 29.522959 40.948887 C 29.522959 40.948887 28.560727 39.585991 28.698768 38.632774 C 28.698768 38.632774 28.560727 23.129826 28.434865 21.353192 C 28.434865 21.353192 28.296823 18.915392 31.557044 19.037079 C 31.557044 19.037079 35.913479 19.329129 36.047461 15.362126 C 36.047461 15.362126 36.587447 10.202589 30.334969 11.159862 C 30.334969 11.159862 28.434865 10.875925 28.154722 9.659053 L 27.886758 2.860795 C 27.886758 2.860795 28.03292 -0.546447 24.208352 0.264801 C 23.664305 0.264801 2.994586 -0.13271 1.216283 0.402713 C 1.216283 0.402713 0.270292 0.532513 -0.0017318 0.00114552 Z M -0.0017318 0.00114552 " stroke="#12110c" stroke-width="0.01" stroke-opacity="1" stroke-miterlimit="4"/><path fill="#ffffff" d="M 39.613281 116.363281 C 39.613281 116.363281 39.878906 118.976562 39.878906 119.632812 C 39.878906 120.285156 39.480469 157.492188 39.480469 157.492188 C 39.480469 157.492188 39.878906 160.382812 37.386719 161.816406 C 37.386719 161.816406 36.734375 162.085938 36.597656 160.253906 L 36.867188 120.949219 C 36.867188 120.949219 37.125 116.097656 39.613281 116.363281 " fill-opacity="1" fill-rule="nonzero"/><path stroke-linecap="butt" transform="matrix(0.962118, 0, 0, -0.963022, 39.619087, 116.357644)" fill="none" stroke-linejoin="miter" d="M -0.00197391 -0.00179709 C -0.00197391 -0.00179709 0.27411 -2.715422 0.27411 -3.39687 C 0.27411 -4.074262 -0.140016 -42.714003 -0.140016 -42.714003 C -0.140016 -42.714003 0.27411 -45.715621 -2.320263 -47.212373 C -2.320263 -47.212373 -2.998292 -47.488198 -3.140393 -45.585821 L -2.86837 -4.767879 C -2.86837 -4.767879 -2.596346 0.269971 -0.00197391 -0.00179709 Z M -0.00197391 -0.00179709 " stroke="#12110c" stroke-width="0.012" stroke-opacity="1" stroke-miterlimit="4"/><path fill="#ffffff" d="M 35.292969 162.210938 C 35.292969 162.210938 35.550781 125.265625 35.425781 124.605469 C 35.292969 123.960938 35.550781 125.136719 35.550781 125.136719 C 35.550781 125.136719 35.167969 118.726562 36.867188 116.097656 C 36.867188 116.097656 36.339844 113.871094 33.328125 116.617188 L 33.207031 121.992188 C 33.207031 121.992188 33.207031 125.003906 30.453125 124.875 C 30.453125 124.875 27.308594 124.738281 25.863281 126.1875 C 25.863281 126.1875 25.082031 129.066406 28.085938 128.546875 C 28.085938 128.546875 32.804688 128.546875 33.0625 130.5 L 32.804688 150.285156 C 32.804688 150.285156 33.855469 153.5625 30.183594 153.5625 C 30.183594 153.5625 25.738281 153.308594 25.863281 156.0625 C 25.863281 156.0625 26.78125 158.421875 30.582031 157.628906 C 30.582031 157.628906 33.328125 158.15625 33.207031 160.761719 L 33.207031 165.753906 C 33.207031 165.753906 32.933594 167.722656 35.550781 167.84375 L 55.972656 167.84375 C 55.972656 167.84375 57.019531 167.972656 57.019531 166.660156 C 57.019531 166.660156 56.886719 165.625 55.324219 165.625 L 38.3125 165.355469 C 38.3125 165.355469 35.550781 166.273438 35.292969 162.210938 " fill-opacity="1" fill-rule="nonzero"/><path fill="#ffffff" d="M 38.828125 162.476562 C 38.828125 162.476562 38.308594 164.316406 40.265625 163.914062 L 53.746094 163.914062 L 57.410156 164.695312 C 57.410156 164.695312 61.21875 163.78125 57.410156 161.679688 C 57.410156 161.679688 45.371094 161.820312 44.320312 161.558594 C 44.320312 161.558594 41.839844 160.902344 41.3125 160.769531 C 41.3125 160.769531 40 160.253906 38.828125 162.476562 " fill-opacity="1" fill-rule="nonzero"/><path stroke-linecap="butt" transform="matrix(0.962118, 0, 0, -0.963022, 38.824376, 162.471976)" fill="none" stroke-linejoin="miter" d="M -0.000163577 -0.000706649 C -0.000163577 -0.000706649 -0.54015 -1.919308 1.493935 -1.493403 L 15.509231 -1.493403 L 19.325679 -2.312763 C 19.325679 -2.312763 23.280169 -1.363603 19.325679 0.82271 C 19.325679 0.82271 6.804482 0.676685 5.712328 0.956566 C 5.712328 0.956566 3.130136 1.633958 2.582029 1.767814 C 2.582029 1.767814 1.217852 2.307294 -0.000163577 -0.000706649 Z M -0.000163577 -0.000706649 " stroke="#12110c" stroke-width="0.012" stroke-opacity="1" stroke-miterlimit="4"/><path fill="#ffffff" d="M 61.214844 164.316406 C 61.214844 164.316406 58.722656 164.316406 58.851562 167.574219 C 58.851562 167.574219 59.117188 170.078125 61.726562 170.078125 C 61.726562 170.078125 64.085938 169.671875 63.832031 167.0625 C 63.832031 167.0625 62.386719 163.78125 61.214844 164.316406 " fill-opacity="1" fill-rule="nonzero"/><path fill="#ffffff" d="M 63.039062 162.996094 C 63.039062 162.996094 64.214844 161.683594 65.007812 161.683594 C 65.007812 161.683594 78.089844 162.867188 80.316406 161.296875 C 80.316406 161.296875 82.289062 160.90625 82.800781 161.296875 C 82.800781 161.296875 84.765625 162.867188 84.765625 163.78125 C 84.765625 163.78125 84.636719 164.972656 82.289062 164.316406 C 82.289062 164.316406 67.484375 164.441406 66.707031 164.441406 C 66.707031 164.441406 62.644531 165.355469 63.039062 162.996094 " fill-opacity="1" fill-rule="nonzero"/><path stroke-linecap="butt" transform="matrix(0.962118, 0, 0, -0.963022, 63.037045, 162.994897)" fill="none" stroke-linejoin="miter" d="M -0.00196289 -0.00124239 C -0.00196289 -0.00124239 1.224173 1.36571 2.044303 1.36571 C 2.044303 1.36571 15.645474 0.132614 17.959703 1.763222 C 17.959703 1.763222 20.014088 2.172902 20.545955 1.763222 C 20.545955 1.763222 22.588161 0.132614 22.588161 -0.820603 C 22.588161 -0.820603 22.454179 -2.057756 20.014088 -1.372251 C 20.014088 -1.372251 4.626495 -1.506107 3.810425 -1.506107 C 3.810425 -1.506107 -0.412028 -2.455268 -0.00196289 -0.00124239 Z M -0.00196289 -0.00124239 " stroke="#12110c" stroke-width="0.012" stroke-opacity="1" stroke-miterlimit="4"/><path fill="#ffffff" d="M 65.136719 166.929688 C 65.136719 166.929688 65.136719 165.886719 66.957031 165.886719 L 85.296875 165.75 C 85.296875 165.75 86.988281 166.65625 86.988281 163.523438 C 86.988281 163.523438 87.660156 149.234375 87.722656 133.511719 C 87.746094 128.835938 87.949219 123.925781 87.773438 119.375 C 87.773438 119.375 87.382812 117.414062 86.859375 117.011719 C 86.859375 117.011719 86.859375 114.914062 89.09375 115.710938 C 89.09375 115.710938 91.042969 115.835938 90.523438 118.84375 L 90.652344 123.433594 C 90.652344 123.433594 90.261719 125.398438 93.796875 124.875 C 93.796875 124.875 97.324219 125.398438 97.453125 126.707031 C 97.453125 126.707031 98.511719 129.332031 94.324219 129.066406 L 91.320312 129.066406 C 91.320312 129.066406 90.007812 129.847656 90.398438 131.425781 L 90.007812 150.417969 C 90.007812 150.417969 89.734375 153.691406 92.886719 153.574219 C 92.886719 153.574219 96.15625 153.4375 96.800781 154.484375 C 96.800781 154.484375 99.035156 157.761719 94.191406 157.496094 C 94.191406 157.496094 91.179688 157.359375 90.523438 157.882812 C 90.523438 157.882812 90.007812 158.550781 89.609375 164.699219 C 89.609375 164.699219 89.871094 168.371094 87.121094 167.972656 C 87.121094 167.972656 68.929688 168.230469 67.234375 167.839844 C 67.234375 167.839844 65.394531 168.371094 65.136719 166.929688 " fill-opacity="1" fill-rule="nonzero"/><path fill="#ffffff" d="M 41.566406 115.171875 L 41.1875 157.226562 C 41.1875 157.226562 41.054688 159.179688 44.324219 159.574219 C 44.324219 159.574219 48.128906 159.972656 49.035156 159.574219 C 49.035156 159.574219 51.515625 159.449219 57.933594 159.710938 C 57.933594 159.710938 59.507812 161.277344 59.632812 159.320312 C 59.632812 159.320312 60.683594 125.25 60.160156 118.179688 C 60.160156 118.179688 60.035156 115.171875 57.800781 115.039062 C 57.800781 115.039062 47.859375 115.820312 46.941406 115.039062 L 43.019531 113.988281 C 43.019531 113.988281 41.441406 114.113281 41.566406 115.171875 " fill-opacity="1" fill-rule="nonzero"/><path stroke-linecap="butt" transform="matrix(0.962118, 0, 0, -0.963022, 83.060659, 116.744772)" fill-opacity="1" fill="#ffffff" fill-rule="nonzero" stroke-linejoin="miter" d="M 0.00191383 -0.00137299 L -0.132068 -42.99346 C -0.132068 -42.99346 0.956026 -46.814438 2.734328 -46.404758 C 2.734328 -46.404758 3.002291 -45.585397 3.136273 -44.214388 L 3.68844 -3.26259 C 3.68844 -3.26259 2.320203 3.267956 0.00191383 -0.00137299 " stroke="#12110c" stroke-width="0.012" stroke-opacity="1" stroke-miterlimit="4"/><path stroke-linecap="butt" transform="matrix(0.962118, 0, 0, -0.963022, 83.060659, 116.744772)" fill="none" stroke-linejoin="miter" d="M 0.00191383 -0.00137299 L -0.132068 -42.99346 C -0.132068 -42.99346 0.956026 -46.814438 2.734328 -46.404758 C 2.734328 -46.404758 3.002291 -45.585397 3.136273 -44.214388 L 3.68844 -3.26259 C 3.68844 -3.26259 2.320203 3.267956 0.00191383 -0.00137299 Z M 0.00191383 -0.00137299 " stroke="#12110c" stroke-width="0.012" stroke-opacity="1" stroke-miterlimit="4"/><path fill="#ffffff" d="M 62.261719 117.097656 C 62.261719 117.097656 61.867188 136.875 61.992188 137.539062 L 61.746094 154.179688 L 61.214844 159.929688 C 61.214844 159.929688 61.992188 161.125 62.648438 160.332031 C 62.648438 160.332031 66.84375 159.289062 69.460938 159.679688 C 69.460938 159.679688 77.839844 160.46875 79.535156 159.15625 C 79.535156 159.15625 80.84375 159.804688 81.238281 157.707031 C 81.238281 157.707031 81.757812 121.03125 81.496094 120.375 C 81.496094 120.375 82.023438 115.140625 81.757812 114.621094 C 81.757812 114.621094 81.625 113.429688 79.414062 114.472656 C 79.414062 114.472656 79.667969 115.53125 67.238281 115.140625 C 67.238281 115.140625 62.523438 115.003906 62.261719 117.097656 " fill-opacity="1" fill-rule="nonzero"/><path fill="#737373" d="M 58.21875 129.214844 L 57.035156 131.714844 C 57.035156 131.714844 54.167969 144.414062 52.601562 147.03125 C 52.601562 147.03125 52.335938 149.65625 50.109375 147.558594 C 50.109375 147.558594 45 131.445312 44.742188 130.921875 L 43.039062 129.742188 C 43.039062 129.742188 42.007812 128.300781 43.828125 128.171875 L 48.671875 128.300781 C 48.671875 128.300781 50.238281 129.605469 48.148438 131.0625 C 48.148438 131.0625 48.40625 133.15625 51.15625 141.136719 C 51.15625 141.136719 51.9375 144.152344 52.855469 141.921875 L 55.476562 132.621094 L 54.691406 129.871094 C 54.691406 129.871094 53.898438 128.558594 55.085938 128.433594 C 55.085938 128.433594 57.832031 128.171875 58.21875 129.214844 " fill-opacity="1" fill-rule="nonzero"/><path fill="#737373" d="M 65.820312 131.316406 L 65.679688 145.203125 L 65.296875 146.246094 C 65.296875 146.246094 63.984375 147.945312 64.898438 148.082031 C 64.898438 148.082031 63.730469 148.871094 73.269531 149 C 73.269531 149 76.945312 149.648438 76.023438 144.933594 C 76.023438 144.933594 75.632812 143.234375 74.3125 145.726562 C 74.3125 145.726562 73.921875 147.8125 69.222656 147.160156 C 69.222656 147.160156 68.171875 146.246094 68.171875 145.203125 L 68.171875 139.433594 C 68.171875 139.433594 68.03125 137.984375 70.261719 138.136719 C 70.261719 138.136719 72.746094 139.699219 73.140625 139.035156 C 73.140625 139.035156 74.054688 136.949219 73.140625 135.636719 C 73.140625 135.636719 71.960938 135.511719 71.832031 136.035156 C 71.832031 136.035156 71.046875 137.597656 68.824219 136.679688 C 68.824219 136.679688 67.777344 134.589844 68.429688 132.882812 C 68.429688 132.882812 68.171875 129.605469 70.398438 129.875 C 70.398438 129.875 73.015625 130.394531 73.269531 131.1875 C 73.269531 131.1875 73.921875 132.765625 74.585938 130.929688 L 73.921875 128.691406 C 73.921875 128.691406 73.542969 127.773438 72.882812 128.039062 C 72.882812 128.039062 68.429688 128.691406 67.902344 128.160156 L 64.367188 128.558594 C 64.367188 128.558594 63.847656 129.875 65.425781 130.519531 C 65.425781 130.519531 65.820312 130.789062 65.820312 131.316406 " fill-opacity="1" fill-rule="nonzero"/></svg>