<svg width="41" height="41" viewBox="0 0 41 41" xmlns="http://www.w3.org/2000/svg">
<circle cx="20.5" cy="20.5" r="20.5"/>
<mask id="mask0_478_6858" style="mask-type:alpha" maskUnits="userSpaceOnUse" x="11" y="10" width="20" height="20">
<path d="M21.0001 10.8333C26.0622 10.8333 30.1657 14.9368 30.1657 19.9989C30.1657 25.061 26.0622 29.1644 21.0001 29.1644C19.5173 29.1664 18.0564 28.8071 16.7436 28.1177L12.8116 29.1415C12.6802 29.1757 12.5422 29.175 12.4112 29.1395C12.2801 29.1039 12.1607 29.0347 12.0646 28.9388C11.9686 28.8428 11.8993 28.7234 11.8636 28.5924C11.8279 28.4614 11.827 28.3234 11.8611 28.192L12.884 24.2609C12.1927 22.9467 11.8325 21.4838 11.8346 19.9989C11.8346 14.9368 15.938 10.8333 21.0001 10.8333Z" fill="#006FFD"/>
</mask>
<g mask="url(#mask0_478_6858)">
<rect x="11" y="10" width="20" height="20" />
</g>
</svg>
