<svg xmlns="http://www.w3.org/2000/svg" xmlns:xlink="http://www.w3.org/1999/xlink" width="1080" zoomAndPan="magnify" viewBox="0 0 810 374.999991" height="500" preserveAspectRatio="xMidYMid meet" version="1.0" data-locator-target="vscode"><path fill="#737373" d="M 315.550781 186.628906 L 305.613281 185.761719 C 299.152344 185.140625 296.421875 182.902344 296.421875 178.929688 C 296.421875 174.207031 300.394531 171.226562 308.222656 171.226562 C 315.550781 171.226562 319.15625 174.457031 319.777344 179.550781 L 343.132812 179.550781 C 341.640625 164.390625 330.957031 153.585938 308.96875 153.585938 C 286.109375 153.585938 273.5625 165.261719 273.5625 180.667969 C 273.5625 195.078125 281.386719 202.90625 301.015625 204.519531 L 310.832031 205.265625 C 318.535156 205.886719 321.265625 208.496094 321.265625 212.96875 C 321.265625 217.8125 317.292969 221.292969 309.09375 221.292969 C 301.390625 221.292969 296.917969 217.8125 296.046875 211.851562 L 271.449219 211.851562 C 273.5625 228.371094 285.238281 239.304688 308.96875 239.304688 C 331.949219 239.304688 344.621094 227.503906 344.621094 211.726562 C 344.375 196.320312 335.925781 188.492188 315.550781 186.628906 Z M 235.171875 153.460938 C 220.515625 153.460938 211.816406 161.164062 207.71875 176.816406 L 206.226562 176.816406 L 206.226562 154.949219 L 183.121094 154.949219 L 183.121094 238.0625 L 207.71875 238.0625 L 207.71875 189.613281 C 207.71875 178.554688 213.433594 172.46875 223.742188 172.46875 C 233.929688 172.46875 238.898438 178.804688 238.898438 189.488281 L 238.898438 238.0625 L 263.5 238.0625 L 263.5 185.140625 C 263.5 165.015625 252.9375 153.460938 235.171875 153.460938 Z M 159.265625 122.402344 C 150.941406 122.402344 144.605469 127.867188 144.605469 136.191406 C 144.605469 144.515625 150.820312 149.980469 159.144531 149.980469 C 167.464844 149.980469 173.679688 144.515625 173.679688 136.191406 C 173.679688 127.992188 167.589844 122.402344 159.265625 122.402344 Z M 171.566406 154.828125 L 146.96875 154.828125 L 146.96875 237.9375 L 171.566406 237.9375 Z M 383.011719 137.308594 L 367.355469 137.308594 C 366.859375 150.726562 361.144531 156.441406 348.351562 157.558594 L 348.351562 174.457031 L 358.414062 174.457031 L 358.414062 210.980469 C 358.414062 229.367188 368.972656 239.429688 389.84375 239.429688 C 393.820312 239.429688 397.671875 238.933594 401.519531 237.9375 L 401.519531 218.183594 C 399.535156 218.558594 397.546875 218.683594 395.558594 218.683594 C 386.738281 218.683594 383.011719 215.328125 383.011719 206.136719 L 383.011719 174.457031 L 404.628906 174.457031 L 404.628906 154.949219 L 383.011719 154.949219 C 383.011719 154.828125 383.011719 137.308594 383.011719 137.308594 Z M 772.355469 174.457031 L 772.355469 154.949219 L 750.742188 154.949219 L 750.742188 137.308594 L 735.460938 137.308594 C 735.085938 146.503906 732.355469 151.96875 726.265625 154.949219 L 726.265625 210.980469 C 726.265625 229.367188 736.828125 239.429688 757.699219 239.429688 C 761.671875 239.429688 765.523438 238.933594 769.375 237.9375 L 769.375 218.183594 C 767.386719 218.558594 765.398438 218.683594 763.414062 218.683594 C 754.59375 218.683594 750.863281 215.328125 750.863281 206.136719 L 750.863281 174.457031 Z M 691.976562 178.058594 L 690.488281 178.058594 L 690.488281 154.828125 L 667.753906 154.828125 L 667.753906 237.9375 L 692.351562 237.9375 L 692.351562 192.964844 C 692.351562 180.542969 697.941406 175.324219 710.738281 175.324219 C 712.851562 175.324219 715.335938 175.574219 718.5625 176.070312 L 718.5625 154.578125 C 716.328125 153.832031 713.96875 153.460938 711.605469 153.460938 C 701.667969 153.460938 694.835938 159.175781 691.976562 178.058594 Z M 535.195312 218.308594 C 523.644531 218.308594 515.320312 210.605469 515.320312 195.824219 C 515.320312 182.53125 523.019531 174.332031 534.949219 174.332031 C 545.136719 174.332031 550.972656 180.046875 552.589844 189.113281 L 577.433594 189.113281 C 575.074219 167.746094 559.792969 153.335938 535.195312 153.335938 C 508.238281 153.335938 490.597656 171.597656 490.597656 196.570312 C 490.597656 222.535156 507.617188 239.179688 534.949219 239.179688 C 559.671875 239.179688 575.820312 225.390625 578.058594 203.027344 L 553.210938 203.027344 C 551.96875 212.347656 545.632812 218.308594 535.195312 218.308594 Z M 447.238281 153.460938 C 425.871094 153.460938 412.949219 164.019531 410.714844 182.777344 L 434.195312 182.777344 C 434.941406 176.320312 439.164062 172.839844 446.617188 172.839844 C 454.195312 172.839844 457.550781 176.320312 457.550781 181.164062 C 457.550781 185.265625 454.941406 187.5 448.234375 188.742188 L 437.050781 190.855469 C 417.300781 194.457031 409.722656 202.65625 409.722656 215.578125 C 409.722656 230.359375 420.15625 239.554688 434.441406 239.554688 C 446.246094 239.554688 453.824219 234.085938 457.425781 220.421875 L 458.917969 220.421875 L 458.917969 238.0625 L 482.148438 238.0625 L 482.148438 183.773438 C 482.148438 164.890625 470.84375 153.460938 447.238281 153.460938 Z M 444.507812 222.65625 C 437.921875 222.65625 434.070312 219.179688 434.070312 213.835938 C 434.070312 209.488281 436.679688 206.507812 443.265625 205.015625 L 447.859375 204.023438 C 451.835938 203.152344 454.816406 201.910156 457.675781 199.425781 L 457.675781 208.246094 C 457.550781 218.433594 452.207031 222.65625 444.507812 222.65625 Z M 621.664062 153.460938 C 600.292969 153.460938 587.375 164.019531 585.136719 182.777344 L 608.617188 182.777344 C 609.363281 176.320312 613.585938 172.839844 621.042969 172.839844 C 628.621094 172.839844 631.972656 176.320312 631.972656 181.164062 C 631.972656 185.265625 629.363281 187.5 622.65625 188.742188 L 611.476562 190.855469 C 591.722656 194.457031 584.144531 202.65625 584.144531 215.578125 C 584.144531 230.359375 594.578125 239.554688 608.867188 239.554688 C 620.667969 239.554688 628.246094 234.085938 631.851562 220.421875 L 633.339844 220.421875 L 633.339844 238.0625 L 656.570312 238.0625 L 656.570312 183.773438 C 656.570312 164.890625 645.265625 153.460938 621.664062 153.460938 Z M 618.929688 222.65625 C 612.34375 222.65625 608.492188 219.179688 608.492188 213.835938 C 608.492188 209.488281 611.101562 206.507812 617.6875 205.015625 L 622.285156 204.023438 C 626.257812 203.152344 629.242188 201.910156 632.097656 199.425781 L 632.097656 208.246094 C 632.097656 218.433594 626.757812 222.65625 618.929688 222.65625 Z M 618.929688 222.65625 " fill-opacity="1" fill-rule="nonzero"/><path fill="#737373" d="M 105.597656 142.277344 C 100.503906 142.277344 96.902344 144.515625 93.671875 149.234375 L 84.105469 163.027344 L 84.105469 123.769531 L 61.246094 123.769531 L 61.246094 163.027344 L 51.679688 149.234375 C 48.328125 144.515625 44.722656 142.277344 39.753906 142.277344 C 32.175781 142.277344 27.082031 147.871094 27.082031 154.828125 C 27.082031 160.789062 29.816406 164.640625 35.777344 168.367188 L 72.800781 192.222656 L 109.820312 168.367188 C 115.660156 164.515625 118.519531 160.664062 118.519531 154.828125 C 118.394531 147.992188 113.300781 142.277344 105.597656 142.277344 Z M 105.597656 142.277344 " fill-opacity="1" fill-rule="nonzero"/><path fill="#737373" d="M 72.675781 198.058594 C 94.664062 198.058594 112.679688 214.457031 112.679688 238.0625 L 32.671875 238.0625 C 32.671875 214.457031 50.6875 198.058594 72.675781 198.058594 Z M 72.675781 198.058594 " fill-opacity="1" fill-rule="nonzero"/></svg>