<svg xmlns="http://www.w3.org/2000/svg" id="Layer_1" data-name="Layer 1" viewBox="0 0 300 300" data-locator-target="vscode">
    <defs>
      <style>
        .cls-1 {
          fill: #737373;
        }
      </style>
    </defs>
    <path class="cls-1"  d="m150,0C67.16,0,0,67.16,0,150s67.16,150,150,150,150-67.16,150-150S232.84,0,150,0Zm-8.76,267.59c-23.87-.04-43.2-19.39-43.22-43.27v-17.06h-17.72c-23.91,0-43.3-19.39-43.3-43.3h95.92c4.59,0,8.32,3.72,8.32,8.32v95.3h0Zm47.49-47.75c-23.89,0-43.27-19.35-43.3-43.24v-17.12h-17.67c-23.89-.02-43.26-19.38-43.27-43.27h95.92c4.59,0,8.32,3.73,8.32,8.32v95.31h0Zm47.46-47.79c-23.89-.02-43.25-19.39-43.27-43.28v-17.06h-17.67c-11.48,0-22.5-4.56-30.62-12.68s-12.68-19.13-12.68-30.62h95.92c4.59,0,8.32,3.73,8.32,8.32v95.31h0Z"/>
  </svg>