<svg xmlns="http://www.w3.org/2000/svg" xmlns:xlink="http://www.w3.org/1999/xlink" width="1080" zoomAndPan="magnify" viewBox="0 0 810 374.999991" height="500" preserveAspectRatio="xMidYMid meet" version="1.0" data-locator-target="vscode"><defs><clipPath id="8d520441c2"><path d="M 484 147 L 595 147 L 595 269.367188 L 484 269.367188 Z M 484 147 " clip-rule="nonzero"/></clipPath><clipPath id="956718daff"><path d="M 601 116 L 685 116 L 685 269.367188 L 601 269.367188 Z M 601 116 " clip-rule="nonzero"/></clipPath><clipPath id="3056315d61"><path d="M 695 147 L 810 147 L 810 269.367188 L 695 269.367188 Z M 695 147 " clip-rule="nonzero"/></clipPath><clipPath id="f1cbb5f753"><path d="M 0 105.867188 L 246 105.867188 L 246 269.367188 L 0 269.367188 Z M 0 105.867188 " clip-rule="nonzero"/></clipPath><clipPath id="dbdcf8fde3"><path d="M 20 105.867188 L 246 105.867188 L 246 269.367188 L 20 269.367188 Z M 20 105.867188 " clip-rule="nonzero"/></clipPath><clipPath id="80d63baebc"><path d="M 0 105.867188 L 71 105.867188 L 71 250 L 0 250 Z M 0 105.867188 " clip-rule="nonzero"/></clipPath></defs><path fill="#737373" d="M 297.289062 111.074219 L 327.988281 111.074219 L 380.1875 205.636719 L 432.394531 111.074219 L 462.425781 111.074219 L 462.425781 266.457031 L 437.382812 266.457031 L 437.382812 147.367188 L 391.609375 229.832031 L 368.113281 229.832031 L 322.34375 147.367188 L 322.34375 266.457031 L 297.296875 266.457031 L 297.296875 111.074219 Z M 297.289062 111.074219 " fill-opacity="1" fill-rule="nonzero"/><g clip-path="url(#8d520441c2)"><path fill="#737373" d="M 543.226562 269.230469 C 531.625 269.230469 521.425781 266.65625 512.636719 261.519531 C 503.839844 256.378906 496.984375 249.257812 492.074219 240.15625 C 487.15625 231.054688 484.703125 220.617188 484.703125 208.855469 C 484.703125 196.941406 487.101562 186.398438 491.902344 177.222656 C 496.707031 168.042969 503.378906 160.871094 511.90625 155.6875 C 520.445312 150.507812 530.253906 147.917969 541.332031 147.917969 C 552.34375 147.917969 561.816406 150.527344 569.757812 155.746094 C 577.699219 160.960938 583.8125 168.265625 588.105469 177.664062 C 592.386719 187.0625 594.535156 198.089844 594.535156 210.738281 L 594.535156 217.621094 L 509.527344 217.621094 C 511.078125 227.09375 514.90625 234.546875 521 239.984375 C 527.09375 245.421875 534.796875 248.140625 544.109375 248.140625 C 551.570312 248.140625 558 247.03125 563.394531 244.8125 C 568.785156 242.59375 573.847656 239.230469 578.574219 234.710938 L 591.875 251.03125 C 578.648438 263.167969 562.429688 269.238281 543.21875 269.230469 Z M 561.511719 177.050781 C 556.265625 171.6875 549.394531 169 540.894531 169 C 532.621094 169 525.695312 171.738281 520.113281 177.214844 C 514.535156 182.691406 511.007812 190.054688 509.527344 199.300781 L 570.488281 199.300781 C 569.746094 189.824219 566.753906 182.410156 561.507812 177.042969 Z M 561.511719 177.050781 " fill-opacity="1" fill-rule="nonzero"/></g><g clip-path="url(#956718daff)"><path fill="#737373" d="M 624.910156 171.226562 L 601.855469 171.226562 L 601.855469 150.695312 L 624.910156 150.695312 L 624.910156 116.730469 L 649.070312 116.730469 L 649.070312 150.695312 L 684.089844 150.695312 L 684.089844 171.226562 L 649.070312 171.226562 L 649.070312 223.28125 C 649.070312 231.9375 650.550781 238.113281 653.503906 241.816406 C 656.460938 245.515625 661.523438 247.367188 668.6875 247.367188 C 671.863281 247.367188 674.558594 247.242188 676.78125 246.980469 C 678.996094 246.722656 681.4375 246.371094 684.097656 245.929688 L 684.097656 266.238281 C 681.058594 267.121094 677.96875 267.785156 674.84375 268.234375 C 671.269531 268.761719 667.65625 269.023438 664.035156 269.015625 C 637.949219 269.015625 624.910156 254.738281 624.914062 226.175781 L 624.914062 171.226562 Z M 624.910156 171.226562 " fill-opacity="1" fill-rule="nonzero"/></g><g clip-path="url(#3056315d61)"><path fill="#737373" d="M 810 266.457031 L 786.28125 266.457031 L 786.28125 250.25 C 782.066406 256.320312 776.714844 261 770.207031 264.292969 C 763.703125 267.582031 756.320312 269.230469 748.042969 269.238281 C 737.847656 269.238281 728.808594 266.625 720.945312 261.410156 C 713.070312 256.195312 706.890625 249.015625 702.378906 239.878906 C 697.871094 230.738281 695.617188 220.289062 695.617188 208.519531 C 695.617188 196.683594 697.910156 186.214844 702.492188 177.105469 C 707.074219 168.007812 713.40625 160.863281 721.5 155.6875 C 729.59375 150.507812 738.882812 147.917969 749.375 147.917969 C 757.28125 147.917969 764.375 149.453125 770.65625 152.523438 C 776.851562 155.527344 782.21875 160.003906 786.28125 165.566406 L 786.28125 150.695312 L 810 150.695312 Z M 785.839844 191.199219 C 783.25 184.617188 779.167969 179.421875 773.59375 175.605469 C 768.011719 171.796875 761.570312 169.890625 754.253906 169.890625 C 743.910156 169.890625 735.667969 173.367188 729.539062 180.320312 C 723.40625 187.277344 720.335938 196.667969 720.335938 208.515625 C 720.335938 220.429688 723.292969 229.863281 729.203125 236.816406 C 735.113281 243.773438 743.128906 247.246094 753.253906 247.246094 C 760.714844 247.246094 767.367188 245.320312 773.203125 241.472656 C 779.035156 237.628906 783.25 232.449219 785.839844 225.933594 L 785.839844 191.195312 Z M 785.839844 191.199219 " fill-opacity="1" fill-rule="nonzero"/></g><g clip-path="url(#f1cbb5f753)"><path fill="#737373" d="M 26.539062 213.679688 C 26.539062 223.078125 28.597656 230.289062 31.292969 234.648438 C 34.824219 240.363281 40.082031 242.785156 45.449219 242.785156 C 52.371094 242.785156 58.699219 241.066406 70.898438 224.167969 C 80.675781 210.625 92.195312 191.605469 99.941406 179.691406 L 113.066406 159.496094 C 122.183594 145.472656 132.734375 129.882812 144.832031 119.3125 C 154.710938 110.691406 165.367188 105.902344 176.085938 105.902344 C 194.089844 105.902344 211.238281 116.351562 224.363281 135.945312 C 238.730469 157.40625 245.695312 184.4375 245.695312 212.328125 C 245.695312 228.914062 242.429688 241.09375 236.878906 250.71875 C 231.515625 260.027344 221.054688 269.332031 203.460938 269.332031 L 203.460938 242.792969 C 218.523438 242.792969 222.289062 228.933594 222.289062 213.0625 C 222.289062 190.460938 217.023438 165.371094 205.429688 147.441406 C 197.203125 134.730469 186.539062 126.960938 174.808594 126.960938 C 162.121094 126.960938 151.90625 136.542969 140.433594 153.632812 C 134.332031 162.714844 128.070312 173.773438 121.039062 186.257812 L 113.296875 199.992188 C 97.75 227.601562 93.808594 233.894531 86.03125 244.269531 C 72.398438 262.445312 60.761719 269.332031 45.449219 269.332031 C 27.273438 269.332031 15.78125 261.449219 8.664062 249.574219 C 2.855469 239.894531 0 227.203125 0 212.726562 Z M 26.539062 213.679688 " fill-opacity="1" fill-rule="nonzero"/></g><g clip-path="url(#dbdcf8fde3)"><path fill="#737373" d="M 20.925781 137.816406 C 33.089844 119.039062 50.648438 105.902344 70.785156 105.902344 C 82.457031 105.902344 94.046875 109.363281 106.15625 119.261719 C 119.398438 130.085938 133.511719 147.910156 151.121094 177.285156 L 157.4375 187.824219 C 172.683594 213.253906 181.351562 226.335938 186.425781 232.507812 C 192.957031 240.429688 197.527344 242.792969 203.460938 242.792969 C 218.523438 242.792969 222.289062 228.933594 222.289062 213.0625 L 245.703125 212.328125 C 245.703125 228.914062 242.4375 241.09375 236.886719 250.71875 C 231.519531 260.027344 221.058594 269.332031 203.46875 269.332031 C 192.535156 269.332031 182.84375 266.957031 172.125 256.828125 C 163.886719 249.058594 154.261719 235.257812 146.851562 222.847656 L 124.816406 185.984375 C 113.761719 167.488281 103.617188 153.691406 97.75 147.449219 C 91.433594 140.730469 83.316406 132.621094 70.367188 132.621094 C 59.882812 132.621094 50.980469 139.988281 43.53125 151.257812 L 20.933594 137.816406 Z M 20.925781 137.816406 " fill-opacity="1" fill-rule="nonzero"/></g><g clip-path="url(#80d63baebc)"><path fill="#737373" d="M 70.363281 132.625 C 59.875 132.625 50.972656 139.996094 43.523438 151.265625 C 32.988281 167.1875 26.539062 190.910156 26.539062 213.683594 C 26.539062 223.082031 28.597656 230.296875 31.292969 234.65625 L 8.667969 249.578125 C 2.855469 239.894531 0 227.203125 0 212.726562 C 0 186.421875 7.214844 158.996094 20.925781 137.816406 C 33.089844 119.039062 50.648438 105.902344 70.785156 105.902344 L 70.355469 132.625 Z M 70.363281 132.625 " fill-opacity="1" fill-rule="nonzero"/></g></svg>