<svg xmlns="http://www.w3.org/2000/svg" xmlns:xlink="http://www.w3.org/1999/xlink" width="100" zoomAndPan="magnify" viewBox="0 0 75 74.999997" height="100" preserveAspectRatio="xMidYMid meet" version="1.0" data-locator-target="vscode">
<defs>
      <style>
        .cls-1 {
          fill: #737373;
        }
      </style>
</defs>
<path class="cls-1" d="M 37.5 0 C 16.800781 0 0 16.800781 0 37.5 C 0 58.199219 16.800781 75 37.5 75 C 58.199219 75 75 58.199219 75 37.5 C 75 16.800781 58.199219 0 37.5 0 Z M 29.464844 45.996094 C 28.628906 45.699219 27.726562 45.539062 26.789062 45.539062 C 22.351562 45.539062 18.753906 49.136719 18.753906 53.574219 C 18.753906 58.007812 22.351562 61.609375 26.789062 61.609375 C 31.222656 61.609375 34.824219 58.007812 34.824219 53.574219 L 34.824219 28.339844 L 48.214844 20.6875 L 48.214844 35.28125 C 47.378906 34.984375 46.476562 34.824219 45.539062 34.824219 C 41.101562 34.824219 37.503906 38.421875 37.503906 42.859375 C 37.503906 47.292969 41.101562 50.890625 45.539062 50.890625 C 49.972656 50.890625 53.574219 47.292969 53.574219 42.859375 L 53.574219 16.074219 C 53.574219 15.121094 53.0625 14.234375 52.238281 13.753906 C 51.414062 13.273438 50.390625 13.273438 49.566406 13.746094 L 30.816406 24.460938 C 29.980469 24.941406 29.464844 25.824219 29.464844 26.789062 Z M 26.789062 50.894531 C 28.265625 50.894531 29.464844 52.09375 29.464844 53.574219 C 29.464844 55.050781 28.265625 56.25 26.789062 56.25 C 25.308594 56.25 24.109375 55.050781 24.109375 53.574219 C 24.109375 52.09375 25.308594 50.894531 26.789062 50.894531 Z M 45.539062 40.179688 C 47.015625 40.179688 48.214844 41.378906 48.214844 42.859375 C 48.214844 44.335938 47.015625 45.535156 45.539062 45.535156 C 44.058594 45.535156 42.859375 44.335938 42.859375 42.859375 C 42.859375 41.378906 44.058594 40.179688 45.539062 40.179688 Z M 45.539062 40.179688 " fill-opacity="1" fill-rule="evenodd"/>
</svg>