<svg xmlns="http://www.w3.org/2000/svg" xmlns:xlink="http://www.w3.org/1999/xlink" width="1080" zoomAndPan="magnify" viewBox="0 0 810 374.999991" height="500" preserveAspectRatio="xMidYMid meet" version="1.0" data-locator-target="vscode"><path stroke-linecap="butt" transform="matrix(0.700308, 0, 0, 0.7, 124.947364, -22.540934)" fill-opacity="1" fill="#ffffff" fill-rule="nonzero" stroke-linejoin="miter" d="M 170.039538 275.158938 C 170.039538 272.240411 168.940691 270.047331 167.122293 268.948 C 165.660882 268.222554 163.100623 267.84867 161.282226 267.84867 L 145.569264 267.84867 L 145.569264 299.271663 L 162.369917 299.271663 C 166.391588 299.271663 169.308832 300.002689 169.682552 303.652243 L 170.050694 303.652243 L 170.050694 275.158938 Z M 170.039538 275.158938 " stroke="#be9f56" stroke-width="1.06" stroke-opacity="1" stroke-miterlimit="3.86"/><path stroke-linecap="butt" transform="matrix(0.700308, 0, 0, 0.7, 124.947364, -22.540934)" fill-opacity="1" fill="#ffffff" fill-rule="nonzero" stroke-linejoin="miter" d="M 170.039538 275.158938 C 170.039538 272.240411 171.138386 270.047331 172.962361 268.948 C 174.418194 268.222554 177.341017 267.84867 179.538712 267.84867 L 195.251674 267.84867 L 195.251674 299.271663 L 178.077301 299.271663 C 174.061208 299.271663 170.40768 300.002689 170.40768 303.652243 L 170.039538 303.652243 Z M 170.039538 275.158938 " stroke="#be9f56" stroke-width="1.06" stroke-opacity="1" stroke-miterlimit="3.86"/><path fill="#737373" d="M 263.988281 166.746094 L 263.988281 190.015625 L 247.101562 190.015625 L 246.84375 190.523438 C 246.582031 191.296875 246.074219 191.804688 244.285156 191.804688 C 242.5 191.804688 241.984375 191.035156 241.730469 190.523438 L 241.472656 190.015625 L 224.585938 190.015625 L 224.585938 166.746094 L 223.054688 166.746094 L 223.054688 167.515625 L 221.519531 167.003906 C 221.261719 166.492188 220.75 165.984375 220.238281 165.984375 C 219.46875 165.984375 218.957031 166.492188 218.957031 167.265625 C 218.957031 168.035156 219.46875 168.546875 220.238281 168.546875 C 220.496094 168.546875 220.75 168.546875 221.007812 168.285156 L 222.800781 168.796875 L 222.800781 170.589844 L 221.269531 170.328125 C 221.007812 169.820312 220.496094 169.558594 219.984375 169.558594 C 219.214844 169.558594 218.703125 170.070312 218.703125 170.839844 C 218.703125 171.609375 219.214844 172.121094 219.984375 172.121094 C 220.496094 172.121094 220.757812 171.863281 221.007812 171.609375 L 222.800781 171.871094 L 222.800781 173.660156 L 221.269531 173.660156 C 221.007812 173.152344 220.496094 172.890625 219.984375 172.890625 C 219.214844 172.890625 218.703125 173.402344 218.703125 174.171875 C 218.703125 174.941406 219.214844 175.453125 219.984375 175.453125 C 220.496094 175.453125 220.757812 175.195312 221.007812 174.941406 L 222.542969 174.941406 L 222.542969 176.988281 L 221.007812 176.988281 C 220.75 176.726562 220.238281 176.476562 219.984375 176.476562 C 219.214844 176.476562 218.703125 176.988281 218.703125 177.757812 C 218.703125 178.527344 219.214844 179.039062 219.984375 179.039062 C 220.496094 179.039062 221.007812 178.777344 221.269531 178.269531 L 222.800781 178.269531 L 222.800781 180.058594 L 221.007812 180.320312 C 220.75 180.058594 220.496094 179.808594 219.984375 179.808594 C 219.214844 179.808594 218.703125 180.320312 218.703125 181.089844 C 218.703125 181.859375 219.214844 182.371094 219.984375 182.371094 C 220.496094 182.371094 221.007812 182.109375 221.269531 181.601562 L 222.800781 181.339844 L 222.800781 183.132812 L 221.007812 183.644531 C 220.75 183.386719 220.496094 183.386719 220.238281 183.386719 C 219.46875 183.386719 218.957031 183.894531 218.957031 184.664062 C 218.957031 185.4375 219.46875 185.945312 220.238281 185.945312 C 220.75 185.945312 221.519531 185.4375 221.519531 184.925781 L 222.800781 184.414062 L 222.800781 186.207031 L 220.757812 186.976562 C 220.496094 186.71875 220.246094 186.71875 219.984375 186.71875 C 219.214844 186.71875 218.703125 187.226562 218.703125 187.996094 C 218.703125 188.769531 219.214844 189.277344 219.984375 189.277344 C 220.757812 189.277344 221.269531 188.769531 221.269531 188.257812 L 222.800781 187.746094 L 222.800781 189.277344 L 240.195312 189.277344 C 240.96875 190.558594 242.242188 191.070312 244.035156 191.070312 C 245.828125 191.070312 247.101562 190.300781 247.871094 189.277344 L 265.269531 189.277344 L 265.269531 164.476562 L 263.988281 164.476562 L 263.988281 166.78125 Z M 263.988281 166.746094 " fill-opacity="1" fill-rule="nonzero"/><path fill="#737373" d="M 232.773438 159.074219 C 229.195312 159.074219 226.378906 159.585938 226.378906 160.355469 C 226.378906 161.125 229.195312 161.636719 232.773438 161.636719 C 236.351562 161.636719 239.167969 161.125 239.167969 160.355469 C 239.167969 159.585938 236.101562 159.074219 232.773438 159.074219 Z M 232.773438 159.074219 " fill-opacity="1" fill-rule="nonzero"/><path fill="#737373" d="M 241.472656 151.402344 L 237.894531 153.957031 L 237.894531 154.214844 L 238.664062 154.726562 C 238.921875 154.726562 238.921875 154.984375 238.664062 154.984375 L 236.359375 157.03125 L 236.101562 157.03125 L 234.566406 154.726562 L 234.566406 154.46875 L 235.589844 154.210938 L 235.589844 153.699219 L 232.773438 149.609375 L 232.261719 149.609375 L 229.449219 153.699219 L 229.449219 153.957031 L 230.46875 154.214844 C 230.730469 154.214844 230.730469 154.476562 230.46875 154.476562 L 228.9375 156.777344 L 228.675781 156.777344 L 226.632812 154.734375 L 226.632812 154.476562 L 227.402344 153.964844 L 227.402344 153.703125 L 223.566406 151.148438 L 223.304688 151.148438 L 225.609375 158.050781 C 226.632812 157.542969 229.449219 157.28125 232.515625 157.28125 C 235.582031 157.28125 238.144531 157.542969 239.417969 158.050781 L 241.722656 151.148438 L 241.464844 151.410156 Z M 241.472656 151.402344 " fill-opacity="1" fill-rule="nonzero"/><path fill="#737373" d="M 244.027344 205.105469 C 240.449219 205.105469 237.632812 205.617188 237.632812 206.386719 C 237.632812 207.15625 240.449219 207.667969 244.027344 207.667969 C 247.605469 207.667969 250.421875 207.15625 250.421875 206.386719 C 250.421875 205.617188 247.605469 205.105469 244.027344 205.105469 Z M 244.027344 205.105469 " fill-opacity="1" fill-rule="nonzero"/><path fill="#737373" d="M 252.984375 197.433594 L 249.40625 199.988281 L 249.40625 200.25 L 250.175781 200.757812 C 250.433594 200.757812 250.433594 201.019531 250.175781 201.019531 L 247.871094 203.0625 L 247.613281 203.0625 L 246.078125 200.757812 L 246.078125 200.5 L 247.101562 200.242188 L 247.101562 199.730469 L 244.285156 195.640625 L 243.777344 195.640625 L 240.960938 199.730469 L 240.960938 199.988281 L 241.984375 200.25 C 242.242188 200.25 242.242188 200.507812 241.984375 200.507812 L 240.449219 202.808594 L 240.191406 202.808594 L 238.144531 200.765625 L 238.144531 200.507812 L 238.914062 199.996094 L 238.914062 199.738281 L 235.078125 197.183594 L 234.820312 197.183594 L 237.121094 204.085938 C 238.144531 203.574219 240.960938 203.3125 244.027344 203.3125 C 247.09375 203.3125 249.65625 203.574219 250.933594 204.085938 L 253.238281 197.183594 L 252.976562 197.441406 Z M 252.984375 197.433594 " fill-opacity="1" fill-rule="nonzero"/><path fill="#737373" d="M 255.539062 159.074219 C 251.960938 159.074219 249.148438 159.585938 249.148438 160.355469 C 249.148438 161.125 251.960938 161.636719 255.539062 161.636719 C 259.121094 161.636719 261.933594 161.125 261.933594 160.355469 C 261.933594 159.585938 259.121094 159.074219 255.539062 159.074219 Z M 255.539062 159.074219 " fill-opacity="1" fill-rule="nonzero"/><path fill="#737373" d="M 264.238281 151.402344 L 260.660156 153.957031 L 260.660156 154.214844 L 261.429688 154.726562 C 261.6875 154.726562 261.6875 154.984375 261.429688 154.984375 L 259.125 157.03125 L 258.867188 157.03125 L 257.332031 154.726562 L 257.332031 154.46875 L 258.355469 154.210938 L 258.355469 153.699219 L 255.539062 149.609375 L 255.03125 149.609375 L 252.214844 153.699219 L 252.214844 153.957031 L 253.238281 154.214844 C 253.496094 154.214844 253.496094 154.476562 253.238281 154.476562 L 251.703125 156.777344 L 251.445312 156.777344 L 249.398438 154.734375 L 249.398438 154.476562 L 250.167969 154.214844 L 250.167969 153.957031 L 246.332031 151.402344 L 246.074219 151.402344 L 248.375 158.304688 C 249.398438 157.792969 252.214844 157.535156 255.28125 157.535156 C 258.347656 157.535156 260.910156 157.792969 262.1875 158.304688 L 264.492188 151.402344 L 264.230469 151.402344 Z M 264.238281 151.402344 " fill-opacity="1" fill-rule="nonzero"/><path fill="#737373" d="M 229.707031 168.539062 C 230.21875 168.539062 230.730469 168.539062 231.238281 169.050781 C 231.5 169.308594 231.75 169.558594 231.75 170.070312 C 231.75 171.351562 230.730469 171.863281 229.707031 171.863281 L 228.425781 171.863281 L 228.425781 171.605469 C 228.683594 171.605469 228.9375 171.605469 228.9375 171.09375 L 228.9375 169.558594 C 228.9375 169.21875 228.851562 169.050781 228.675781 169.050781 L 228.675781 168.789062 L 229.699219 168.789062 L 229.699219 168.53125 Z M 229.445312 171.09375 C 229.445312 171.433594 229.535156 171.605469 229.707031 171.605469 C 230.21875 171.605469 230.476562 171.09375 230.476562 170.324219 C 230.476562 169.300781 229.964844 169.042969 229.453125 169.042969 L 229.195312 169.042969 L 229.195312 171.085938 L 229.453125 171.085938 Z M 229.445312 171.09375 " fill-opacity="1" fill-rule="nonzero"/><path fill="#737373" d="M 235.328125 170.070312 C 235.328125 171.09375 234.558594 171.863281 233.796875 171.863281 C 232.773438 171.863281 232.261719 171.09375 232.261719 170.328125 C 232.261719 169.566406 232.773438 168.539062 234.054688 168.539062 C 234.566406 168.539062 235.335938 169.308594 235.335938 170.070312 Z M 233.027344 170.070312 C 233.027344 170.839844 233.285156 171.605469 233.796875 171.605469 C 234.308594 171.605469 234.566406 171.09375 234.566406 170.324219 C 234.566406 169.300781 234.308594 168.789062 233.796875 168.789062 C 233.285156 168.789062 233.027344 169.300781 233.027344 170.070312 Z M 233.027344 170.070312 " fill-opacity="1" fill-rule="nonzero"/><path fill="#737373" d="M 239.679688 168.539062 C 239.417969 168.796875 239.167969 168.796875 239.417969 169.308594 L 239.417969 170.839844 C 239.417969 171.183594 239.507812 171.351562 239.679688 171.351562 L 239.679688 171.609375 L 238.144531 171.609375 C 238.316406 171.609375 238.402344 171.441406 238.402344 171.101562 L 238.402344 169.308594 L 237.382812 171.863281 L 237.121094 171.863281 L 236.351562 169.558594 L 236.351562 171.351562 C 236.351562 171.523438 236.523438 171.609375 236.863281 171.609375 L 236.863281 171.871094 L 235.582031 171.871094 L 235.582031 171.609375 C 235.753906 171.609375 235.839844 171.523438 235.839844 171.351562 L 235.839844 169.558594 C 235.839844 169.050781 235.839844 168.789062 235.328125 168.789062 L 235.328125 168.53125 L 236.351562 168.53125 L 237.121094 170.574219 L 237.894531 168.53125 L 239.6875 168.53125 Z M 239.679688 168.539062 " fill-opacity="1" fill-rule="nonzero"/><path fill="#737373" d="M 241.210938 171.09375 C 241.210938 171.433594 241.296875 171.605469 241.472656 171.605469 L 241.472656 171.863281 L 239.9375 171.863281 L 239.9375 171.605469 C 240.109375 171.605469 240.195312 171.433594 240.195312 171.09375 L 240.195312 169.558594 C 240.195312 169.21875 240.109375 169.050781 239.9375 169.050781 L 239.9375 168.789062 L 241.472656 168.789062 L 241.472656 169.050781 C 241.296875 169.050781 241.210938 169.21875 241.210938 169.558594 Z M 241.210938 171.09375 " fill-opacity="1" fill-rule="nonzero"/><path fill="#737373" d="M 233.285156 177.742188 L 232.773438 177.742188 L 230.980469 175.441406 L 230.980469 177.230469 C 230.980469 177.492188 231.238281 177.492188 231.492188 177.492188 L 231.492188 177.75 L 230.210938 177.75 L 230.210938 177.492188 C 230.382812 177.492188 230.46875 177.40625 230.46875 177.230469 L 230.46875 174.929688 L 230.210938 174.671875 L 230.210938 174.410156 L 231.234375 174.410156 L 232.765625 176.453125 L 232.765625 174.664062 C 232.765625 174.402344 232.507812 174.402344 232.253906 174.402344 L 232.253906 174.144531 L 233.535156 174.144531 L 233.535156 174.402344 C 233.363281 174.402344 233.195312 174.492188 233.027344 174.664062 L 233.027344 177.730469 L 233.285156 177.730469 Z M 233.285156 177.742188 " fill-opacity="1" fill-rule="nonzero"/><path fill="#737373" d="M 235.328125 177.742188 C 235.070312 176.972656 234.558594 175.699219 234.308594 175.1875 C 234.132812 174.847656 233.964844 174.675781 233.796875 174.675781 L 233.796875 174.417969 L 235.328125 174.417969 L 235.328125 174.675781 L 235.070312 174.675781 C 234.898438 174.675781 234.898438 174.761719 235.070312 174.9375 C 235.070312 175.195312 235.582031 176.21875 235.839844 176.726562 C 236.101562 176.21875 236.351562 175.445312 236.351562 175.195312 C 236.351562 174.941406 236.351562 174.9375 236.09375 174.9375 L 235.835938 174.9375 L 235.835938 174.675781 L 237.117188 174.675781 L 237.117188 174.9375 C 236.941406 174.9375 236.773438 175.105469 236.605469 175.445312 C 236.605469 175.445312 236.09375 176.980469 235.582031 178.003906 L 235.324219 178.003906 L 235.324219 177.742188 Z M 235.328125 177.742188 " fill-opacity="1" fill-rule="nonzero"/><path fill="#737373" d="M 237.632812 176.460938 C 237.632812 176.722656 238.144531 177.230469 238.402344 177.230469 C 238.664062 177.230469 238.914062 176.972656 238.914062 176.722656 C 238.914062 176.46875 238.65625 176.210938 238.402344 176.210938 C 237.894531 175.949219 237.632812 175.699219 237.632812 175.1875 C 237.632812 174.675781 238.144531 174.167969 238.914062 174.167969 L 239.6875 174.167969 L 239.6875 174.9375 L 239.425781 174.9375 C 239.425781 174.675781 239.167969 174.167969 238.65625 174.167969 C 238.398438 174.167969 238.144531 174.425781 238.144531 174.675781 C 238.144531 174.929688 238.402344 174.9375 238.65625 175.1875 C 239.167969 175.445312 239.425781 175.699219 239.425781 176.210938 C 239.425781 176.722656 238.914062 177.230469 238.144531 177.230469 L 237.375 177.230469 C 237.375 177.230469 237.375 176.972656 237.632812 176.460938 Z M 237.632812 176.460938 " fill-opacity="1" fill-rule="nonzero"/><path fill="#737373" d="M 231.238281 182.601562 C 231.238281 182.941406 231.328125 183.113281 231.5 183.113281 L 231.5 183.371094 L 229.964844 183.371094 L 229.964844 183.113281 C 230.136719 183.113281 230.222656 182.941406 230.222656 182.601562 L 230.222656 181.066406 C 230.222656 180.726562 230.136719 180.558594 229.964844 180.558594 L 229.964844 180.296875 L 231.5 180.296875 L 231.5 180.558594 C 231.328125 180.558594 231.238281 180.726562 231.238281 181.066406 Z M 231.238281 182.601562 " fill-opacity="1" fill-rule="nonzero"/><path fill="#737373" d="M 233.027344 182.601562 L 233.027344 183.113281 L 233.285156 183.113281 C 233.457031 183.113281 233.628906 183.027344 233.796875 182.851562 C 233.796875 182.851562 234.054688 182.59375 234.054688 182.34375 L 234.3125 182.34375 C 234.3125 182.601562 234.054688 183.113281 234.054688 183.113281 L 231.75 183.113281 L 231.75 182.851562 C 232.011719 182.851562 232.261719 182.851562 232.261719 182.34375 L 232.261719 180.808594 C 232.261719 180.46875 232.175781 180.296875 232.003906 180.296875 L 232.003906 180.039062 L 233.535156 180.039062 L 233.535156 180.296875 C 233.277344 180.296875 233.027344 180.296875 233.027344 180.808594 Z M 233.027344 182.601562 " fill-opacity="1" fill-rule="nonzero"/><path fill="#737373" d="M 235.839844 182.601562 L 235.839844 183.113281 L 236.101562 183.113281 C 236.273438 183.113281 236.441406 183.027344 236.613281 182.851562 C 236.613281 182.851562 236.871094 182.59375 236.871094 182.34375 L 237.128906 182.34375 C 237.128906 182.601562 236.871094 183.113281 236.871094 183.113281 L 234.566406 183.113281 L 234.566406 182.851562 C 234.824219 182.851562 235.078125 182.851562 235.078125 182.34375 L 235.078125 180.808594 C 235.078125 180.46875 234.992188 180.296875 234.820312 180.296875 L 234.820312 180.039062 L 236.351562 180.039062 L 236.351562 180.296875 C 236.09375 180.296875 235.839844 180.296875 235.839844 180.808594 Z M 235.839844 182.601562 " fill-opacity="1" fill-rule="nonzero"/><path fill="#737373" d="M 238.144531 183.371094 C 237.886719 182.601562 237.375 181.328125 237.121094 180.816406 C 236.949219 180.476562 236.78125 180.304688 236.613281 180.304688 L 236.613281 180.046875 L 238.144531 180.046875 L 238.144531 180.304688 L 237.886719 180.304688 C 237.714844 180.304688 237.714844 180.390625 237.886719 180.5625 C 237.886719 180.824219 238.398438 181.84375 238.65625 182.355469 C 238.914062 181.84375 239.167969 181.074219 239.167969 180.824219 C 239.167969 180.570312 239.167969 180.5625 238.910156 180.5625 L 238.648438 180.5625 L 238.648438 180.304688 L 239.929688 180.304688 L 239.929688 180.5625 C 239.757812 180.5625 239.585938 180.734375 239.417969 181.074219 C 239.417969 181.074219 238.910156 182.609375 238.398438 183.628906 L 238.136719 183.628906 L 238.136719 183.371094 Z M 238.144531 183.371094 " fill-opacity="1" fill-rule="nonzero"/><path fill="#737373" d="M 250.679688 168.539062 C 250.421875 168.796875 250.167969 168.796875 250.421875 169.308594 L 250.421875 170.839844 C 250.421875 171.183594 250.507812 171.351562 250.679688 171.351562 L 250.679688 171.609375 L 249.148438 171.609375 C 249.320312 171.609375 249.40625 171.441406 249.40625 171.101562 L 249.40625 169.308594 L 248.382812 171.863281 L 248.125 171.863281 L 247.355469 169.558594 L 247.355469 171.351562 C 247.355469 171.523438 247.523438 171.609375 247.867188 171.609375 L 247.867188 171.871094 L 246.582031 171.871094 L 246.582031 171.609375 C 246.757812 171.609375 246.84375 171.523438 246.84375 171.351562 L 246.84375 169.558594 C 246.84375 169.050781 246.84375 168.789062 246.332031 168.789062 L 246.332031 168.53125 L 247.355469 168.53125 L 248.125 170.574219 L 248.894531 168.53125 L 250.6875 168.53125 Z M 250.679688 168.539062 " fill-opacity="1" fill-rule="nonzero"/><path fill="#737373" d="M 252.214844 171.09375 C 252.214844 171.433594 252.300781 171.605469 252.472656 171.605469 L 252.472656 171.863281 L 250.941406 171.863281 L 250.941406 171.605469 C 251.113281 171.605469 251.199219 171.433594 251.199219 171.09375 L 251.199219 169.558594 C 251.199219 169.21875 251.113281 169.050781 250.941406 169.050781 L 250.941406 168.789062 L 252.472656 168.789062 L 252.472656 169.050781 C 252.300781 169.050781 252.214844 169.21875 252.214844 169.558594 Z M 252.214844 171.09375 " fill-opacity="1" fill-rule="nonzero"/><path fill="#737373" d="M 255.800781 171.863281 L 255.289062 171.863281 L 253.496094 169.558594 L 253.496094 171.351562 C 253.496094 171.609375 253.753906 171.609375 254.007812 171.609375 L 254.007812 171.871094 L 252.726562 171.871094 L 252.726562 171.609375 C 252.898438 171.609375 252.984375 171.523438 252.984375 171.351562 L 252.984375 169.050781 L 252.726562 168.789062 L 252.726562 168.53125 L 253.746094 168.53125 L 255.28125 170.574219 L 255.28125 168.78125 C 255.28125 168.523438 255.023438 168.523438 254.769531 168.523438 L 254.769531 168.265625 L 256.050781 168.265625 L 256.050781 168.523438 C 255.878906 168.523438 255.707031 168.609375 255.539062 168.78125 L 255.539062 171.847656 L 255.800781 171.847656 Z M 255.800781 171.863281 " fill-opacity="1" fill-rule="nonzero"/><path fill="#737373" d="M 257.84375 171.605469 C 258.015625 171.605469 258.105469 171.519531 258.105469 171.34375 L 257.84375 170.835938 L 257.074219 170.835938 L 256.816406 171.34375 C 256.816406 171.519531 256.902344 171.605469 257.074219 171.605469 L 257.332031 171.605469 L 257.332031 171.863281 L 256.3125 171.863281 L 256.3125 171.605469 C 256.484375 171.605469 256.652344 171.433594 256.824219 171.09375 L 257.84375 168.539062 L 258.105469 168.539062 L 258.363281 169.558594 C 258.621094 170.070312 258.875 170.839844 258.875 171.09375 C 259.046875 171.433594 259.21875 171.605469 259.386719 171.605469 L 259.386719 171.863281 L 257.851562 171.605469 Z M 257.332031 170.582031 L 257.84375 170.582031 L 257.585938 169.558594 L 257.328125 170.582031 Z M 257.332031 170.582031 " fill-opacity="1" fill-rule="nonzero"/><path fill="#737373" d="M 250.679688 176.722656 C 250.679688 177.0625 250.851562 177.230469 251.191406 177.230469 L 251.191406 177.492188 L 249.398438 177.492188 L 249.398438 177.230469 C 249.738281 177.230469 249.910156 177.0625 249.910156 176.722656 L 249.910156 174.675781 C 249.652344 174.675781 249.398438 174.675781 249.398438 174.9375 C 249.398438 174.9375 249.398438 175.195312 249.140625 175.445312 L 248.878906 175.445312 L 248.878906 174.425781 L 251.949219 174.425781 L 251.949219 175.445312 L 251.6875 175.445312 C 251.6875 175.1875 251.6875 174.9375 251.429688 174.9375 L 250.917969 174.9375 L 250.917969 176.726562 L 250.660156 176.726562 Z M 250.679688 176.722656 " fill-opacity="1" fill-rule="nonzero"/><path fill="#737373" d="M 253.238281 176.722656 C 253.238281 177.0625 253.324219 177.230469 253.496094 177.230469 L 253.496094 177.492188 L 251.960938 177.492188 L 251.960938 177.230469 C 252.136719 177.230469 252.222656 177.0625 252.222656 176.722656 L 252.222656 175.1875 C 252.222656 174.847656 252.136719 174.675781 251.960938 174.675781 L 251.960938 174.417969 L 253.496094 174.417969 L 253.496094 174.675781 C 253.324219 174.675781 253.238281 174.847656 253.238281 175.1875 Z M 253.238281 176.722656 " fill-opacity="1" fill-rule="nonzero"/><path fill="#737373" d="M 257.332031 175.949219 C 257.332031 176.972656 256.5625 177.742188 255.800781 177.742188 C 254.777344 177.742188 254.265625 176.972656 254.265625 176.210938 C 254.265625 175.445312 254.777344 174.417969 256.058594 174.417969 C 256.570312 174.417969 257.339844 174.929688 257.339844 175.949219 Z M 254.777344 175.949219 C 254.777344 176.722656 255.035156 177.484375 255.546875 177.484375 C 256.058594 177.484375 256.316406 176.972656 256.316406 176.203125 C 256.316406 175.179688 256.058594 174.671875 255.546875 174.671875 C 255.289062 174.671875 254.777344 174.929688 254.777344 175.949219 Z M 254.777344 175.949219 " fill-opacity="1" fill-rule="nonzero"/><path fill="#737373" d="M 251.960938 180.296875 C 251.703125 180.558594 251.449219 180.558594 251.703125 181.066406 L 251.703125 182.601562 C 251.703125 182.941406 251.789062 183.113281 251.960938 183.113281 L 251.960938 183.371094 L 250.429688 183.371094 L 250.429688 183.113281 C 250.601562 183.113281 250.6875 182.941406 250.6875 182.601562 L 250.6875 180.808594 L 249.664062 183.363281 L 248.894531 181.0625 L 248.894531 182.851562 C 248.894531 183.027344 249.066406 183.113281 249.40625 183.113281 L 249.40625 183.371094 L 248.125 183.371094 L 248.125 183.113281 C 248.296875 183.113281 248.382812 183.027344 248.382812 182.851562 L 248.382812 181.0625 C 248.382812 180.550781 248.382812 180.292969 247.871094 180.292969 L 247.871094 180.03125 L 248.894531 180.03125 L 249.664062 182.074219 L 250.433594 180.03125 L 251.96875 180.03125 L 251.96875 180.292969 Z M 251.960938 180.296875 " fill-opacity="1" fill-rule="nonzero"/><path fill="#737373" d="M 252.726562 181.066406 C 252.726562 180.726562 252.640625 180.558594 252.464844 180.558594 L 252.464844 180.296875 L 254.769531 180.296875 L 254.769531 181.066406 L 254.511719 181.066406 C 254.511719 180.894531 254.425781 180.726562 254.253906 180.558594 L 253.742188 180.558594 C 253.566406 180.558594 253.480469 180.644531 253.480469 180.816406 L 253.480469 181.839844 L 253.742188 181.839844 C 254.082031 181.839844 254.253906 181.667969 254.253906 181.328125 L 254.511719 181.328125 L 254.511719 182.347656 L 254.253906 182.347656 C 254.253906 182.007812 254.082031 181.839844 253.742188 181.839844 L 253.480469 181.839844 L 253.480469 183.117188 L 253.742188 183.117188 C 254 183.117188 254.253906 183.117188 254.253906 182.859375 C 254.253906 182.859375 254.511719 182.601562 254.511719 182.347656 L 254.769531 182.347656 C 254.769531 182.609375 254.769531 183.117188 254.511719 183.117188 L 251.957031 183.117188 L 251.957031 182.859375 C 252.214844 182.859375 252.464844 182.859375 252.464844 182.347656 L 252.464844 181.066406 Z M 252.726562 181.066406 " fill-opacity="1" fill-rule="nonzero"/><path fill="#737373" d="M 256.824219 183.113281 C 256.996094 183.113281 257.082031 183.027344 257.082031 182.851562 L 256.824219 182.34375 L 256.050781 182.34375 L 255.792969 182.851562 C 255.792969 183.027344 255.878906 183.113281 256.050781 183.113281 L 256.3125 183.113281 L 256.3125 183.371094 L 255.289062 183.371094 L 255.289062 183.113281 C 255.460938 183.113281 255.632812 182.941406 255.800781 182.601562 L 256.824219 180.046875 L 257.082031 180.046875 L 257.339844 181.066406 C 257.597656 181.578125 257.851562 182.347656 257.851562 182.601562 C 258.023438 182.941406 258.195312 183.113281 258.363281 183.113281 L 258.363281 183.371094 L 256.828125 183.113281 Z M 256.050781 182.089844 L 256.5625 182.089844 L 256.304688 181.066406 L 256.046875 182.089844 Z M 256.050781 182.089844 " fill-opacity="1" fill-rule="nonzero"/><path fill="#737373" d="M 239.679688 222.492188 C 239.679688 223.265625 239.167969 223.773438 238.398438 223.773438 C 237.625 223.773438 237.117188 223.265625 237.117188 222.492188 C 237.117188 221.722656 237.625 221.214844 238.398438 221.214844 C 239.167969 221.214844 239.679688 221.722656 239.679688 222.492188 Z M 239.679688 222.492188 " fill-opacity="1" fill-rule="nonzero"/><path fill="#737373" d="M 252.726562 224.539062 C 252.726562 225.308594 252.214844 225.820312 251.445312 225.820312 C 250.671875 225.820312 250.164062 225.308594 250.164062 224.539062 C 250.164062 223.769531 250.671875 223.257812 251.445312 223.257812 C 251.957031 223.257812 252.726562 223.769531 252.726562 224.539062 Z M 252.726562 224.539062 " fill-opacity="1" fill-rule="nonzero"/><path fill="#737373" d="M 245.308594 132.738281 C 245.308594 133.511719 244.796875 134.019531 244.027344 134.019531 C 243.257812 134.019531 242.746094 133.511719 242.746094 132.738281 C 242.746094 131.96875 243.257812 131.460938 244.027344 131.460938 C 244.796875 131.460938 245.308594 132.230469 245.308594 132.738281 Z M 245.308594 132.738281 " fill-opacity="1" fill-rule="nonzero"/><path fill="#737373" d="M 275.492188 144.753906 C 275.492188 145.523438 274.980469 146.03125 274.210938 146.03125 C 273.441406 146.03125 272.929688 145.523438 272.929688 144.753906 C 272.929688 143.980469 273.441406 143.472656 274.210938 143.472656 C 274.980469 143.472656 275.492188 143.980469 275.492188 144.753906 Z M 275.492188 144.753906 " fill-opacity="1" fill-rule="nonzero"/><path fill="#737373" d="M 211.792969 199.21875 C 212.304688 199.988281 212.5625 200.753906 212.5625 201.523438 C 212.5625 202.292969 212.304688 203.054688 210.769531 204.335938 L 206.160156 207.402344 L 205.390625 206.121094 C 205.390625 206.121094 210 202.796875 210.25 202.796875 C 211.023438 202.285156 211.535156 201.773438 211.535156 201.261719 C 211.535156 200.753906 211.273438 200.492188 211.023438 199.980469 C 210.511719 199.210938 210 199.210938 209.488281 199.210938 C 208.976562 199.210938 208.464844 199.472656 207.695312 200.234375 L 203.347656 203.046875 L 202.578125 201.765625 L 206.667969 198.953125 C 207.6875 198.183594 208.710938 197.671875 209.480469 197.671875 C 210.503906 197.671875 211.273438 198.441406 211.785156 199.203125 Z M 211.792969 199.21875 " fill-opacity="1" fill-rule="nonzero"/><path fill="#737373" d="M 197.210938 190.273438 L 205.910156 187.199219 L 206.421875 188.480469 L 201.308594 194.621094 L 207.703125 192.066406 L 208.214844 193.339844 L 199.515625 196.664062 L 199.003906 195.382812 L 204.125 189.25 L 197.722656 191.546875 Z M 197.210938 190.273438 " fill-opacity="1" fill-rule="nonzero"/><path fill="#737373" d="M 196.019531 183.207031 L 205.128906 181.855469 L 205.355469 183.371094 L 196.246094 184.722656 Z M 196.019531 183.207031 " fill-opacity="1" fill-rule="nonzero"/><path fill="#737373" d="M 195.679688 172.375 L 195.679688 170.839844 L 204.886719 174.417969 L 204.636719 175.949219 L 195.425781 178.765625 L 195.425781 177.230469 L 202.84375 175.1875 Z M 195.679688 172.375 " fill-opacity="1" fill-rule="nonzero"/><path fill="#737373" d="M 203.863281 151.660156 C 202.582031 151.660156 202.070312 152.429688 201.050781 153.964844 L 200.027344 156.007812 L 208.214844 160.355469 L 208.984375 159.074219 L 205.65625 157.28125 L 205.917969 157.023438 C 206.429688 156 206.6875 155.742188 208.222656 156 L 210.777344 156.261719 L 211.546875 154.980469 L 208.480469 154.71875 L 206.945312 154.71875 C 206.773438 154.71875 206.601562 154.804688 206.433594 154.980469 L 206.433594 153.699219 C 206.175781 153.1875 205.925781 152.675781 205.414062 152.417969 C 204.902344 151.648438 204.390625 151.648438 203.878906 151.648438 Z M 202.332031 154.476562 C 202.84375 153.453125 203.355469 153.195312 203.863281 153.195312 C 204.125 153.195312 204.375 153.195312 204.636719 153.453125 C 204.894531 153.710938 205.148438 153.964844 205.40625 154.222656 L 205.40625 154.734375 C 205.40625 155.246094 205.148438 155.757812 204.894531 156.527344 L 204.636719 156.785156 L 202.078125 155.503906 L 202.339844 154.480469 Z M 202.332031 154.476562 " fill-opacity="1" fill-rule="nonzero"/><path fill="#737373" d="M 213.875 138.625 L 215.09375 137.699219 L 220.664062 145.03125 L 219.441406 145.957031 Z M 213.875 138.625 " fill-opacity="1" fill-rule="nonzero"/><path fill="#737373" d="M 219.214844 135.035156 L 225.097656 131.96875 L 225.609375 132.992188 L 223.304688 134.273438 L 227.144531 141.175781 L 225.609375 141.945312 L 222.03125 134.785156 L 219.726562 136.058594 Z M 219.214844 135.035156 " fill-opacity="1" fill-rule="nonzero"/><path fill="#737373" d="M 234.054688 129.15625 L 235.589844 128.644531 L 234.308594 134.785156 L 235.328125 138.359375 L 234.054688 138.621094 L 233.027344 135.296875 L 228.675781 130.6875 L 230.21875 130.179688 L 233.285156 133.503906 Z M 234.054688 129.15625 " fill-opacity="1" fill-rule="nonzero"/><path fill="#737373" d="M 262.195312 141.6875 L 266.792969 133.761719 L 271.402344 136.316406 L 270.632812 137.339844 L 267.566406 135.546875 L 266.285156 137.851562 L 269.097656 139.640625 L 268.585938 140.664062 L 265.519531 138.871094 L 263.476562 142.457031 Z M 262.195312 141.6875 " fill-opacity="1" fill-rule="nonzero"/><path fill="#737373" d="M 285.984375 162.148438 L 289.308594 158.3125 L 289.820312 159.84375 L 287.265625 162.65625 L 291.101562 163.421875 L 291.613281 164.953125 L 286.496094 163.933594 L 282.914062 168.027344 L 282.40625 166.492188 L 284.960938 163.421875 L 280.871094 162.398438 L 280.359375 160.867188 Z M 285.984375 162.148438 " fill-opacity="1" fill-rule="nonzero"/><path fill="#737373" d="M 283.425781 171.351562 L 292.636719 170.582031 L 292.894531 175.699219 L 291.613281 175.699219 L 291.355469 172.113281 L 288.796875 172.375 L 289.058594 175.699219 L 287.777344 175.949219 L 287.515625 172.375 L 283.425781 172.886719 Z M 283.425781 171.351562 " fill-opacity="1" fill-rule="nonzero"/><path fill="#737373" d="M 287.265625 179.535156 C 286.242188 179.535156 285.21875 179.792969 284.449219 180.304688 C 283.167969 181.328125 282.914062 182.859375 282.914062 183.628906 C 282.914062 186.695312 285.730469 187.976562 288.035156 187.976562 C 289.058594 187.976562 290.078125 187.71875 290.851562 187.207031 C 292.382812 186.183594 292.382812 184.394531 292.382812 183.882812 C 292.382812 181.066406 290.078125 179.535156 287.265625 179.535156 Z M 288.035156 186.695312 C 286.242188 186.695312 284.199219 185.675781 284.199219 183.882812 C 284.199219 183.113281 284.457031 182.347656 285.21875 181.839844 C 285.730469 181.328125 286.5 181.328125 287.265625 181.328125 C 288.289062 181.328125 289.820312 181.585938 290.589844 182.859375 C 290.851562 183.371094 291.101562 183.628906 291.101562 184.140625 C 291.101562 184.910156 290.84375 185.675781 290.078125 186.183594 C 289.570312 186.445312 288.796875 186.695312 288.035156 186.695312 Z M 288.035156 186.695312 " fill-opacity="1" fill-rule="nonzero"/><path fill="#737373" d="M 281.894531 148.847656 C 280.871094 148.847656 279.847656 149.105469 279.078125 149.867188 C 277.285156 150.890625 276.773438 152.683594 276.773438 153.703125 C 276.773438 154.476562 277.03125 155.238281 277.542969 156.007812 C 278.566406 157.542969 280.101562 158.050781 281.121094 158.050781 C 282.144531 158.050781 283.167969 157.792969 283.9375 157.03125 C 284.960938 156.261719 286.242188 154.984375 286.242188 153.195312 C 286.242188 152.425781 285.984375 151.660156 285.472656 150.890625 C 284.703125 149.609375 283.425781 148.847656 281.894531 148.847656 Z M 280.613281 156.261719 C 279.839844 156.261719 279.078125 156 278.566406 154.980469 C 278.308594 154.46875 278.054688 154.210938 278.054688 153.699219 C 278.054688 152.675781 278.824219 151.652344 279.847656 150.882812 C 280.617188 150.375 281.382812 150.113281 282.152344 150.113281 C 282.921875 150.113281 283.6875 150.625 284.199219 151.394531 C 284.457031 151.90625 284.707031 152.417969 284.707031 152.929688 C 284.707031 153.949219 283.9375 154.972656 282.914062 155.742188 C 282.144531 156 281.382812 156.253906 280.613281 156.253906 Z M 280.613281 156.261719 " fill-opacity="1" fill-rule="nonzero"/><path fill="#737373" d="M 256.824219 129.925781 C 254.777344 129.925781 253.242188 131.207031 252.472656 133.503906 C 252.214844 134.015625 252.214844 134.523438 252.214844 135.035156 C 252.214844 136.058594 252.472656 136.570312 252.726562 137.339844 C 253.496094 138.871094 255.03125 139.382812 256.304688 139.382812 C 257.074219 139.382812 257.585938 139.125 258.097656 138.871094 C 259.628906 138.101562 260.652344 136.058594 260.652344 134.265625 C 260.652344 133.496094 260.394531 132.734375 260.140625 131.964844 C 259.628906 130.429688 258.347656 129.917969 256.816406 129.917969 Z M 256.3125 138.109375 C 255.539062 138.109375 254.777344 137.851562 254.265625 136.828125 C 254.007812 136.316406 254.007812 135.804688 254.007812 135.296875 C 254.007812 133.761719 255.03125 131.207031 257.074219 131.207031 C 258.097656 131.207031 259.628906 131.976562 259.628906 134.019531 C 259.371094 135.300781 258.609375 138.109375 256.304688 138.109375 Z M 256.3125 138.109375 " fill-opacity="1" fill-rule="nonzero"/><path fill="#737373" d="M 205.65625 163.421875 L 206.933594 163.679688 L 205.398438 168.789062 L 196.449219 166.234375 L 197.984375 161.117188 L 199.257812 161.378906 L 198.234375 165.214844 L 200.539062 165.976562 L 201.5625 162.398438 L 202.84375 162.910156 L 201.820312 166.234375 L 204.636719 167.003906 Z M 205.65625 163.421875 " fill-opacity="1" fill-rule="nonzero"/><path fill="#737373" d="M 207.960938 143.988281 C 209.242188 142.457031 210.519531 142.707031 210.519531 142.707031 L 210.777344 143.988281 C 210.777344 143.988281 209.753906 143.988281 208.984375 145.011719 C 208.726562 145.523438 208.472656 145.78125 208.472656 146.292969 C 208.472656 146.550781 208.472656 146.804688 208.730469 147.0625 C 209.503906 147.574219 210.523438 147.0625 211.035156 146.804688 C 211.546875 146.542969 212.316406 146.292969 213.082031 146.292969 C 213.59375 146.292969 214.105469 146.550781 214.613281 146.804688 C 215.125 147.3125 215.636719 148.085938 215.636719 148.847656 C 215.636719 149.609375 215.378906 150.378906 214.613281 150.890625 C 213.332031 152.171875 211.800781 152.425781 211.800781 152.425781 L 211.539062 151.144531 C 212.5625 150.882812 213.074219 150.632812 213.585938 150.121094 C 213.84375 149.863281 214.097656 149.351562 214.097656 148.839844 C 214.097656 148.582031 213.835938 148.070312 213.585938 147.816406 C 213.328125 147.558594 213.074219 147.558594 212.816406 147.558594 C 212.304688 147.558594 211.535156 147.816406 211.023438 148.070312 C 210 148.582031 208.71875 148.839844 207.695312 148.070312 C 207.183594 147.558594 206.925781 147.046875 206.925781 146.277344 C 207.183594 145.507812 207.4375 144.746094 207.949219 143.976562 Z M 207.960938 143.988281 " fill-opacity="1" fill-rule="nonzero"/><path fill="#737373" d="M 280.871094 191.546875 L 284.449219 193.078125 L 284.191406 193.589844 C 283.679688 194.613281 283.421875 194.871094 282.144531 194.871094 L 279.589844 194.871094 L 279.078125 196.40625 L 282.144531 196.40625 C 282.65625 196.40625 283.167969 196.40625 283.679688 196.144531 C 283.679688 196.144531 283.9375 196.144531 284.191406 195.886719 L 284.191406 196.144531 C 284.191406 196.40625 284.191406 196.917969 284.449219 197.167969 C 284.960938 198.191406 285.984375 198.699219 286.753906 198.699219 C 288.289062 198.699219 288.796875 197.929688 289.570312 196.144531 L 290.339844 194.101562 L 281.898438 190.265625 L 280.878906 191.546875 Z M 286.242188 196.917969 C 285.730469 196.917969 285.21875 196.65625 284.960938 195.894531 L 284.960938 195.382812 C 284.960938 194.871094 285.21875 194.359375 285.472656 193.851562 L 285.730469 193.589844 L 288.285156 194.871094 L 288.027344 195.640625 C 287.257812 196.664062 287.003906 196.921875 286.234375 196.921875 Z M 286.242188 196.917969 " fill-opacity="1" fill-rule="nonzero"/><path fill="#737373" d="M 276.011719 200.25 C 274.988281 201.527344 274.21875 202.550781 274.21875 203.824219 C 274.21875 205.097656 274.730469 206.378906 276.011719 207.402344 C 277.03125 208.171875 277.804688 208.425781 279.078125 208.425781 C 280.351562 208.425781 281.382812 207.914062 282.914062 206.121094 L 284.449219 204.328125 L 277.285156 198.449219 L 276.003906 200.242188 Z M 279.335938 207.148438 C 278.566406 207.148438 277.804688 206.890625 277.292969 206.378906 C 276.523438 205.867188 275.757812 204.847656 275.757812 203.824219 C 275.757812 203.054688 276.269531 202.292969 276.78125 201.523438 L 277.292969 200.753906 L 282.664062 204.839844 L 282.152344 205.351562 C 281.128906 206.371094 280.617188 207.144531 279.335938 207.144531 Z M 279.335938 207.148438 " fill-opacity="1" fill-rule="nonzero"/><path fill="#737373" d="M 296.984375 176.972656 C 296.984375 147.824219 273.195312 124.296875 244.027344 124.296875 C 214.859375 124.296875 191.070312 148.078125 191.070312 176.972656 C 191.070312 194.359375 199.769531 210.726562 214.097656 220.703125 C 215.628906 226.070312 220.238281 229.90625 226.121094 229.90625 C 227.65625 229.90625 229.1875 229.648438 230.730469 229.136719 C 232.773438 229.648438 234.566406 230.417969 236.613281 230.671875 C 236.101562 232.203125 235.328125 233.734375 234.566406 235.015625 L 235.589844 236.039062 C 235.847656 235.78125 236.101562 235.78125 236.613281 235.78125 C 237.632812 235.78125 238.65625 236.550781 238.65625 237.824219 C 238.65625 238.847656 237.886719 239.867188 236.613281 239.867188 C 235.589844 239.867188 234.820312 239.355469 234.308594 238.585938 C 234.308594 238.585938 234.046875 239.355469 234.046875 240.632812 C 234.046875 244.46875 238.136719 248.8125 244.027344 250.605469 C 249.65625 248.8125 254.007812 244.46875 254.007812 240.632812 C 254.007812 239.351562 253.746094 238.585938 253.746094 238.585938 C 253.238281 239.097656 252.464844 239.867188 251.445312 239.867188 C 250.421875 239.867188 249.398438 239.097656 249.398438 237.824219 C 249.398438 236.800781 250.167969 235.78125 251.445312 235.78125 C 251.703125 235.78125 252.214844 235.78125 252.464844 236.039062 L 253.488281 235.015625 C 252.976562 233.484375 252.464844 232.203125 252.207031 230.929688 C 261.675781 229.648438 269.863281 225.558594 276.253906 218.910156 C 289.300781 208.933594 296.976562 193.597656 296.976562 176.972656 Z M 226.378906 228.113281 C 220.496094 228.113281 215.378906 223.257812 215.378906 217.117188 C 215.378906 215.324219 215.890625 213.542969 216.660156 212 C 217.171875 212.511719 217.941406 213.023438 218.453125 213.535156 C 217.941406 214.554688 217.683594 215.835938 217.683594 217.109375 C 217.683594 220.4375 219.214844 222.992188 222.542969 225.035156 C 224.335938 226.058594 226.378906 227.078125 228.425781 227.847656 C 227.65625 228.109375 227.144531 228.109375 226.378906 228.109375 Z M 244.035156 212.261719 C 241.730469 212.261719 239.425781 212 237.382812 211.75 C 235.335938 207.660156 230.988281 204.847656 226.378906 204.847656 C 225.359375 204.847656 224.074219 205.105469 223.054688 205.359375 C 214.097656 198.707031 208.726562 187.96875 208.726562 176.972656 C 208.726562 157.542969 224.585938 141.425781 244.285156 141.425781 C 263.988281 141.425781 279.847656 157.28125 279.847656 176.972656 C 279.589844 196.40625 263.734375 212.261719 244.035156 212.261719 Z M 251.960938 213.03125 C 250.941406 214.5625 250.167969 216.605469 250.167969 218.910156 C 246.84375 218.140625 243.777344 216.867188 241.210938 215.585938 C 241.722656 214.5625 243.257812 213.792969 244.28125 213.792969 C 246.835938 213.792969 249.398438 213.535156 251.957031 213.023438 Z M 240.707031 213.800781 C 240.195312 214.058594 239.9375 214.570312 239.6875 215.082031 C 238.402344 214.3125 236.617188 213.546875 235.597656 213.035156 C 237.128906 213.035156 239.175781 213.546875 240.714844 213.808594 Z M 226.378906 206.386719 C 229.957031 206.386719 233.542969 208.179688 235.335938 211.246094 C 233.542969 210.734375 231.757812 210.222656 230.21875 209.453125 C 228.9375 208.941406 227.660156 208.683594 226.378906 208.683594 C 223.566406 208.683594 221.007812 210.214844 219.214844 212.261719 C 218.445312 212 217.933594 211.488281 217.171875 210.980469 C 219.476562 208.164062 222.542969 206.375 226.378906 206.375 Z M 251.449219 234.261719 C 249.40625 234.261719 247.871094 235.542969 247.871094 237.839844 C 247.871094 239.882812 249.40625 241.414062 251.449219 241.414062 L 252.222656 241.414062 C 251.710938 244.230469 248.382812 247.554688 244.035156 249.085938 C 239.6875 247.554688 236.359375 244.230469 235.847656 241.414062 L 236.617188 241.414062 C 238.664062 241.414062 240.195312 239.882812 240.195312 237.839844 C 240.195312 235.792969 238.664062 234.511719 236.617188 234.261719 C 237.128906 233.238281 237.898438 231.957031 238.152344 230.683594 C 240.457031 231.195312 243.011719 231.453125 245.316406 231.453125 C 247.109375 231.453125 248.894531 231.453125 250.6875 231.195312 C 250.945312 232.21875 251.199219 233.238281 251.457031 234.261719 Z M 245.308594 229.914062 C 238.144531 229.914062 229.445312 227.609375 223.304688 224.035156 C 221.511719 223.011719 219.214844 220.96875 219.214844 217.382812 C 219.214844 216.363281 219.476562 215.59375 219.726562 214.828125 C 222.03125 216.621094 224.335938 218.40625 225.867188 219.175781 C 226.128906 219.433594 226.378906 219.433594 226.890625 219.433594 C 227.914062 219.433594 228.683594 218.664062 228.683594 217.644531 C 228.683594 216.875 228.171875 216.363281 227.660156 216.109375 C 226.378906 215.597656 223.824219 214.578125 221.007812 213.042969 C 222.289062 211.253906 224.335938 210.230469 226.640625 210.230469 C 227.660156 210.230469 228.683594 210.488281 229.707031 211 L 231.75 212.023438 C 237.894531 215.859375 253.753906 225.574219 272.9375 220.203125 C 265.519531 226.597656 256.5625 229.921875 245.308594 229.921875 Z M 275.242188 217.894531 C 266.542969 220.960938 258.613281 220.710938 251.703125 219.175781 C 251.960938 216.109375 253.238281 212.785156 255.03125 212.273438 C 270.121094 207.667969 281.121094 193.605469 281.121094 176.988281 C 281.121094 156.53125 264.496094 140.167969 244.027344 140.167969 C 223.558594 140.167969 206.933594 156.785156 206.933594 176.988281 C 206.933594 188.234375 212.304688 198.980469 221.261719 206.136719 C 219.214844 207.15625 217.421875 208.691406 216.140625 210.480469 C 215.371094 209.972656 214.859375 209.460938 214.097656 208.949219 L 213.835938 209.207031 C 214.347656 209.71875 214.859375 210.230469 215.628906 211 C 214.609375 212.792969 213.835938 215.089844 213.835938 217.390625 L 213.835938 218.414062 C 200.53125 208.695312 192.605469 193.351562 192.605469 176.988281 C 192.605469 148.601562 215.628906 125.585938 244.027344 125.585938 C 272.425781 125.585938 295.453125 148.601562 295.453125 176.988281 C 295.453125 193.09375 288.035156 207.925781 275.242188 217.902344 Z M 275.242188 217.894531 " fill-opacity="1" fill-rule="nonzero"/><path fill="#737373" d="M 363.242188 206.890625 C 363.242188 220.953125 352.238281 231.179688 338.679688 231.179688 C 325.125 231.179688 314.121094 220.695312 314.121094 207.402344 C 314.121094 193.339844 325.125 183.113281 338.679688 183.113281 C 352.238281 183.113281 363.242188 193.597656 363.242188 206.890625 Z M 355.3125 207.402344 C 355.3125 194.613281 349.171875 185.667969 338.6875 185.667969 C 327.175781 185.667969 322.0625 196.40625 322.0625 207.402344 C 322.0625 220.191406 328.203125 229.136719 338.6875 229.136719 C 350.203125 229.136719 355.3125 218.398438 355.3125 207.402344 Z M 355.3125 207.402344 " fill-opacity="1" fill-rule="nonzero"/><path fill="#737373" d="M 513.15625 206.890625 C 513.15625 220.953125 502.152344 231.179688 488.597656 231.179688 C 475.039062 231.179688 464.035156 220.695312 464.035156 207.402344 C 464.035156 193.339844 475.039062 183.113281 488.597656 183.113281 C 502.152344 183.113281 513.15625 193.597656 513.15625 206.890625 Z M 505.226562 207.402344 C 505.226562 194.613281 499.085938 185.667969 488.601562 185.667969 C 477.089844 185.667969 471.976562 196.40625 471.976562 207.402344 C 471.976562 220.191406 478.121094 229.136719 488.601562 229.136719 C 499.855469 229.136719 505.226562 218.398438 505.226562 207.402344 Z M 505.226562 207.402344 " fill-opacity="1" fill-rule="nonzero"/><path fill="#737373" d="M 532.085938 207.402344 L 537.96875 207.402344 C 546.925781 207.402344 548.710938 201.773438 548.710938 196.40625 C 548.710938 192.316406 546.917969 188.734375 542.828125 186.6875 C 540.523438 185.667969 538.480469 185.667969 535.664062 185.667969 L 532.085938 185.667969 Z M 542.828125 215.074219 C 540.011719 211.238281 538.992188 209.703125 535.664062 209.703125 L 532.085938 209.703125 L 532.085938 225.558594 C 532.085938 226.839844 532.597656 227.605469 534.128906 227.863281 L 539.5 229.144531 L 539.5 230.9375 L 518.269531 230.9375 L 518.269531 229.144531 L 523.128906 227.863281 C 524.660156 227.351562 525.171875 226.839844 525.171875 225.558594 L 525.171875 188.992188 C 525.171875 187.710938 524.660156 187.199219 523.128906 186.6875 L 518.269531 185.40625 L 518.269531 183.617188 L 538.730469 183.617188 C 543.078125 183.617188 545.894531 184.128906 548.453125 184.898438 C 553.570312 186.941406 556.378906 191.546875 556.378906 196.144531 C 556.378906 201.773438 552.03125 206.632812 544.867188 208.417969 L 544.867188 208.675781 C 546.398438 209.445312 547.167969 210.210938 552.03125 216.859375 L 558.421875 225.292969 C 559.445312 226.574219 560.46875 227.339844 562.003906 227.597656 L 566.609375 228.617188 L 566.609375 230.410156 L 555.355469 230.410156 C 554.074219 230.410156 553.3125 229.898438 552.289062 228.367188 L 542.820312 215.066406 Z M 542.828125 215.074219 " fill-opacity="1" fill-rule="nonzero"/><path fill="#737373" d="M 451.25 199.988281 L 453.292969 199.988281 L 453.292969 215.585938 L 451.25 215.585938 L 449.96875 210.980469 C 449.457031 209.1875 448.433594 208.675781 446.898438 208.675781 L 435.644531 208.675781 L 435.644531 225.8125 C 435.644531 227.09375 436.15625 227.855469 437.691406 228.113281 L 443.0625 229.394531 L 443.0625 231.1875 L 422.085938 231.1875 L 422.085938 229.394531 L 426.949219 228.113281 C 428.480469 227.605469 428.992188 227.09375 428.992188 225.8125 L 428.992188 189.242188 C 428.992188 187.964844 428.480469 187.453125 426.949219 186.941406 L 422.085938 185.660156 L 422.085938 183.867188 L 457.390625 183.867188 L 457.390625 195.628906 L 455.34375 195.628906 L 453.042969 188.726562 C 452.53125 186.933594 451.761719 186.171875 450.226562 186.171875 L 435.644531 186.171875 L 435.644531 206.375 L 446.898438 206.375 C 448.433594 206.375 449.457031 205.863281 449.96875 204.070312 L 451.25 199.980469 Z M 451.25 199.988281 " fill-opacity="1" fill-rule="nonzero"/><path fill="#737373" d="M 570.460938 230.675781 L 570.460938 228.886719 L 575.320312 227.605469 C 576.855469 227.09375 577.367188 226.582031 577.367188 225.300781 L 577.367188 188.734375 C 577.367188 187.453125 576.855469 186.941406 575.320312 186.429688 L 570.460938 185.148438 L 570.460938 183.355469 L 592.464844 183.355469 C 598.347656 183.355469 602.695312 184.128906 606.28125 185.660156 C 615.238281 189.75 619.078125 198.449219 619.078125 206.882812 C 619.078125 215.320312 616.011719 222.992188 608.074219 227.085938 C 604.496094 229.128906 599.378906 229.898438 592.726562 229.898438 L 570.46875 229.898438 L 570.46875 230.671875 Z M 584.277344 186.183594 L 584.277344 226.328125 C 584.277344 228.121094 584.789062 228.375 586.324219 228.375 L 591.953125 228.375 C 597.324219 228.375 601.421875 227.605469 604.230469 225.558594 C 609.089844 221.984375 611.136719 215.585938 611.136719 207.660156 C 611.136719 199.738281 608.832031 192.066406 602.4375 188.230469 C 599.621094 186.695312 596.296875 186.183594 590.671875 186.183594 Z M 584.277344 186.183594 " fill-opacity="1" fill-rule="nonzero"/><path fill="#737373" d="M 381.40625 228.886719 L 381.40625 230.675781 L 365.035156 230.675781 L 365.035156 228.886719 L 369.125 227.863281 C 370.65625 227.351562 371.679688 226.839844 372.703125 225.820312 L 387.03125 207.921875 L 372.703125 189 C 371.679688 187.71875 370.65625 186.953125 369.125 186.695312 L 365.285156 185.675781 L 365.285156 183.882812 L 385.75 183.882812 L 385.75 185.675781 L 381.398438 186.695312 C 379.867188 186.953125 380.117188 187.71875 380.890625 188.738281 L 391.378906 203.824219 L 391.636719 203.824219 L 402.382812 188.738281 C 403.152344 187.71875 403.402344 187.207031 401.871094 186.949219 L 397.78125 185.925781 L 397.78125 184.132812 L 414.152344 184.132812 L 414.152344 185.925781 L 410.0625 186.949219 C 408.53125 187.460938 407.507812 187.96875 406.484375 188.992188 L 392.925781 206.128906 L 408.019531 226.070312 C 409.042969 227.351562 410.0625 228.113281 411.597656 228.375 L 415.433594 229.394531 L 415.433594 231.1875 L 394.972656 231.1875 L 394.972656 229.394531 L 399.320312 228.375 C 400.855469 228.113281 400.601562 227.605469 399.832031 226.582031 L 388.320312 210.476562 L 388.058594 210.476562 L 376.546875 226.328125 C 375.777344 227.351562 375.523438 227.863281 377.058594 228.121094 L 381.40625 228.890625 Z M 381.40625 228.886719 " fill-opacity="1" fill-rule="nonzero"/><path fill="#737373" d="M 332.289062 161.886719 C 331.007812 163.167969 328.960938 163.933594 326.40625 163.933594 C 324.101562 163.933594 321.796875 163.160156 320.261719 161.628906 C 318.21875 159.585938 318.21875 157.023438 318.21875 154.214844 L 318.21875 141.175781 L 320.773438 141.175781 L 320.773438 155.238281 C 320.773438 157.03125 320.773438 158.816406 322.054688 160.097656 C 323.078125 161.117188 324.359375 161.628906 326.144531 161.628906 C 327.679688 161.628906 329.214844 161.117188 329.984375 160.347656 C 331.515625 158.816406 331.515625 157.28125 331.515625 153.1875 L 331.515625 141.425781 L 334.074219 141.425781 L 334.074219 152.425781 C 334.332031 156.769531 334.585938 159.835938 332.28125 161.886719 Z M 332.289062 161.886719 " fill-opacity="1" fill-rule="nonzero"/><path fill="#737373" d="M 355.824219 163.679688 L 345.082031 145.523438 L 345.335938 163.679688 L 342.777344 163.679688 L 342.777344 141.433594 L 345.59375 141.433594 L 356.335938 159.84375 L 356.078125 141.433594 L 358.640625 141.433594 L 358.640625 163.679688 Z M 355.824219 163.679688 " fill-opacity="1" fill-rule="nonzero"/><path fill="#737373" d="M 367.847656 141.433594 L 370.40625 141.433594 L 370.40625 163.679688 L 367.847656 163.679688 Z M 367.847656 141.433594 " fill-opacity="1" fill-rule="nonzero"/><path fill="#737373" d="M 387.039062 163.679688 L 383.964844 163.679688 L 376.289062 141.433594 L 379.101562 141.433594 L 385.757812 161.117188 L 392.410156 141.433594 L 394.964844 141.433594 Z M 387.039062 163.679688 " fill-opacity="1" fill-rule="nonzero"/><path fill="#737373" d="M 400.847656 163.679688 L 400.847656 141.433594 L 412.871094 141.433594 L 412.871094 143.730469 L 403.410156 143.730469 L 403.410156 151.148438 L 412.359375 151.148438 L 412.359375 153.195312 L 403.410156 153.195312 L 403.410156 161.378906 L 413.132812 161.378906 L 413.132812 163.679688 Z M 400.847656 163.679688 " fill-opacity="1" fill-rule="nonzero"/><path fill="#737373" d="M 430.015625 144.753906 C 428.734375 143.472656 427.199219 143.472656 425.40625 143.472656 L 422.851562 143.472656 L 422.851562 151.652344 L 423.621094 151.652344 C 425.925781 151.652344 428.230469 151.652344 429.761719 150.121094 C 430.535156 149.351562 430.785156 148.328125 430.785156 147.308594 C 431.042969 146.285156 430.527344 145.261719 430.015625 144.753906 Z M 432.320312 163.671875 L 429.761719 158.046875 C 428.230469 154.46875 427.460938 154.210938 424.132812 154.210938 L 422.597656 154.210938 L 422.597656 163.925781 L 420.042969 163.925781 L 420.042969 141.679688 L 424.902344 141.679688 C 427.96875 141.679688 430.023438 141.679688 431.808594 143.472656 C 432.832031 144.492188 433.601562 146.027344 433.601562 147.816406 C 433.601562 149.351562 433.089844 150.632812 432.320312 151.652344 C 431.550781 152.425781 430.273438 153.1875 428.742188 153.445312 C 429.511719 153.445312 430.273438 153.957031 430.535156 154.214844 C 431.042969 154.726562 431.554688 155.75 432.328125 157.28125 L 435.140625 163.933594 L 432.328125 163.933594 L 432.328125 163.671875 Z M 432.320312 163.671875 " fill-opacity="1" fill-rule="nonzero"/><path fill="#737373" d="M 460.96875 141.433594 L 463.523438 141.433594 L 463.523438 163.679688 L 460.96875 163.679688 Z M 460.96875 141.433594 " fill-opacity="1" fill-rule="nonzero"/><path fill="#737373" d="M 478.875 143.730469 L 478.875 163.679688 L 476.320312 163.679688 L 476.320312 143.730469 L 469.667969 143.730469 L 469.667969 141.433594 L 485.527344 141.433594 L 485.527344 143.730469 Z M 478.875 143.730469 " fill-opacity="1" fill-rule="nonzero"/><path fill="#737373" d="M 498.316406 154.984375 L 498.316406 163.679688 L 495.5 163.679688 L 495.5 154.984375 L 488.597656 141.433594 L 491.664062 141.433594 L 497.042969 151.914062 L 502.414062 141.433594 L 505.226562 141.433594 Z M 498.316406 154.984375 " fill-opacity="1" fill-rule="nonzero"/><path fill="#737373" d="M 530.039062 143.476562 C 525.691406 143.476562 522.875 147.054688 522.875 152.683594 C 522.875 158.3125 525.945312 161.886719 530.292969 161.886719 C 534.902344 161.886719 537.457031 158.050781 537.457031 152.425781 C 537.457031 146.796875 534.390625 143.472656 530.039062 143.472656 Z M 530.039062 164.191406 C 524.410156 164.191406 520.0625 159.585938 520.0625 152.683594 C 520.0625 145.78125 524.152344 141.175781 530.292969 141.175781 C 536.433594 141.175781 540.273438 145.78125 540.273438 152.683594 C 540.273438 159.585938 536.183594 164.191406 530.039062 164.191406 Z M 530.039062 164.191406 " fill-opacity="1" fill-rule="nonzero"/><path fill="#737373" d="M 550.25 143.730469 L 550.25 151.148438 L 558.691406 151.148438 L 558.691406 153.195312 L 550.25 153.195312 L 550.25 163.679688 L 547.4375 163.679688 L 547.4375 141.433594 L 559.199219 141.433594 L 559.199219 143.730469 Z M 550.25 143.730469 " fill-opacity="1" fill-rule="nonzero"/><path fill="#737373" d="M 440.5 146.804688 C 440.5 143.476562 443.3125 140.921875 447.152344 140.921875 C 451.242188 140.921875 453.035156 142.96875 453.292969 143.226562 L 452.011719 144.757812 C 451.5 144.25 449.707031 142.96875 447.402344 142.96875 C 444.589844 142.96875 443.054688 144.5 443.054688 146.542969 C 443.054688 147.566406 443.566406 148.335938 444.078125 148.847656 C 444.847656 149.617188 445.871094 150.128906 447.144531 150.640625 C 448.679688 151.410156 450.722656 152.171875 452.003906 153.453125 C 453.027344 154.476562 453.539062 155.757812 453.539062 157.542969 C 453.539062 161.117188 450.984375 163.933594 446.375 163.933594 C 442.535156 163.933594 439.980469 161.886719 439.722656 161.628906 L 441.003906 159.835938 C 441.515625 160.347656 444.070312 161.882812 446.375 161.882812 C 449.699219 161.882812 450.984375 160.089844 450.984375 157.792969 C 450.984375 156.769531 450.472656 156 449.699219 155.238281 C 448.679688 154.214844 447.144531 153.703125 445.609375 152.933594 C 444.078125 152.164062 442.796875 151.652344 441.773438 150.378906 C 441.261719 149.867188 440.492188 148.589844 440.492188 146.804688 Z M 440.5 146.804688 " fill-opacity="1" fill-rule="nonzero"/></svg>