<?xml version="1.0" standalone="no"?>
<!DOCTYPE svg PUBLIC "-//W3C//DTD SVG 20010904//EN"
 "http://www.w3.org/TR/2001/REC-SVG-20010904/DTD/svg10.dtd">
<svg version="1.0" xmlns="http://www.w3.org/2000/svg"
 width="50.000000pt" height="50.000000pt" viewBox="0 0 50.000000 50.000000"
 preserveAspectRatio="xMidYMid meet">

<g transform="translate(0.000000,50.000000) scale(0.100000,-0.100000)"
fill="#000000" stroke="none">
<path d="M142 464 c-85 -42 -132 -121 -132 -219 0 -66 16 -108 60 -159 112
-127 310 -106 397 42 37 62 39 165 6 228 -64 120 -211 168 -331 108z m229 -53
c23 -18 24 -26 27 -153 3 -124 2 -135 -18 -161 -21 -26 -24 -27 -124 -27 -149
0 -146 -4 -146 175 0 143 0 144 26 164 23 18 41 21 119 21 76 0 97 -3 116 -19z"/>
<path d="M152 394 c-21 -14 -22 -22 -22 -148 0 -89 4 -136 12 -144 8 -8 47
-12 110 -12 129 0 131 2 126 170 -3 107 -5 123 -22 136 -28 20 -174 19 -204
-2z m178 -74 c0 -6 -33 -10 -80 -10 -47 0 -80 4 -80 10 0 6 33 10 80 10 47 0
80 -4 80 -10z m0 -70 c0 -6 -33 -10 -80 -10 -47 0 -80 4 -80 10 0 6 33 10 80
10 47 0 80 -4 80 -10z m-50 -70 c0 -5 -25 -10 -56 -10 -34 0 -53 4 -49 10 3 6
28 10 56 10 27 0 49 -4 49 -10z"/>
</g>
</svg>
