<?xml version="1.0" ?>

<!-- Uploaded to: SVG Repo, www.svgrepo.com, Generator: SVG Repo Mixer Tools -->
<svg fill="#000000" width="800px" height="800px" viewBox="0 0 512 512" id="_x30_1" version="1.1" xml:space="preserve" xmlns="http://www.w3.org/2000/svg" xmlns:xlink="http://www.w3.org/1999/xlink">
<defs>
      <style>
        .cls-1 {
          fill: #737373;
        }
      </style>
</defs>
<g>

<path class="cls-1" d="M256,0C114.615,0,0,114.615,0,256s114.615,256,256,256s256-114.615,256-256S397.385,0,256,0z M412,375.438   C412,395.63,395.63,412,375.438,412H136.562C116.37,412,100,395.63,100,375.438V136.562C100,116.37,116.37,100,136.562,100h238.875   C395.63,100,412,116.37,412,136.562V375.438z"/>

<path class="cls-1" d="M351.062,148.75H160.938c-6.731,0-12.188,5.457-12.188,12.188v87.442l16.125-17.534c5.258-5.717,12.67-8.971,20.437-8.971   s15.18,3.253,20.437,8.971l67.062,72.922l33.438-36.359c5.258-5.717,12.67-8.971,20.437-8.971s15.18,3.253,20.437,8.971   l16.125,17.534V160.938C363.25,154.207,357.794,148.75,351.062,148.75z M277.938,246.25c-20.193,0-36.562-16.37-36.562-36.562   s16.37-36.562,36.562-36.562c20.193,0,36.562,16.37,36.562,36.562S298.13,246.25,277.938,246.25z"/>

</g>

</svg>