<svg fill="none" viewBox="0 0 24 24" xmlns="http://www.w3.org/2000/svg"><path clip-rule="evenodd" d="m6 10.5c0 2.4853 2.01472 4.5 4.5 4.5 2.4853 0 4.5-2.0147 4.5-4.5 0-2.48528-2.0147-4.5-4.5-4.5-2.48528 0-4.5 2.01472-4.5 4.5zm-2 0c0 3.5899 2.91015 6.5 6.5 6.5 1.4341 0 2.7597-.4644 3.8346-1.251l3.6048 3.6046c.1953.1952.5119.1952.7071-.0001l.7071-.7071c.1953-.1953.1953-.5118 0-.7071l-3.6048-3.6045c.7867-1.075 1.2512-2.4007 1.2512-3.8348 0-3.58985-2.9101-6.5-6.5-6.5-3.58985 0-6.5 2.91015-6.5 6.5z" fill="rgb(0,0,0)" fill-rule="evenodd"/></svg>