<svg xmlns="http://www.w3.org/2000/svg" id="Layer_1" data-name="Layer 1" viewBox="0 0 300 300" data-locator-target="vscode">
  <defs>
    <style>
      .cls-1 {
        fill: #737373;
      }
    </style>
  </defs>
  <path class="cls-1" d="M150,0C67.14,0,0,67.14,0,150s67.14,150,150,150,150-67.14,150-150C299.87,67.14,232.73,0,150,0Zm-49.56,172.63c0,9.95-8.04,18-18,18s-18-8.04-18-18,8.04-18,18-18h18v18Zm44.99,44.99c0,9.95-8.04,18-18,18s-18-8.04-18-18v-44.99c0-9.95,8.04-18,18-18s18,8.04,18,18v44.99Zm-18-72.12h-45.13c-9.95,0-18-8.04-18-18s8.04-18,18-18h45.13c9.95,0,18,8.04,18,18s-8.04,18-18,18Zm18-45.13h-18c-9.95,0-18-8.04-18-18s8.04-18,18-18,18,8.04,18,18v18Zm54.12,27.13c0-9.95,8.04-18,18-18s18,8.04,18,18-8.04,18-18,18h-18v-18Zm-44.99-45.13c0-9.95,8.04-18,18-18s18,8.04,18,18v45.13c0,9.95-8.04,18-18,18s-18-8.04-18-18v-45.13Zm18,153.24c-9.95,0-18-8.04-18-18v-18h18c9.95,0,18,8.04,18,18s-8.04,18-18,18Zm45.13-44.99h-45.13c-9.95,0-18-8.04-18-18s8.04-18,18-18h45.13c9.95,0,18,8.04,18,18s-8.04,18-18,18Z"/>
</svg>