<!-- icon666.com - MILLIONS vector ICONS FREE --><svg id="Layer_1" enable-background="new 0 0 512 512" viewBox="0 0 512 512" xmlns="http://www.w3.org/2000/svg"><g><path d="m165.112 185.153c12.589 0 24.426-4.903 33.327-13.807l10.426-10.426.002 175.411c0 25.989 21.143 47.134 47.132 47.134 25.99 0 47.135-21.145 47.135-47.134v-175.406l10.422 10.421c8.903 8.905 20.741 13.809 33.333 13.809 12.588 0 24.424-4.902 33.325-13.804 18.378-18.377 18.378-48.28.001-66.657l-90.857-90.858c-8.905-8.923-20.753-13.836-33.358-13.836-12.586 0-24.422 4.901-33.33 13.804l-90.888 90.888c-18.374 18.377-18.374 48.278.001 66.655 8.904 8.903 20.74 13.806 33.329 13.806z"/><path d="m464.867 321.332c-25.99 0-47.134 21.145-47.134 47.134v49.267h-323.466v-49.267c0-25.989-21.144-47.134-47.133-47.134s-47.134 21.145-47.134 47.134v96.4c0 25.989 21.145 47.134 47.134 47.134h417.733c25.989 0 47.133-21.145 47.133-47.134v-96.4c0-25.989-21.144-47.134-47.133-47.134z"/></g></svg>