<svg viewBox="0 0 22 22" fill="none" xmlns="http://www.w3.org/2000/svg">
<path d="M6.77424 8.02138C6.99741 8.02142 7.21142 8.11009 7.3692 8.2679C7.52699 8.42572 7.61563 8.63974 7.61563 8.8629C7.61563 9.08606 7.52699 9.30009 7.3692 9.4579C7.21142 9.61571 6.99741 9.70438 6.77424 9.70442H3.36608C3.14506 9.70442 2.92621 9.74796 2.72201 9.83254C2.51782 9.91712 2.33228 10.0411 2.17599 10.1974C2.01971 10.3537 1.89574 10.5392 1.81116 10.7434C1.72658 10.9476 1.68304 11.1664 1.68304 11.3875V18.1196C1.68304 18.3407 1.72658 18.5595 1.81116 18.7637C1.89574 18.9679 2.01971 19.1534 2.17599 19.3097C2.33228 19.466 2.51782 19.59 2.72201 19.6746C2.92621 19.7591 3.14506 19.8027 3.36608 19.8027H18.5135C18.7345 19.8027 18.9533 19.7591 19.1575 19.6746C19.3617 19.59 19.5473 19.466 19.7036 19.3097C19.8598 19.1534 19.9838 18.9679 20.0684 18.7637C20.153 18.5595 20.1965 18.3407 20.1965 18.1196V11.3875C20.1965 10.9411 20.0192 10.513 19.7036 10.1974C19.3879 9.88174 18.9598 9.70442 18.5135 9.70442H15.075C14.8518 9.70438 14.6378 9.61571 14.4801 9.4579C14.3223 9.30009 14.2336 9.08606 14.2336 8.8629C14.2336 8.63974 14.3223 8.42572 14.4801 8.2679C14.6378 8.11009 14.8518 8.02142 15.075 8.02138H18.5135C19.4062 8.02138 20.2624 8.37602 20.8936 9.00728C21.5249 9.63855 21.8796 10.4947 21.8796 11.3875V18.1196C21.8796 19.0124 21.5249 19.8685 20.8936 20.4998C20.2624 21.1311 19.4062 21.4857 18.5135 21.4857H3.36608C2.92404 21.4857 2.48633 21.3986 2.07794 21.2295C1.66955 21.0603 1.29847 20.8124 0.985903 20.4998C0.673334 20.1872 0.42539 19.8162 0.256228 19.4078C0.0870664 18.9994 0 18.5617 0 18.1196V11.3875C0 10.9454 0.0870664 10.5077 0.256228 10.0993C0.42539 9.69093 0.673334 9.31985 0.985903 9.00728C1.29847 8.69471 1.66955 8.44677 2.07794 8.27761C2.48633 8.10845 2.92404 8.02138 3.36608 8.02138H6.77424ZM10.0983 2.64069L6.64633 6.06232C6.38041 6.32824 5.82164 6.40734 5.55404 6.1431C5.4256 6.00034 5.35453 5.81509 5.35453 5.62304C5.35453 5.431 5.4256 5.24575 5.55404 5.10298L10.3675 0.296215C10.4955 0.168304 10.7664 0 10.9465 0C11.1266 0 11.4093 0.168304 11.5356 0.296215L16.3255 5.04913C16.4536 5.18705 16.5248 5.36832 16.5248 5.55656C16.5248 5.74481 16.4536 5.92608 16.3255 6.064C16.2622 6.1272 16.1871 6.17729 16.1045 6.21141C16.0218 6.24554 15.9332 6.26302 15.8438 6.26287C15.7544 6.26271 15.6659 6.24492 15.5833 6.2105C15.5008 6.17609 15.4259 6.12573 15.3628 6.06232L11.7813 2.55149V16.201C11.7813 16.5763 11.3589 16.8809 10.9819 16.8809C10.6065 16.8809 10.0983 16.578 10.0983 16.201V2.64069Z" fill="#4CB488"/>
</svg>
