<svg xmlns="http://www.w3.org/2000/svg" xmlns:xlink="http://www.w3.org/1999/xlink" width="100" zoomAndPan="magnify" viewBox="0 0 75 74.999997" height="100" preserveAspectRatio="xMidYMid meet" version="1.0" data-locator-target="vscode"><path fill="#000000" d="M 30.019531 18.632812 C 29.460938 18.855469 28.910156 19.105469 28.371094 19.375 C 27.835938 19.648438 27.308594 19.941406 26.796875 20.261719 C 26.285156 20.582031 25.789062 20.921875 25.304688 21.285156 C 24.824219 21.648438 24.359375 22.03125 23.910156 22.433594 C 23.460938 22.839844 23.03125 23.261719 22.621094 23.703125 C 22.210938 24.148438 21.824219 24.609375 21.453125 25.082031 C 21.082031 25.558594 20.734375 26.050781 20.40625 26.558594 C 20.082031 27.066406 19.777344 27.589844 19.496094 28.121094 L 26.007812 28.121094 C 26.355469 26.421875 26.863281 24.773438 27.542969 23.175781 C 28.21875 21.578125 29.042969 20.066406 30.019531 18.628906 Z M 30.019531 18.632812 " fill-opacity="1" fill-rule="nonzero"/><path fill="#000000" d="M 25 37.5 C 25 35.40625 25.148438 33.324219 25.449219 31.25 L 18.183594 31.25 C 18.015625 31.753906 17.875 32.261719 17.75 32.777344 C 17.625 33.292969 17.523438 33.8125 17.441406 34.335938 C 17.359375 34.859375 17.296875 35.386719 17.253906 35.914062 C 17.210938 36.441406 17.191406 36.96875 17.191406 37.5 C 17.191406 38.03125 17.210938 38.558594 17.253906 39.085938 C 17.296875 39.613281 17.359375 40.140625 17.441406 40.664062 C 17.523438 41.1875 17.628906 41.707031 17.75 42.222656 C 17.875 42.738281 18.015625 43.246094 18.183594 43.75 L 25.449219 43.75 C 25.148438 41.675781 25.003906 39.59375 25 37.5 Z M 25 37.5 " fill-opacity="1" fill-rule="nonzero"/><path fill="#000000" d="M 45.78125 28.125 C 44.097656 21.347656 40.71875 17.1875 37.5 17.1875 C 34.28125 17.1875 30.894531 21.347656 29.21875 28.125 Z M 45.78125 28.125 " fill-opacity="1" fill-rule="nonzero"/><path fill="#000000" d="M 28.125 37.5 C 28.121094 39.59375 28.273438 41.675781 28.585938 43.75 L 46.417969 43.75 C 46.726562 41.675781 46.878906 39.59375 46.878906 37.5 C 46.878906 35.40625 46.726562 33.324219 46.417969 31.25 L 28.585938 31.25 C 28.273438 33.324219 28.121094 35.40625 28.125 37.5 Z M 28.125 37.5 " fill-opacity="1" fill-rule="nonzero"/><path fill="#000000" d="M 19.496094 46.875 C 19.777344 47.410156 20.078125 47.929688 20.40625 48.4375 C 20.734375 48.945312 21.082031 49.4375 21.453125 49.914062 C 21.824219 50.390625 22.210938 50.851562 22.621094 51.292969 C 23.03125 51.734375 23.460938 52.15625 23.910156 52.5625 C 24.359375 52.96875 24.824219 53.351562 25.304688 53.710938 C 25.789062 54.074219 26.285156 54.417969 26.796875 54.734375 C 27.308594 55.050781 27.835938 55.351562 28.371094 55.621094 C 28.910156 55.894531 29.460938 56.140625 30.019531 56.363281 C 29.046875 54.933594 28.21875 53.414062 27.542969 51.816406 C 26.867188 50.21875 26.355469 48.574219 26.007812 46.871094 L 19.496094 46.871094 Z M 19.496094 46.875 " fill-opacity="1" fill-rule="nonzero"/><path fill="#000000" d="M 50 37.5 C 50 39.59375 49.851562 41.675781 49.550781 43.75 L 56.816406 43.75 C 56.984375 43.246094 57.125 42.738281 57.25 42.222656 C 57.375 41.707031 57.476562 41.1875 57.558594 40.664062 C 57.640625 40.140625 57.703125 39.613281 57.746094 39.085938 C 57.789062 38.558594 57.808594 38.03125 57.808594 37.5 C 57.808594 36.96875 57.789062 36.441406 57.746094 35.914062 C 57.703125 35.386719 57.640625 34.859375 57.558594 34.335938 C 57.476562 33.8125 57.371094 33.292969 57.25 32.777344 C 57.125 32.261719 56.984375 31.753906 56.816406 31.25 L 49.550781 31.25 C 49.851562 33.324219 49.996094 35.40625 50 37.5 Z M 50 37.5 " fill-opacity="1" fill-rule="nonzero"/><path fill="#000000" d="M 37.5 0 C 36.886719 0 36.273438 0.015625 35.660156 0.046875 C 35.046875 0.0742188 34.433594 0.121094 33.824219 0.179688 C 33.214844 0.238281 32.605469 0.316406 31.996094 0.40625 C 31.390625 0.496094 30.785156 0.601562 30.183594 0.71875 C 29.582031 0.839844 28.984375 0.976562 28.390625 1.121094 C 27.796875 1.269531 27.203125 1.433594 26.613281 1.613281 C 26.027344 1.789062 25.445312 1.984375 24.867188 2.191406 C 24.289062 2.398438 23.71875 2.617188 23.148438 2.851562 C 22.582031 3.085938 22.023438 3.335938 21.46875 3.597656 C 20.914062 3.859375 20.363281 4.136719 19.824219 4.425781 C 19.28125 4.714844 18.746094 5.015625 18.21875 5.332031 C 17.691406 5.648438 17.175781 5.976562 16.664062 6.316406 C 16.15625 6.65625 15.652344 7.011719 15.160156 7.378906 C 14.667969 7.742188 14.183594 8.121094 13.710938 8.511719 C 13.234375 8.898438 12.769531 9.300781 12.316406 9.710938 C 11.863281 10.125 11.417969 10.546875 10.984375 10.984375 C 10.550781 11.417969 10.128906 11.859375 9.714844 12.316406 C 9.300781 12.769531 8.902344 13.234375 8.511719 13.707031 C 8.121094 14.183594 7.746094 14.664062 7.378906 15.15625 C 7.015625 15.648438 6.664062 16.152344 6.320312 16.664062 C 5.980469 17.171875 5.648438 17.691406 5.335938 18.21875 C 5.019531 18.746094 4.71875 19.277344 4.425781 19.820312 C 4.136719 20.359375 3.863281 20.910156 3.601562 21.464844 C 3.335938 22.019531 3.089844 22.578125 2.855469 23.148438 C 2.621094 23.714844 2.398438 24.289062 2.191406 24.863281 C 1.984375 25.441406 1.792969 26.023438 1.613281 26.613281 C 1.4375 27.199219 1.273438 27.789062 1.125 28.386719 C 0.976562 28.984375 0.84375 29.582031 0.722656 30.183594 C 0.601562 30.785156 0.496094 31.390625 0.40625 31.996094 C 0.316406 32.601562 0.242188 33.210938 0.183594 33.824219 C 0.121094 34.433594 0.078125 35.046875 0.046875 35.65625 C 0.015625 36.269531 0.00390625 36.882812 0.00390625 37.496094 C 0.00390625 38.113281 0.015625 38.726562 0.046875 39.335938 C 0.078125 39.949219 0.121094 40.5625 0.183594 41.171875 C 0.242188 41.78125 0.316406 42.390625 0.40625 43 C 0.496094 43.609375 0.601562 44.210938 0.722656 44.8125 C 0.84375 45.414062 0.976562 46.011719 1.125 46.609375 C 1.273438 47.203125 1.4375 47.796875 1.613281 48.382812 C 1.792969 48.96875 1.984375 49.550781 2.191406 50.128906 C 2.398438 50.707031 2.621094 51.28125 2.855469 51.847656 C 3.089844 52.414062 3.335938 52.976562 3.601562 53.53125 C 3.863281 54.085938 4.136719 54.632812 4.425781 55.175781 C 4.71875 55.71875 5.019531 56.25 5.335938 56.777344 C 5.648438 57.304688 5.980469 57.824219 6.320312 58.332031 C 6.660156 58.84375 7.015625 59.34375 7.378906 59.835938 C 7.746094 60.328125 8.121094 60.816406 8.511719 61.289062 C 8.902344 61.761719 9.300781 62.226562 9.714844 62.679688 C 10.128906 63.136719 10.550781 63.578125 10.984375 64.011719 C 11.421875 64.445312 11.863281 64.871094 12.316406 65.28125 C 12.773438 65.695312 13.238281 66.09375 13.710938 66.484375 C 14.183594 66.875 14.667969 67.253906 15.160156 67.617188 C 15.652344 67.984375 16.15625 68.335938 16.664062 68.675781 C 17.175781 69.015625 17.691406 69.347656 18.21875 69.664062 C 18.746094 69.976562 19.28125 70.28125 19.824219 70.570312 C 20.363281 70.859375 20.914062 71.136719 21.46875 71.398438 C 22.023438 71.660156 22.582031 71.90625 23.148438 72.140625 C 23.71875 72.378906 24.289062 72.597656 24.867188 72.804688 C 25.445312 73.011719 26.027344 73.203125 26.613281 73.382812 C 27.203125 73.558594 27.792969 73.726562 28.390625 73.871094 C 28.988281 74.019531 29.585938 74.15625 30.183594 74.273438 C 30.785156 74.394531 31.390625 74.5 31.996094 74.589844 C 32.601562 74.679688 33.210938 74.753906 33.824219 74.816406 C 34.433594 74.875 35.046875 74.921875 35.660156 74.949219 C 36.273438 74.980469 36.886719 74.996094 37.5 74.996094 C 38.113281 74.996094 38.726562 74.980469 39.339844 74.949219 C 39.953125 74.921875 40.566406 74.875 41.175781 74.816406 C 41.785156 74.753906 42.394531 74.679688 43.003906 74.589844 C 43.609375 74.5 44.214844 74.394531 44.816406 74.273438 C 45.414062 74.15625 46.015625 74.019531 46.609375 73.871094 C 47.203125 73.726562 47.796875 73.558594 48.386719 73.382812 C 48.972656 73.203125 49.554688 73.011719 50.132812 72.804688 C 50.710938 72.597656 51.28125 72.378906 51.851562 72.140625 C 52.417969 71.90625 52.976562 71.660156 53.53125 71.398438 C 54.085938 71.136719 54.636719 70.859375 55.175781 70.570312 C 55.71875 70.28125 56.253906 69.976562 56.78125 69.664062 C 57.308594 69.347656 57.824219 69.015625 58.335938 68.675781 C 58.84375 68.335938 59.347656 67.984375 59.839844 67.617188 C 60.332031 67.253906 60.816406 66.875 61.289062 66.484375 C 61.765625 66.09375 62.230469 65.695312 62.683594 65.28125 C 63.136719 64.871094 63.582031 64.449219 64.015625 64.011719 C 64.449219 63.578125 64.871094 63.136719 65.285156 62.679688 C 65.699219 62.226562 66.097656 61.761719 66.488281 61.289062 C 66.878906 60.8125 67.253906 60.328125 67.621094 59.835938 C 67.984375 59.34375 68.335938 58.84375 68.679688 58.332031 C 69.019531 57.824219 69.351562 57.304688 69.664062 56.777344 C 69.980469 56.25 70.28125 55.71875 70.574219 55.175781 C 70.863281 54.636719 71.136719 54.085938 71.398438 53.53125 C 71.664062 52.976562 71.910156 52.414062 72.144531 51.847656 C 72.378906 51.28125 72.601562 50.707031 72.808594 50.128906 C 73.015625 49.550781 73.207031 48.96875 73.386719 48.382812 C 73.5625 47.796875 73.726562 47.203125 73.875 46.609375 C 74.023438 46.011719 74.15625 45.414062 74.277344 44.8125 C 74.398438 44.210938 74.503906 43.605469 74.59375 43 C 74.683594 42.394531 74.757812 41.785156 74.816406 41.171875 C 74.878906 40.5625 74.921875 39.949219 74.953125 39.335938 C 74.984375 38.726562 74.996094 38.113281 74.996094 37.496094 C 74.996094 36.886719 74.980469 36.269531 74.949219 35.65625 C 74.921875 35.046875 74.871094 34.433594 74.8125 33.824219 C 74.753906 33.210938 74.675781 32.601562 74.585938 31.996094 C 74.496094 31.390625 74.390625 30.789062 74.269531 30.183594 C 74.148438 29.582031 74.015625 28.984375 73.863281 28.390625 C 73.714844 27.796875 73.550781 27.203125 73.371094 26.617188 C 73.195312 26.03125 73.003906 25.449219 72.796875 24.871094 C 72.585938 24.292969 72.367188 23.71875 72.132812 23.15625 C 71.898438 22.585938 71.648438 22.027344 71.386719 21.472656 C 71.121094 20.917969 70.847656 20.371094 70.558594 19.828125 C 70.265625 19.289062 69.964844 18.753906 69.648438 18.230469 C 69.335938 17.703125 69.003906 17.183594 68.664062 16.675781 C 68.324219 16.164062 67.96875 15.664062 67.605469 15.171875 C 67.238281 14.675781 66.863281 14.195312 66.472656 13.71875 C 66.082031 13.246094 65.683594 12.78125 65.269531 12.328125 C 64.859375 11.871094 64.433594 11.425781 64 10.996094 C 63.566406 10.558594 63.121094 10.136719 62.667969 9.726562 C 62.210938 9.3125 61.746094 8.914062 61.273438 8.523438 C 60.800781 8.132812 60.316406 7.753906 59.824219 7.390625 C 59.332031 7.023438 58.828125 6.671875 58.320312 6.328125 C 57.808594 5.988281 57.292969 5.660156 56.765625 5.34375 C 56.238281 5.03125 55.703125 4.726562 55.164062 4.4375 C 54.625 4.148438 54.078125 3.871094 53.523438 3.609375 C 52.96875 3.347656 52.40625 3.097656 51.839844 2.863281 C 51.273438 2.628906 50.699219 2.40625 50.125 2.199219 C 49.546875 1.992188 48.964844 1.800781 48.378906 1.621094 C 47.789062 1.445312 47.199219 1.28125 46.605469 1.128906 C 46.011719 0.980469 45.414062 0.84375 44.808594 0.726562 C 44.207031 0.605469 43.605469 0.5 42.996094 0.410156 C 42.390625 0.320312 41.78125 0.242188 41.171875 0.183594 C 40.5625 0.121094 39.949219 0.0742188 39.335938 0.046875 C 38.726562 0.015625 38.113281 -0.00390625 37.496094 -0.00390625 Z M 37.5 60.9375 C 37.113281 60.9375 36.734375 60.925781 36.351562 60.910156 C 35.96875 60.890625 35.585938 60.863281 35.203125 60.824219 C 34.820312 60.789062 34.441406 60.738281 34.058594 60.683594 C 33.679688 60.628906 33.300781 60.5625 32.925781 60.488281 C 32.550781 60.414062 32.175781 60.328125 31.804688 60.234375 C 31.433594 60.140625 31.0625 60.039062 30.699219 59.925781 C 30.328125 59.816406 29.964844 59.695312 29.605469 59.566406 C 29.242188 59.4375 28.886719 59.300781 28.53125 59.152344 C 28.175781 59.003906 27.828125 58.851562 27.480469 58.6875 C 27.132812 58.523438 26.789062 58.351562 26.453125 58.171875 C 26.113281 57.988281 25.78125 57.800781 25.453125 57.601562 C 25.121094 57.40625 24.800781 57.199219 24.480469 56.988281 C 24.160156 56.773438 23.847656 56.554688 23.539062 56.324219 C 23.234375 56.097656 22.929688 55.859375 22.632812 55.617188 C 22.335938 55.375 22.046875 55.125 21.761719 54.867188 C 21.476562 54.609375 21.199219 54.34375 20.929688 54.074219 C 20.660156 53.800781 20.394531 53.523438 20.136719 53.242188 C 19.878906 52.957031 19.628906 52.667969 19.386719 52.371094 C 19.144531 52.074219 18.90625 51.773438 18.679688 51.464844 C 18.453125 51.15625 18.230469 50.84375 18.015625 50.523438 C 17.804688 50.207031 17.601562 49.882812 17.402344 49.550781 C 17.203125 49.222656 17.015625 48.890625 16.835938 48.550781 C 16.65625 48.214844 16.484375 47.871094 16.316406 47.523438 C 16.152344 47.175781 15.996094 46.828125 15.851562 46.472656 C 15.703125 46.117188 15.566406 45.761719 15.4375 45.398438 C 15.308594 45.039062 15.1875 44.675781 15.078125 44.308594 C 14.964844 43.941406 14.863281 43.570312 14.769531 43.199219 C 14.675781 42.828125 14.59375 42.453125 14.515625 42.078125 C 14.441406 41.699219 14.378906 41.324219 14.320312 40.945312 C 14.265625 40.566406 14.21875 40.183594 14.179688 39.800781 C 14.140625 39.421875 14.113281 39.039062 14.09375 38.65625 C 14.074219 38.273438 14.066406 37.886719 14.066406 37.503906 C 14.066406 37.121094 14.078125 36.738281 14.09375 36.355469 C 14.113281 35.972656 14.140625 35.589844 14.179688 35.207031 C 14.21875 34.824219 14.265625 34.445312 14.320312 34.066406 C 14.378906 33.683594 14.441406 33.308594 14.515625 32.933594 C 14.59375 32.558594 14.675781 32.183594 14.769531 31.808594 C 14.863281 31.4375 14.964844 31.066406 15.078125 30.703125 C 15.191406 30.335938 15.308594 29.96875 15.4375 29.609375 C 15.566406 29.246094 15.703125 28.890625 15.851562 28.539062 C 16 28.183594 16.15625 27.832031 16.316406 27.484375 C 16.484375 27.136719 16.65625 26.796875 16.835938 26.457031 C 17.015625 26.121094 17.203125 25.785156 17.402344 25.457031 C 17.601562 25.128906 17.804688 24.804688 18.015625 24.484375 C 18.230469 24.164062 18.449219 23.851562 18.679688 23.546875 C 18.90625 23.238281 19.144531 22.933594 19.386719 22.636719 C 19.628906 22.34375 19.878906 22.050781 20.136719 21.765625 C 20.394531 21.484375 20.660156 21.203125 20.929688 20.933594 C 21.203125 20.664062 21.480469 20.398438 21.761719 20.140625 C 22.046875 19.886719 22.335938 19.636719 22.632812 19.390625 C 22.929688 19.148438 23.234375 18.914062 23.539062 18.683594 C 23.847656 18.457031 24.164062 18.234375 24.480469 18.023438 C 24.796875 17.808594 25.121094 17.605469 25.453125 17.40625 C 25.78125 17.210938 26.113281 17.019531 26.453125 16.839844 C 26.789062 16.660156 27.132812 16.488281 27.480469 16.324219 C 27.828125 16.15625 28.175781 16.003906 28.53125 15.859375 C 28.886719 15.710938 29.246094 15.574219 29.605469 15.441406 C 29.964844 15.3125 30.328125 15.191406 30.699219 15.082031 C 31.066406 14.96875 31.433594 14.871094 31.804688 14.773438 C 32.175781 14.679688 32.550781 14.597656 32.925781 14.523438 C 33.304688 14.449219 33.683594 14.382812 34.058594 14.324219 C 34.441406 14.269531 34.820312 14.222656 35.203125 14.183594 C 35.585938 14.148438 35.96875 14.121094 36.351562 14.101562 C 36.734375 14.078125 37.117188 14.074219 37.5 14.074219 C 37.882812 14.074219 38.265625 14.082031 38.648438 14.101562 C 39.03125 14.121094 39.414062 14.148438 39.796875 14.183594 C 40.179688 14.222656 40.558594 14.269531 40.941406 14.324219 C 41.320312 14.382812 41.699219 14.449219 42.074219 14.523438 C 42.449219 14.597656 42.824219 14.683594 43.195312 14.773438 C 43.566406 14.867188 43.9375 14.96875 44.300781 15.082031 C 44.671875 15.195312 45.035156 15.316406 45.394531 15.441406 C 45.757812 15.574219 46.113281 15.710938 46.46875 15.859375 C 46.824219 16.003906 47.171875 16.160156 47.519531 16.324219 C 47.867188 16.488281 48.210938 16.660156 48.546875 16.839844 C 48.886719 17.019531 49.21875 17.210938 49.546875 17.40625 C 49.878906 17.605469 50.199219 17.808594 50.519531 18.023438 C 50.839844 18.234375 51.152344 18.453125 51.460938 18.683594 C 51.765625 18.914062 52.070312 19.148438 52.367188 19.390625 C 52.664062 19.636719 52.953125 19.886719 53.238281 20.140625 C 53.523438 20.398438 53.800781 20.664062 54.070312 20.933594 C 54.339844 21.207031 54.605469 21.484375 54.863281 21.765625 C 55.121094 22.050781 55.371094 22.34375 55.613281 22.636719 C 55.855469 22.933594 56.09375 23.238281 56.320312 23.546875 C 56.546875 23.851562 56.769531 24.167969 56.984375 24.484375 C 57.195312 24.800781 57.398438 25.128906 57.597656 25.457031 C 57.796875 25.789062 57.984375 26.121094 58.164062 26.457031 C 58.34375 26.796875 58.515625 27.136719 58.683594 27.484375 C 58.847656 27.832031 59.003906 28.183594 59.148438 28.539062 C 59.296875 28.890625 59.433594 29.25 59.5625 29.609375 C 59.691406 29.96875 59.8125 30.335938 59.921875 30.703125 C 60.035156 31.070312 60.136719 31.441406 60.230469 31.808594 C 60.324219 32.179688 60.40625 32.554688 60.484375 32.933594 C 60.558594 33.308594 60.621094 33.6875 60.679688 34.066406 C 60.734375 34.445312 60.78125 34.824219 60.820312 35.207031 C 60.859375 35.589844 60.886719 35.972656 60.90625 36.355469 C 60.925781 36.738281 60.933594 37.121094 60.933594 37.503906 C 60.933594 37.886719 60.921875 38.273438 60.902344 38.65625 C 60.882812 39.039062 60.855469 39.421875 60.816406 39.800781 C 60.78125 40.183594 60.734375 40.566406 60.675781 40.941406 C 60.617188 41.324219 60.550781 41.699219 60.476562 42.074219 C 60.402344 42.449219 60.316406 42.824219 60.226562 43.199219 C 60.132812 43.570312 60.03125 43.941406 59.917969 44.304688 C 59.804688 44.671875 59.683594 45.035156 59.554688 45.398438 C 59.425781 45.761719 59.289062 46.113281 59.140625 46.46875 C 58.992188 46.824219 58.835938 47.175781 58.671875 47.523438 C 58.507812 47.871094 58.335938 48.210938 58.15625 48.550781 C 57.976562 48.890625 57.785156 49.222656 57.585938 49.550781 C 57.390625 49.878906 57.183594 50.203125 56.972656 50.523438 C 56.761719 50.839844 56.539062 51.15625 56.308594 51.460938 C 56.082031 51.769531 55.84375 52.074219 55.601562 52.371094 C 55.359375 52.664062 55.109375 52.957031 54.851562 53.238281 C 54.59375 53.523438 54.328125 53.800781 54.058594 54.074219 C 53.789062 54.34375 53.511719 54.609375 53.226562 54.863281 C 52.941406 55.121094 52.652344 55.371094 52.359375 55.613281 C 52.0625 55.859375 51.761719 56.09375 51.449219 56.324219 C 51.140625 56.550781 50.828125 56.773438 50.511719 56.984375 C 50.191406 57.199219 49.867188 57.402344 49.539062 57.601562 C 49.207031 57.796875 48.875 57.988281 48.539062 58.167969 C 48.199219 58.347656 47.859375 58.519531 47.511719 58.683594 C 47.164062 58.851562 46.8125 59.003906 46.457031 59.152344 C 46.101562 59.300781 45.746094 59.4375 45.386719 59.566406 C 45.023438 59.699219 44.660156 59.816406 44.292969 59.929688 C 43.925781 60.042969 43.558594 60.144531 43.183594 60.238281 C 42.8125 60.328125 42.441406 60.414062 42.0625 60.488281 C 41.6875 60.566406 41.308594 60.628906 40.929688 60.6875 C 40.550781 60.746094 40.171875 60.792969 39.789062 60.828125 C 39.410156 60.867188 39.023438 60.898438 38.640625 60.914062 C 38.261719 60.933594 37.875 60.945312 37.492188 60.945312 Z M 37.5 60.9375 " fill-opacity="1" fill-rule="nonzero"/><path fill="#000000" d="M 29.21875 46.875 C 30.902344 53.652344 34.28125 57.8125 37.5 57.8125 C 40.71875 57.8125 44.105469 53.652344 45.78125 46.875 Z M 29.21875 46.875 " fill-opacity="1" fill-rule="nonzero"/><path fill="#000000" d="M 44.980469 18.632812 C 45.953125 20.066406 46.78125 21.582031 47.457031 23.179688 C 48.132812 24.777344 48.644531 26.425781 48.992188 28.125 L 55.503906 28.125 C 55.222656 27.589844 54.921875 27.070312 54.59375 26.5625 C 54.265625 26.054688 53.917969 25.5625 53.546875 25.085938 C 53.175781 24.609375 52.789062 24.148438 52.378906 23.707031 C 51.96875 23.265625 51.539062 22.84375 51.089844 22.4375 C 50.640625 22.03125 50.175781 21.648438 49.695312 21.289062 C 49.210938 20.925781 48.714844 20.582031 48.203125 20.265625 C 47.691406 19.949219 47.164062 19.648438 46.628906 19.378906 C 46.089844 19.105469 45.539062 18.859375 44.980469 18.636719 Z M 44.980469 18.632812 " fill-opacity="1" fill-rule="nonzero"/><path fill="#000000" d="M 44.980469 56.367188 C 45.539062 56.144531 46.089844 55.894531 46.628906 55.625 C 47.164062 55.351562 47.691406 55.058594 48.203125 54.738281 C 48.714844 54.417969 49.210938 54.078125 49.695312 53.714844 C 50.175781 53.351562 50.640625 52.96875 51.089844 52.566406 C 51.539062 52.160156 51.96875 51.738281 52.378906 51.296875 C 52.789062 50.851562 53.175781 50.390625 53.546875 49.917969 C 53.917969 49.441406 54.265625 48.949219 54.59375 48.441406 C 54.917969 47.933594 55.222656 47.410156 55.503906 46.878906 L 48.992188 46.878906 C 48.644531 48.578125 48.136719 50.226562 47.457031 51.824219 C 46.78125 53.421875 45.957031 54.933594 44.980469 56.371094 Z M 44.980469 56.367188 " fill-opacity="1" fill-rule="nonzero"/></svg>