<svg xmlns="http://www.w3.org/2000/svg" xmlns:xlink="http://www.w3.org/1999/xlink" width="100" zoomAndPan="magnify" viewBox="0 0 75 74.999997" height="100" preserveAspectRatio="xMidYMid meet" version="1.0" data-locator-target="vscode"><path fill="#000000" d="M 26.449219 23.714844 C 25.554688 23.714844 24.828125 23.007812 24.792969 22.125 C 24.757812 23.007812 24.03125 23.714844 23.136719 23.714844 L 22.503906 23.714844 L 32.523438 43.730469 L 35.09375 38.605469 L 27.636719 23.714844 L 26.445312 23.714844 Z M 26.449219 23.714844 " fill-opacity="1" fill-rule="nonzero"/><path fill="#000000" d="M 18.796875 23.714844 L 16.976562 23.714844 L 29.765625 49.246094 L 30.671875 47.429688 Z M 18.796875 23.714844 " fill-opacity="1" fill-rule="nonzero"/><path fill="#000000" d="M 36.949219 34.90625 L 37.859375 33.089844 L 33.164062 23.714844 L 31.34375 23.714844 Z M 36.949219 34.90625 " fill-opacity="1" fill-rule="nonzero"/><path fill="#000000" d="M 39.710938 36.789062 L 38.800781 38.605469 L 44.128906 49.246094 L 45.039062 47.429688 Z M 39.710938 36.789062 " fill-opacity="1" fill-rule="nonzero"/><path fill="#000000" d="M 37.5 0 C 16.789062 0 0 16.789062 0 37.5 C 0 58.210938 16.789062 75 37.5 75 C 58.210938 75 75 58.210938 75 37.5 C 75 16.789062 58.210938 0 37.5 0 Z M 62.363281 23.714844 L 60.628906 23.714844 L 47.824219 49.273438 C 47.824219 49.273438 47.816406 49.28125 47.816406 49.285156 L 45.613281 53.683594 C 45.332031 54.246094 44.757812 54.601562 44.128906 54.601562 C 43.503906 54.601562 42.925781 54.246094 42.648438 53.683594 L 36.949219 42.304688 L 33.457031 49.273438 C 33.457031 49.273438 33.453125 49.28125 33.449219 49.285156 L 31.246094 53.683594 C 30.96875 54.246094 30.390625 54.601562 29.765625 54.601562 C 29.136719 54.601562 28.5625 54.246094 28.28125 53.683594 L 13.269531 23.714844 L 12.632812 23.714844 C 11.71875 23.714844 10.976562 22.972656 10.976562 22.058594 C 10.976562 21.148438 11.71875 20.40625 12.632812 20.40625 L 14.144531 20.40625 C 14.238281 20.398438 14.332031 20.398438 14.425781 20.40625 L 19.671875 20.40625 C 19.765625 20.398438 19.859375 20.398438 19.949219 20.40625 L 23.136719 20.40625 C 24.03125 20.40625 24.757812 21.113281 24.792969 21.996094 C 24.828125 21.113281 25.550781 20.40625 26.449219 20.40625 L 28.511719 20.40625 C 28.609375 20.398438 28.699219 20.398438 28.792969 20.40625 L 34.039062 20.40625 C 34.132812 20.398438 34.226562 20.398438 34.316406 20.40625 L 37.503906 20.40625 C 38.421875 20.40625 39.164062 21.148438 39.164062 22.058594 C 39.164062 22.972656 38.421875 23.714844 37.503906 23.714844 L 36.871094 23.714844 L 39.710938 29.386719 L 42.550781 23.714844 L 41.921875 23.714844 C 41.003906 23.714844 40.261719 22.972656 40.261719 22.058594 C 40.261719 21.148438 41.003906 20.40625 41.921875 20.40625 L 48.550781 20.40625 C 49.464844 20.40625 50.207031 21.148438 50.207031 22.058594 C 50.207031 22.972656 49.464844 23.714844 48.550781 23.714844 L 46.261719 23.714844 L 41.566406 33.089844 L 46.890625 43.730469 L 56.917969 23.714844 L 56.285156 23.714844 C 55.371094 23.714844 54.628906 22.972656 54.628906 22.058594 C 54.628906 21.148438 55.371094 20.40625 56.285156 20.40625 L 62.363281 20.40625 C 63.277344 20.40625 64.019531 21.148438 64.019531 22.058594 C 64.019531 22.972656 63.277344 23.714844 62.363281 23.714844 Z M 62.363281 23.714844 " fill-opacity="1" fill-rule="nonzero"/></svg>