<!-- icon666.com - MILLIONS vector ICONS FREE --><svg version="1.1" id="Capa_1" xmlns="http://www.w3.org/2000/svg" xmlns:xlink="http://www.w3.org/1999/xlink" x="0px" y="0px" viewBox="0 0 512 512" style="enable-background:new 0 0 512 512;" xml:space="preserve"><g><g><path d="M271,0v151h80.552C336.156,70.505,304.029,12.757,271,0z"/></g></g><g><g><path d="M164.64,131.582c6.136,5.114,10.862,11.75,13.597,19.418H241V0C210.709,11.699,181.205,61.91,164.64,131.582z"/></g></g><g><g><path d="M356.248,181H271v150h62.763c4.297-12.052,13.447-21.78,25.236-26.614C360.238,288.871,361,272.798,361,256 C361,229.34,359.257,204.32,356.248,181z"/></g></g><g><g><path d="M500.71,181H386.296c2.977,23.859,4.704,48.9,4.704,75c0,16.146-0.758,31.818-1.924,47.164 c13.605,4.169,24.404,14.498,29.161,27.836h82.473c7.317-23.725,11.29-48.904,11.29-75S508.027,204.725,500.71,181z"/></g></g><g><g><path d="M325.565,6.689c25.507,31.837,45.33,85.003,56.169,144.311h107.379C458.383,83.348,398.064,27.299,325.565,6.689z"/></g></g><g><g><path d="M121,256c0-16.146,0.758-31.818,1.924-47.164C109.32,204.666,98.52,194.337,93.763,181H11.29 C3.973,204.725,0,229.904,0,256s3.973,51.275,11.29,75h114.414C122.727,307.141,121,282.1,121,256z"/></g></g><g><g><path d="M130.266,361H22.886c30.731,67.652,91.05,123.701,163.549,144.311C160.928,473.474,141.105,420.308,130.266,361z"/></g></g><g><g><path d="M178.237,181c-4.297,12.052-13.447,21.78-25.236,26.614C151.762,223.129,151,239.202,151,256 c0,26.66,1.743,51.68,4.752,75H241V181H178.237z"/></g></g><g><g><path d="M418.237,361c-6.213,17.422-22.707,30-42.237,30c-0.212,0-0.408-0.059-0.619-0.062 c-11.459,45.939-28.727,88.05-49.816,114.373c72.499-20.61,132.818-76.659,163.549-144.311H418.237z"/></g></g><g><g><path d="M22.886,151h70.877c6.213-17.422,22.707-30,42.237-30c0.212,0,0.408,0.059,0.619,0.062 c11.459-45.939,28.727-88.05,49.816-114.373C113.936,27.299,53.617,83.348,22.886,151z"/></g></g><g><g><path d="M160.448,361c15.396,80.495,47.523,138.243,80.552,151V361H160.448z"/></g></g><g><g><path d="M333.763,361H271v151c30.291-11.699,59.795-61.91,76.36-131.582C341.224,375.304,336.498,368.668,333.763,361z"/></g></g><g><g><circle cx="136" cy="166" r="15"/></g></g><g><g><circle cx="376" cy="346" r="15"/></g></g></svg>