<svg xmlns="http://www.w3.org/2000/svg" xmlns:xlink="http://www.w3.org/1999/xlink" width="100" zoomAndPan="magnify" viewBox="0 0 75 74.999997" height="100" preserveAspectRatio="xMidYMid meet" version="1.0" data-locator-target="vscode">
<path fill="#000000" d="M 37.5 0 C 16.785156 0 0 16.785156 0 37.5 C 0 58.214844 16.785156 75 37.5 75 C 58.214844 75 75 58.214844 75 37.5 C 74.96875 16.785156 58.183594 0 37.5 0 Z M 59.089844 47.988281 C 58.667969 50.746094 56.265625 52.761719 53.472656 52.761719 L 21.492188 52.761719 C 18.699219 52.761719 16.296875 50.746094 15.875 47.988281 C 15.484375 45.421875 15.09375 41.851562 15.0625 37.46875 C 15.09375 33.085938 15.453125 29.546875 15.875 26.949219 C 16.296875 24.1875 18.699219 22.175781 21.492188 22.175781 L 53.472656 22.175781 C 56.265625 22.175781 58.667969 24.1875 59.089844 26.949219 C 59.480469 29.511719 59.871094 33.085938 59.902344 37.46875 C 59.871094 41.851562 59.480469 45.421875 59.089844 47.988281 Z M 59.089844 47.988281 " fill-opacity="1" fill-rule="nonzero"/>
<path fill="#000000" d="M 32.761719 31.394531 L 32.761719 43.570312 L 44.09375 37.496094 L 32.761719 31.390625 Z M 32.761719 31.394531 " fill-opacity="1" fill-rule="nonzero"/>
</svg>