<?xml version="1.0" standalone="no"?>
<!DOCTYPE svg PUBLIC "-//W3C//DTD SVG 20010904//EN"
 "http://www.w3.org/TR/2001/REC-SVG-20010904/DTD/svg10.dtd">
<svg version="1.0" xmlns="http://www.w3.org/2000/svg"
 width="500.000000pt" height="500.000000pt" viewBox="0 0 500.000000 500.000000"
 preserveAspectRatio="xMidYMid meet">

<g transform="translate(0.000000,500.000000) scale(0.100000,-0.100000)"
fill="#000000" stroke="none">
<path d="M2400 4575 c-96 -32 -186 -125 -211 -220 -19 -70 -7 -183 26 -244 33
-60 101 -125 151 -143 l34 -12 0 -182 0 -183 -502 -3 -503 -4 -90 -28 c-303
-93 -516 -336 -565 -646 -5 -36 -10 -88 -10 -115 l0 -50 -62 -12 c-96 -19
-213 -81 -285 -153 -114 -114 -170 -261 -160 -420 16 -249 188 -450 435 -507
l72 -17 0 -47 c0 -79 29 -218 62 -297 102 -246 315 -423 573 -476 68 -14 201
-16 1099 -16 l1022 0 294 -216 c162 -119 309 -222 325 -229 43 -18 89 -8 122
27 l28 29 5 617 5 617 35 3 c168 14 357 155 431 321 119 269 7 585 -256 718
-41 21 -139 50 -185 55 -24 3 -25 5 -32 108 -21 334 -247 611 -580 712 -70 21
-92 22 -575 26 l-503 3 0 180 0 179 50 25 c66 33 117 86 149 154 35 76 37 192
3 266 -29 63 -93 129 -156 162 -63 32 -179 40 -246 18z m200 -181 c42 -36 60
-74 60 -129 0 -84 -55 -148 -135 -161 -162 -24 -252 202 -116 293 51 35 148
33 191 -3z m1037 -1041 c94 -32 171 -80 244 -152 80 -81 123 -155 149 -257 19
-75 20 -113 20 -1186 0 -609 -3 -1108 -7 -1108 -16 1 -310 222 -384 290 l-78
71 -1063 -1 c-1179 0 -1113 -4 -1258 67 -141 69 -262 222 -301 383 -11 44 -14
199 -14 745 l0 690 27 78 c43 120 100 201 193 275 85 67 182 109 285 122 30 5
521 7 1090 6 1022 -2 1036 -2 1097 -23z m-2887 -1164 l0 -321 -42 7 c-55 9
-134 44 -174 78 -17 14 -46 54 -65 89 -31 58 -34 70 -34 148 0 98 20 152 80
218 45 51 144 102 197 102 l38 0 0 -321z m3653 287 c59 -34 112 -92 139 -151
34 -74 32 -190 -3 -266 -46 -97 -139 -167 -246 -184 l-43 -7 0 323 0 322 55
-6 c33 -3 73 -16 98 -31z"/>
<path d="M1530 2275 c-46 -21 -87 -61 -112 -109 -31 -60 -23 -161 18 -218 81
-115 236 -129 335 -29 74 74 88 159 42 252 -40 78 -94 113 -181 116 -45 2 -79
-2 -102 -12z"/>
<path d="M3282 2273 c-80 -39 -125 -110 -126 -198 -1 -189 213 -293 359 -173
124 103 99 302 -48 371 -45 22 -141 22 -185 0z"/>
<path d="M2042 1767 c-41 -43 -30 -81 42 -153 72 -72 142 -110 233 -124 76
-13 276 -13 344 0 85 16 169 62 232 129 47 49 57 66 57 95 0 23 -7 42 -22 56
-21 19 -33 20 -443 20 l-422 0 -21 -23z"/>
</g>
</svg>
